{
DisplayStrings = (
"/hehDoachashmee-ar.medi",
"",
"",
"",
"",
"/teh-ar.init",
"",
""
);
classes = (
{
automatic = 1;
code = "dotlessbeh-ar hamza-ar highhamza-ar alef-ar alefHamzaabove-ar alefHamzabelow-ar alefMadda-ar alefWasla-ar beh-ar peh-ar teh-ar tehRing-ar theh-ar tteh-ar jeem-ar tcheh-ar hah-ar hahHamzaabove-ar hahThreedotsabove-ar khah-ar dal-ar thal-ar ddal-ar dalRing-ar dul-ar dalVinvertedabove-ar reh-ar zain-ar rreh-ar rehRing-ar rehVbelow-ar rehDotbelowdotabove-ar jeh-ar seen-ar seenDotbelowDotabove-ar sheen-ar sad-ar dad-ar tah-ar zah-ar ain-ar ghain-ar feh-ar veh-ar dotlessfeh-ar dotlessqaf-ar qaf-ar kaf-ar keheh-ar gaf-ar kafRing-ar ng-ar lam-ar lamVabove-ar meem-ar noon-ar noonghunna-ar noonRing-ar heh-ar hehgoal-ar hehgoalHamzaabove-ar hehDoachashmee-ar tehMarbuta-ar tehMarbutagoal-ar waw-ar wawring-ar wawTwodots-ar wawHamzaabove-ar oe-ar u-ar yu-ar ve-ar alefMaksura-ar yeh-ar yehHamzaabove-ar yehVabove-ar yeh-farsi yehTail-ar e-ar yehbarree-ar yehbarreeHamzaabove-ar ae-ar kashida-ar lam_alef-ar lam_alefHamzaabove-ar lam_alefHamzabelow-ar lam_alefMadda-ar allah-ar";
name = ArabicLetters;
},
{
automatic = 1;

glyphs = (
{
glyphname = "dotlessbeh-ar";
layers = (
{
anchors = (
{
name = bottom;
position = "{773, -197}";
},
{
name = top;
position = "{727, 749}";
}
);
guideLines = (
{
position = "{383, 1092}";
}
);
layerId = "3D7C20C2-9735-4AE4-B4D3-DDFDA9BF3443";
name = Regular;
paths = (
{
closed = 1;
nodes = (
"694 -49 OFFCURVE",
"841 -33 OFFCURVE",
"992 -6 CURVE SMOOTH",
"1255 36 OFFCURVE",
"1466 110 OFFCURVE",
"1466 358 CURVE SMOOTH",
"1466 438 OFFCURVE",
"1405 685 OFFCURVE",
"1369 838 CURVE",
"1366 849 OFFCURVE",
"1357 850 OFFCURVE",
"1349 842 CURVE SMOOTH",
"1259 751 LINE",
"1254 745 OFFCURVE",
"1252 739 OFFCURVE",
"1254 731 CURVE SMOOTH",
"1365 254 LINE SMOOTH",
"1367 245 OFFCURVE",
"1365 239 OFFCURVE",
"1356 235 CURVE SMOOTH",
"1233 181 OFFCURVE",
"929 110 OFFCURVE",
"652 115 CURVE SMOOTH",
"417 119 OFFCURVE",
"223 184 OFFCURVE",
"243 385 CURVE SMOOTH",
"255 510 LINE SMOOTH",
"256 519 OFFCURVE",
"251 525 OFFCURVE",
"242 526 CURVE SMOOTH",
"187 531 LINE SMOOTH",
"178 532 OFFCURVE",
"171 526 OFFCURVE",
"170 517 CURVE SMOOTH",
"155 385 LINE SMOOTH",
"120 82 OFFCURVE",
"262 -37 OFFCURVE",
"579 -46 CURVE SMOOTH"
);
}
);
width = 1586;
},
{
anchors = (
{
name = bottom;
position = "{773, -197}";
},
{
name = top;
position = "{727, 749}";
}
);
guideLines = (
{
position = "{383, 1092}";
}
);
layerId = "BE58D163-656C-4DD5-ACF8-D2DBE947AA26";
name = Bold;
paths = (
{
closed = 1;
nodes = (
"688.667 -88.874 OFFCURVE",
"834.672 -74.766 OFFCURVE",
"999.041 -45.375 CURVE",
"998.308 -45.499 LINE",
"1354.816 11.433 OFFCURVE",
"1506 128.103 OFFCURVE",
"1506 358 CURVE SMOOTH",
"1506 442.457 OFFCURVE",
"1444.484 691.955 OFFCURVE",
"1408.458 844.945 CURVE SMOOTH",
"1399.232 888.25 OFFCURVE",
"1351.602 901.17 OFFCURVE",
"1320.716 870.284 CURVE SMOOTH",
"1229.607 778.164 LINE",
"1215.36 762.037 OFFCURVE",
"1210.142 741.508 OFFCURVE",
"1215.194 721.299 CURVE",
"1215.041 721.934 LINE",
"1326.041 244.934 LINE",
"1323.926 254.442 OFFCURVE",
"1331.078 267.696 OFFCURVE",
"1339.754 271.552 CURVE",
"1220.304 219.111 OFFCURVE",
"924.748 150.083 OFFCURVE",
"652.722 154.993 CURVE SMOOTH",
"389.493 159.474 OFFCURVE",
"268.367 235.952 OFFCURVE",
"282.803 381.039 CURVE SMOOTH",
"294.817 506.178 LINE",
"294.755 505.583 LINE",
"298.141 536.054 OFFCURVE",
"277.645 562.286 OFFCURVE",
"246.417 565.755 CURVE SMOOTH",
"245.621 565.836 LINE",
"190.621 570.836 LINE",
"191.417 570.755 LINE",
"160.333 574.209 OFFCURVE",
"133.648 552.044 OFFCURVE",
"130.245 521.417 CURVE SMOOTH",
"115.256 389.516 LINE SMOOTH",
"78.719 73.217 OFFCURVE",
"225.179 -75.971 OFFCURVE",
"577.865 -85.984 CURVE SMOOTH"
);
}
);
width = 1586;
}
);
unicode = 066E;
userData = {
com.typemytype.robofont.guides = (
{
angle = 0;
isGlobal = 0;
x = 383;
y = 1092;
}
);
};
},
{
glyphname = "hamza-ar";
lastChange = "2016-01-29 16:26:50 +0000";
layers = (
{
anchors = (
{
name = bottom;
position = "{453, -173}";
},
{
name = top;
position = "{453, 804}";
}
);
layerId = "3D7C20C2-9735-4AE4-B4D3-DDFDA9BF3443";
name = Regular;
paths = (
{
closed = 1;
nodes = (
"379 70 OFFCURVE",
"549 170 OFFCURVE",
"745 274 CURVE SMOOTH",
"753 278 OFFCURVE",
"757 284 OFFCURVE",
"756 292 CURVE",
"749 405 LINE SMOOTH",
"748 416 OFFCURVE",
"741 421 OFFCURVE",
"731 415 CURVE SMOOTH",
"430 236 LINE SMOOTH",
"423 232 OFFCURVE",
"415 232 OFFCURVE",
"409 238 CURVE",
"236 397 LINE",
"229 404 OFFCURVE",
"228 411 OFFCURVE",
"234 418 CURVE SMOOTH",
"322 521 OFFCURVE",
"441 538 OFFCURVE",
"567 534 CURVE",
"577 533 OFFCURVE",
"583 539 OFFCURVE",
"582 548 CURVE SMOOTH",
"572 625 LINE SMOOTH",
"571 633 OFFCURVE",
"568 639 OFFCURVE",
"559 642 CURVE",
"366 697 OFFCURVE",
"150 580 OFFCURVE",
"150 389 CURVE SMOOTH",
"150 305 OFFCURVE",
"239 216 OFFCURVE",
"301 170 CURVE SMOOTH",
"310 163 OFFCURVE",
"309 155 OFFCURVE",
"300 149 CURVE",
"195 85 LINE SMOOTH",
"188 81 OFFCURVE",
"185 76 OFFCURVE",
"185 67 CURVE SMOOTH",
"184 -23 LINE SMOOTH",
"184 -35 OFFCURVE",
"192 -40 OFFCURVE",
"202 -34 CURVE SMOOTH"
);
}
);
width = 876;
},
{
anchors = (
{
name = bottom;
position = "{453, -173}";
},
{
name = top;
position = "{453, 804}";
}
);
layerId = "BE58D163-656C-4DD5-ACF8-D2DBE947AA26";
name = Bold;
paths = (
{
closed = 1;
nodes = (
"399.264 35.513 OFFCURVE",
"568.524 135.078 OFFCURVE",
"763.749 238.666 CURVE",
"762.889 238.223 LINE",
"784.332 248.945 OFFCURVE",
"796.691 268.61 OFFCURVE",
"796.139 290.996 CURVE",
"788.896 407.92 LINE SMOOTH",
"785.575 449.25 OFFCURVE",
"745.497 470.346 OFFCURVE",
"710.42 449.3 CURVE SMOOTH",
"409.555 270.38 LINE",
"410.154 270.73 LINE SMOOTH",
"418.503 275.501 OFFCURVE",
"430.257 273.311 OFFCURVE",
"437.284 266.284 CURVE",
"436.068 267.451 LINE",
"263.068 426.451 LINE",
"264.284 425.284 LINE SMOOTH",
"271.941 417.627 OFFCURVE",
"271.667 400.482 OFFCURVE",
"264.37 391.968 CURVE",
"329.975 468.756 OFFCURVE",
"417.214 498.583 OFFCURVE",
"564.699 494.053 CURVE",
"599.064 491.547 OFFCURVE",
"625.548 518.283 OFFCURVE",
"621.755 552.417 CURVE SMOOTH",
"621.667 553.152 LINE",
"611.667 630.152 LINE SMOOTH",
"608.615 654.572 OFFCURVE",
"593.708 672.988 OFFCURVE",
"570.647 680.273 CURVE SMOOTH",
"343.302 745.487 OFFCURVE",
"110 599.907 OFFCURVE",
"110 389 CURVE SMOOTH",
"110 309.135 OFFCURVE",
"174.778 213.841 OFFCURVE",
"277.166 137.876 CURVE",
"276.442 138.426 LINE SMOOTH",
"263.805 148.255 OFFCURVE",
"264.542 173.435 OFFCURVE",
"277.812 182.282 CURVE SMOOTH",
"279.181 183.155 LINE",
"172.582 118.18 LINE SMOOTH",
"154.915 106.975 OFFCURVE",
"145 88.592 OFFCURVE",
"145 67 CURVE SMOOTH",
"144.002 -22.556 LINE SMOOTH",
"144 -66.284 OFFCURVE",
"186.29 -90.073 OFFCURVE",
"222.58 -68.3 CURVE SMOOTH"
);
}
);
width = 876;
}
);
unicode = 0621;
},
{
glyphname = "alef-ar";
lastChange = "2016-01-29 16:26:50 +0000";
layers = (
{
anchors = (
{
name = bottom;
position = "{255, -180}";
},
{
name = top;
position = "{225, 1484}";
}
);
layerId = "3D7C20C2-9735-4AE4-B4D3-DDFDA9BF3443";
name = Regular;
paths = (
{
closed = 1;
nodes = (
"299 -3 LINE",
"304 -1 OFFCURVE",
"308 3 OFFCURVE",
"308 10 CURVE",
"301 1321 LINE",
"301 1337 OFFCURVE",
"287 1344 OFFCURVE",
"274 1337 CURVE SMOOTH",
"157 1274 LINE SMOOTH",
"153 1272 OFFCURVE",
"150 1268 OFFCURVE",
"150 1262 CURVE",
"202 -13 LINE",
"202 -25 OFFCURVE",
"214 -33 OFFCURVE",
"225 -29 CURVE SMOOTH"
);
}
);
width = 428;
},
{
anchors = (
{
name = bottom;
position = "{255, -180}";
},
{
name = top;
position = "{225, 1484}";
}
);
layerId = "BE58D163-656C-4DD5-ACF8-D2DBE947AA26";
name = Bold;
paths = (
{
closed = 1;
nodes = (
"312.839 -40.535 LINE SMOOTH",
"334.374 -32.382 OFFCURVE",
"348 -12.773 OFFCURVE",
"348 10 CURVE",
"341 1321.214 LINE",
"341 1366.619 OFFCURVE",
"295.245 1393.87 OFFCURVE",
"255.036 1372.219 CURVE SMOOTH",
"137.074 1308.701 LINE SMOOTH",
"120.108 1299.248 OFFCURVE",
"109.621 1280.846 OFFCURVE",
"110.01 1260.927 CURVE SMOOTH",
"162.122 -16.803 LINE SMOOTH",
"164.554 -54.566 OFFCURVE",
"202.971 -79.573 OFFCURVE",
"238.67 -66.592 CURVE SMOOTH"
);
}
);
width = 428;
}
);
unicode = 0627;
},
{
glyphname = "alef-ar.fina";
lastChange = "2016-01-29 16:26:51 +0000";
layers = (
{
anchors = (
{
name = bottom;
position = "{423, -150}";
},
{
name = top;
position = "{220, 1480}";
}
);
layerId = "3D7C20C2-9735-4AE4-B4D3-DDFDA9BF3443";
name = Regular;
paths = (
{
closed = 1;
nodes = (
"579 0 LINE",
"621 52 OFFCURVE",
"621 104 OFFCURVE",
"579 156 CURVE",
"521 156 LINE SMOOTH",
"474 156 OFFCURVE",
"379 174 OFFCURVE",
"318 211 CURVE SMOOTH",
"311 215 OFFCURVE",
"308 220 OFFCURVE",
"308 229 CURVE",
"291 1322 LINE",
"291 1334 OFFCURVE",
"284 1339 OFFCURVE",
"273 1332 CURVE SMOOTH",
"159 1260 LINE",
"152 1255 OFFCURVE",
"150 1251 OFFCURVE",
"150 1242 CURVE",
"196 342 LINE SMOOTH",
"208 107 OFFCURVE",
"267 0 OFFCURVE",
"479 0 CURVE SMOOTH"
);
}
);
width = 579;
},
{
anchors = (
{
name = bottom;
position = "{423, -150}";
},
{
name = top;
position = "{220, 1480}";
}
);
layerId = "BE58D163-656C-4DD5-ACF8-D2DBE947AA26";
name = Bold;
paths = (
{
closed = 1;
nodes = (
"597.117 -40 LINE",
"668.319 35.533 OFFCURVE",
"668.319 120.467 OFFCURVE",
"597.117 196 CURVE",
"521 196 LINE SMOOTH",
"465.367 196 OFFCURVE",
"381.424 218.808 OFFCURVE",
"337.547 245.914 CURVE",
"342.714 243.155 OFFCURVE",
"348 234.884 OFFCURVE",
"348 229 CURVE",
"347.995 229.622 LINE",
"330.995 1322.622 LINE",
"331 1322 LINE",
"331 1366.27 OFFCURVE",
"288.836 1389.49 OFFCURVE",
"251.525 1365.746 CURVE SMOOTH",
"136.852 1293.322 LINE",
"118.626 1280.777 OFFCURVE",
"109.678 1263.219 OFFCURVE",
"110.009 1240.805 CURVE",
"156.052 339.958 LINE SMOOTH",
"170.058 65.673 OFFCURVE",
"257.587 -40 OFFCURVE",
"479 -40 CURVE SMOOTH"
);
}
);
width = 579;
}
);
unicode = FE8E;
},
{
glyphname = "alef-ar.short";
lastChange = "2016-01-29 16:26:50 +0000";
layers = (
{
anchors = (
{
name = bottom;
position = "{255, -179}";
},
{
name = top;
position = "{225, 1333}";
}
);
guideLines = (
{
position = "{293, 1187}";
}
);
layerId = "3D7C20C2-9735-4AE4-B4D3-DDFDA9BF3443";
name = Regular;
paths = (
{
closed = 1;
nodes = (
"299 -3 LINE",
"304 -1 OFFCURVE",
"308 3 OFFCURVE",
"308 10 CURVE",
"301 1171 LINE",
"301 1187 OFFCURVE",
"287 1194 OFFCURVE",
"274 1187 CURVE SMOOTH",
"157 1124 LINE SMOOTH",
"153 1122 OFFCURVE",
"150 1118 OFFCURVE",
"150 1112 CURVE",
"202 -13 LINE",
"203 -25 OFFCURVE",
"214 -33 OFFCURVE",
"225 -29 CURVE SMOOTH"
);
}
);
width = 428;
},
{
anchors = (
{
name = bottom;
position = "{255, -179}";
},
{
name = top;
position = "{225, 1333}";
}
);
guideLines = (
{
position = "{293, 1187}";
}
);
layerId = "BE58D163-656C-4DD5-ACF8-D2DBE947AA26";
name = Bold;
paths = (
{
closed = 1;
nodes = (
"312.839 -40.535 LINE SMOOTH",
"334.374 -32.382 OFFCURVE",
"348 -12.773 OFFCURVE",
"348 10 CURVE",
"341 1171.241 LINE",
"341 1216.619 OFFCURVE",
"295.245 1243.87 OFFCURVE",
"255.036 1222.219 CURVE SMOOTH",
"137.074 1158.701 LINE SMOOTH",
"120.067 1149.226 OFFCURVE",
"109.571 1130.758 OFFCURVE",
"110.013 1110.785 CURVE SMOOTH",
"162.068 -15.399 LINE SMOOTH",
"164.7 -53.91 OFFCURVE",
"202.448 -79.763 OFFCURVE",
"238.67 -66.592 CURVE SMOOTH"
);
}
);
width = 428;
}
);
userData = {
com.typemytype.robofont.guides = (
{
angle = 0;
isGlobal = 0;
x = 293;
y = 1187;
}
);
};
},
{
glyphname = "alef-ar.fina.short";
lastChange = "2016-01-29 16:26:50 +0000";
layers = (
{
anchors = (
{
name = bottom;
position = "{408, -150}";
},
{
name = top;
position = "{295, 1324}";
}
);
guideLines = (
{
position = "{285, 1176}";
}
);
layerId = "3D7C20C2-9735-4AE4-B4D3-DDFDA9BF3443";
name = Regular;
paths = (
{
closed = 1;
nodes = (
"579 0 LINE",
"621 52 OFFCURVE",
"621 104 OFFCURVE",
"579 156 CURVE",
"521 156 LINE SMOOTH",
"474 156 OFFCURVE",
"379 174 OFFCURVE",
"318 211 CURVE SMOOTH",
"311 215 OFFCURVE",
"308 220 OFFCURVE",
"308 229 CURVE",
"291 1162 LINE",
"291 1174 OFFCURVE",
"284 1179 OFFCURVE",
"273 1172 CURVE SMOOTH",
"159 1100 LINE",
"152 1095 OFFCURVE",
"149 1091 OFFCURVE",
"150 1082 CURVE",
"196 342 LINE SMOOTH",
"211 107 OFFCURVE",
"267 0 OFFCURVE",
"479 0 CURVE SMOOTH"
);
}
);
width = 579;
},
{
anchors = (
{
name = bottom;
position = "{408, -150}";
},
{
name = top;
position = "{295, 1324}";
}
);
guideLines = (
{
position = "{285, 1176}";
}
);
layerId = "BE58D163-656C-4DD5-ACF8-D2DBE947AA26";
name = Bold;
paths = (
{
closed = 1;
nodes = (
"597.117 -40 LINE",
"668.319 35.533 OFFCURVE",
"668.319 120.467 OFFCURVE",
"597.117 196 CURVE",
"521 196 LINE SMOOTH",
"465.367 196 OFFCURVE",
"381.424 218.808 OFFCURVE",
"337.547 245.914 CURVE",
"342.714 243.155 OFFCURVE",
"348 234.884 OFFCURVE",
"348 229 CURVE",
"347.993 229.729 LINE",
"330.993 1162.729 LINE",
"331 1162 LINE",
"331 1206.27 OFFCURVE",
"288.836 1229.49 OFFCURVE",
"251.525 1205.746 CURVE SMOOTH",
"136.835 1133.311 LINE",
"118.499 1120.651 OFFCURVE",
"109.254 1103.51 OFFCURVE",
"109.858 1083.045 CURVE SMOOTH",
"156.077 339.518 LINE SMOOTH",
"173.708 63.304 OFFCURVE",
"259.349 -40 OFFCURVE",
"479 -40 CURVE SMOOTH"
);
}
);
width = 579;
}
);
rightMetricsKey = z;
userData = {
com.schriftgestaltung.Glyphs.rightMetricsKey = z;
com.typemytype.robofont.guides = (
{
angle = 0;
isGlobal = 0;
x = 285;
y = 1176;
}
);
};
},
{
glyphname = "dotlessbeh-ar.fina";
lastChange = "2016-01-29 16:26:50 +0000";
layers = (
{
anchors = (
{
name = bottom;
position = "{773, -197}";
},
{
name = top;
position = "{727, 749}";
}
);
layerId = "3D7C20C2-9735-4AE4-B4D3-DDFDA9BF3443";
name = Regular;
paths = (
{
closed = 1;
nodes = (
"843 -52 OFFCURVE",
"1306 14 OFFCURVE",
"1412 140 CURVE SMOOTH",
"1420 149 OFFCURVE",
"1427 148 OFFCURVE",
"1432 138 CURVE",
"1483 45 OFFCURVE",
"1590 0 OFFCURVE",
"1694 0 CURVE SMOOTH",
"1734 0 LINE",
"1776 52 OFFCURVE",
"1776 104 OFFCURVE",
"1734 156 CURVE",
"1694 156 LINE SMOOTH",
"1558 156 OFFCURVE",
"1469 208 OFFCURVE",
"1449 360 CURVE SMOOTH",
"1413 627 LINE",
"1412 638 OFFCURVE",
"1401 643 OFFCURVE",
"1393 634 CURVE",
"1313 551 LINE",
"1308 545 OFFCURVE",
"1306 539 OFFCURVE",
"1307 531 CURVE SMOOTH",
"1355 232 LINE",
"1356 223 OFFCURVE",
"1354 217 OFFCURVE",
"1345 214 CURVE SMOOTH",
"1206 164 OFFCURVE",
"895 111 OFFCURVE",
"652 116 CURVE SMOOTH",
"417 121 OFFCURVE",
"223 185 OFFCURVE",
"243 386 CURVE SMOOTH",
"255 511 LINE SMOOTH",
"256 520 OFFCURVE",
"251 526 OFFCURVE",
"242 527 CURVE SMOOTH",
"187 532 LINE SMOOTH",
"178 533 OFFCURVE",
"171 527 OFFCURVE",
"170 518 CURVE SMOOTH",
"155 386 LINE SMOOTH",
"120 83 OFFCURVE",
"262 -39 OFFCURVE",
"579 -46 CURVE SMOOTH"
);
}
);
width = 1734;
},
{
anchors = (
{
name = bottom;
position = "{773, -197}";
},
{
name = top;
position = "{727, 749}";
}
);
layerId = "BE58D163-656C-4DD5-ACF8-D2DBE947AA26";
name = Bold;
paths = (
{
closed = 1;
nodes = (
"844.696 -92.049 OFFCURVE",
"1324.295 -23.796 OFFCURVE",
"1441.7 113.194 CURVE",
"1431.111 101.724 OFFCURVE",
"1404.498 105.104 OFFCURVE",
"1396.57 119.436 CURVE",
"1450.275 20.821 OFFCURVE",
"1564.385 -40 OFFCURVE",
"1694 -40 CURVE SMOOTH",
"1752.117 -40 LINE",
"1823.319 35.533 OFFCURVE",
"1823.319 120.467 OFFCURVE",
"1752.117 196 CURVE",
"1694 196 LINE SMOOTH",
"1564.308 196 OFFCURVE",
"1504.391 245.649 OFFCURVE",
"1488.658 365.218 CURVE SMOOTH",
"1452.311 634.795 LINE SMOOTH",
"1445.506 676.944 OFFCURVE",
"1396.087 693.367 OFFCURVE",
"1365.763 663.381 CURVE SMOOTH",
"1283.422 577.952 LINE",
"1270.67 563.449 OFFCURVE",
"1264.802 544.089 OFFCURVE",
"1267.421 525.184 CURVE SMOOTH",
"1315.506 225.66 LINE",
"1315.245 227.583 LINE SMOOTH",
"1314.292 236.157 OFFCURVE",
"1323.166 248.886 OFFCURVE",
"1332.351 251.947 CURVE",
"1331.461 251.639 LINE SMOOTH",
"1195.791 202.837 OFFCURVE",
"892.025 151.07 OFFCURVE",
"652.823 155.992 CURVE SMOOTH",
"389.211 161.6 OFFCURVE",
"268.352 236.807 OFFCURVE",
"282.803 382.039 CURVE SMOOTH",
"294.817 507.178 LINE",
"294.755 506.583 LINE",
"298.141 537.054 OFFCURVE",
"277.645 563.286 OFFCURVE",
"246.417 566.755 CURVE SMOOTH",
"245.621 566.836 LINE",
"190.621 571.836 LINE",
"191.417 571.755 LINE",
"160.333 575.209 OFFCURVE",
"133.648 553.044 OFFCURVE",
"130.245 522.417 CURVE SMOOTH",
"115.256 390.516 LINE SMOOTH",
"78.583 73.038 OFFCURVE",
"226.791 -78.232 OFFCURVE",
"578.117 -85.99 CURVE SMOOTH"
);
}
);
width = 1734;
}
);
},
{
glyphname = "dotlessbeh-ar.medi";
lastChange = "2016-01-29 16:26:50 +0000";
layers = (
{
anchors = (
{
name = bottom;
position = "{322, -155}";
},
{
name = top;
position = "{460, 687}";
}
);
layerId = "3D7C20C2-9735-4AE4-B4D3-DDFDA9BF3443";
name = Regular;
paths = (
{
closed = 1;
nodes = (
"38 0 LINE SMOOTH",
"146 0 OFFCURVE",
"282 13 OFFCURVE",
"383 104 CURVE SMOOTH",
"390 110 OFFCURVE",
"397 110 OFFCURVE",
"404 103 CURVE SMOOTH",
"478 25 OFFCURVE",
"617 0 OFFCURVE",
"768 0 CURVE SMOOTH",
"794 0 LINE",
"836 52 OFFCURVE",
"836 104 OFFCURVE",
"794 156 CURVE",
"754 156 LINE SMOOTH",
"685 156 OFFCURVE",
"562 171 OFFCURVE",
"493 195 CURVE SMOOTH",
"485 198 OFFCURVE",
"482 204 OFFCURVE",
"483 213 CURVE",
"504 514 LINE",
"505 523 OFFCURVE",
"501 530 OFFCURVE",
"492 531 CURVE",
"438 534 LINE",
"429 535 OFFCURVE",
"421 530 OFFCURVE",
"420 521 CURVE SMOOTH",
"395 310 LINE SMOOTH",
"377 154 OFFCURVE",
"158 156 OFFCURVE",
"44 156 CURVE SMOOTH",
"0 156 LINE SMOOTH",
"-103 156 OFFCURVE",
"-103 0 OFFCURVE",
"0 0 CURVE SMOOTH"
);
}
);
width = 794;
},
{
anchors = (
{
name = bottom;
position = "{322, -155}";
},
{
name = top;
position = "{460, 687}";
}
);
layerId = "BE58D163-656C-4DD5-ACF8-D2DBE947AA26";
name = Bold;
paths = (
{
closed = 1;
nodes = (
"38 -40 LINE SMOOTH",
"204.312 -40 OFFCURVE",
"322.653 -4.213 OFFCURVE",
"409.775 74.283 CURVE",
"409.032 73.63 LINE SMOOTH",
"400.683 66.473 OFFCURVE",
"383.832 66.904 OFFCURVE",
"375.926 74.495 CURVE",
"449.331 -2.036 OFFCURVE",
"581.42 -40 OFFCURVE",
"768 -40 CURVE SMOOTH",
"812.117 -40 LINE",
"883.319 35.533 OFFCURVE",
"883.319 120.467 OFFCURVE",
"812.117 196 CURVE",
"754 196 LINE SMOOTH",
"677.726 196 OFFCURVE",
"562.76 213.086 OFFCURVE",
"506.141 232.78 CURVE",
"507.045 232.453 LINE SMOOTH",
"516.088 229.062 OFFCURVE",
"523.788 217.88 OFFCURVE",
"522.755 208.583 CURVE",
"522.903 210.216 LINE",
"544.084 513.807 LINE SMOOTH",
"545.407 543.764 OFFCURVE",
"524.955 568.283 OFFCURVE",
"495.019 570.894 CURVE SMOOTH",
"437.122 574.11 LINE SMOOTH",
"408.121 574.775 OFFCURVE",
"383.445 554.218 OFFCURVE",
"380.245 525.417 CURVE SMOOTH",
"355.278 314.706 LINE SMOOTH",
"341.388 194.327 OFFCURVE",
"158.365 195.998 OFFCURVE",
"44 196 CURVE SMOOTH",
"0 196 LINE SMOOTH",
"-155.865 196 OFFCURVE",
"-155.865 -40 OFFCURVE",
"0 -40 CURVE SMOOTH"
);
}
);
width = 794;
}
);
},
{
glyphname = "dotlessbeh-ar.init";
lastChange = "2016-01-29 16:26:50 +0000";
layers = (
{
anchors = (
{
name = bottom;
position = "{254, -156}";
},
{
name = top;
position = "{361, 981}";
}
);
layerId = "3D7C20C2-9735-4AE4-B4D3-DDFDA9BF3443";
name = Regular;
paths = (
{
closed = 1;
nodes = (
"342 1 OFFCURVE",
"529 91 OFFCURVE",
"529 338 CURVE SMOOTH",
"529 418 OFFCURVE",
"468 665 OFFCURVE",
"432 818 CURVE",
"429 829 OFFCURVE",
"420 830 OFFCURVE",
"412 822 CURVE SMOOTH",
"322 731 LINE",
"317 725 OFFCURVE",
"315 719 OFFCURVE",
"317 711 CURVE SMOOTH",
"428 244 LINE SMOOTH",
"430 235 OFFCURVE",
"428 229 OFFCURVE",
"419 225 CURVE SMOOTH",
"316 179 OFFCURVE",
"209 156 OFFCURVE",
"0 156 CURVE SMOOTH",
"-103 156 OFFCURVE",
"-103 0 OFFCURVE",
"0 0 CURVE SMOOTH"
);
}
);
width = 649;
},
{
anchors = (
{
name = bottom;
position = "{254, -156}";
},
{
name = top;
position = "{361, 981}";
}
);
layerId = "BE58D163-656C-4DD5-ACF8-D2DBE947AA26";
name = Bold;
paths = (
{
closed = 1;
nodes = (
"386.045 -38.871 OFFCURVE",
"569 79.763 OFFCURVE",
"569 338 CURVE SMOOTH",
"569 422.457 OFFCURVE",
"507.484 671.955 OFFCURVE",
"471.458 824.945 CURVE SMOOTH",
"462.232 868.25 OFFCURVE",
"414.602 881.17 OFFCURVE",
"383.716 850.284 CURVE SMOOTH",
"292.607 758.164 LINE",
"278.36 742.037 OFFCURVE",
"273.142 721.508 OFFCURVE",
"278.194 701.299 CURVE SMOOTH",
"389.084 234.75 LINE",
"388.953 235.323 LINE SMOOTH",
"386.926 244.442 OFFCURVE",
"394.078 257.696 OFFCURVE",
"402.754 261.552 CURVE",
"295.023 213.439 OFFCURVE",
"188.237 196 OFFCURVE",
"0 196 CURVE SMOOTH",
"-155.865 196 OFFCURVE",
"-155.865 -40 OFFCURVE",
"0 -40 CURVE SMOOTH"
);
}
);
width = 649;
}
);
},
{
glyphname = "peh-ar.init";
lastChange = "2016-01-29 16:26:50 +0000";
layers = (
{
anchors = (
{
name = top;
position = "{473, 1008}";
}
);
components = (
{
name = "threedotsdownbelow-ar";
transform = "{1, 0, 0, 1, 22, -21}";
}
);
layerId = "3D7C20C2-9735-4AE4-B4D3-DDFDA9BF3443";
name = Regular;
paths = (
{
closed = 1;
nodes = (
"80 0 LINE SMOOTH",
"260 0 OFFCURVE",
"521 79 OFFCURVE",
"546 182 CURVE",
"566 242 OFFCURVE",
"578 314 OFFCURVE",
"578 368 CURVE SMOOTH",
"578 448 OFFCURVE",
"517 695 OFFCURVE",
"481 848 CURVE",
"478 859 OFFCURVE",
"469 860 OFFCURVE",
"461 852 CURVE SMOOTH",
"371 761 LINE",
"366 755 OFFCURVE",
"364 749 OFFCURVE",
"366 741 CURVE SMOOTH",
"494 277 LINE SMOOTH",
"501 252 OFFCURVE",
"489 245 OFFCURVE",
"473 236 CURVE",
"401 205 OFFCURVE",
"270 156 OFFCURVE",
"80 156 CURVE SMOOTH",
"0 156 LINE SMOOTH",
"-103 156 OFFCURVE",
"-103 0 OFFCURVE",
"0 0 CURVE SMOOTH"
);
}
);
width = 698;
},
{
anchors = (
{
name = top;
position = "{473, 1008}";
}
);
components = (
{
name = "threedotsdownbelow-ar";
transform = "{1, 0, 0, 1, 22, -21}";
}
);
layerId = "BE58D163-656C-4DD5-ACF8-D2DBE947AA26";
name = Bold;
paths = (
{
closed = 1;
nodes = (
"80 -40 LINE SMOOTH",
"311.688 -40 OFFCURVE",
"554.651 57.662 OFFCURVE",
"584.415 170.76 CURVE",
"604.963 232.961 OFFCURVE",
"618 309.386 OFFCURVE",
"618 368 CURVE SMOOTH",
"618 452.457 OFFCURVE",
"556.484 701.955 OFFCURVE",
"520.458 854.945 CURVE SMOOTH",
"511.232 898.25 OFFCURVE",
"463.602 911.17 OFFCURVE",
"432.716 880.284 CURVE SMOOTH",
"341.607 788.164 LINE",
"327.36 772.037 OFFCURVE",
"322.142 751.508 OFFCURVE",
"327.194 731.299 CURVE SMOOTH",
"327.44 730.363 LINE",
"455.44 266.363 LINE",
"454.093 271.172 OFFCURVE",
"469.326 279.83 OFFCURVE",
"455.236 271.902 CURVE",
"383.835 241.292 OFFCURVE",
"261.107 196 OFFCURVE",
"80 196 CURVE SMOOTH",
"0 196 LINE SMOOTH",
"-155.865 196 OFFCURVE",
"-155.865 -40 OFFCURVE",
"0 -40 CURVE SMOOTH"
);
}
);
width = 698;
}
);
unicode = FB58;
},
{
glyphname = "hah-ar";
lastChange = "2016-01-29 16:26:50 +0000";
layers = (
{
anchors = (
{
name = bottom;
position = "{700, -822}";
},
{
name = center;
position = "{710, -61}";
},
{
name = top;
position = "{389, 926}";
}
);
layerId = "3D7C20C2-9735-4AE4-B4D3-DDFDA9BF3443";
name = Regular;
paths = (
{
closed = 1;
nodes = (
"1091 -625 OFFCURVE",
"1140 -594 OFFCURVE",
"1188 -473 CURVE SMOOTH",
"1193 -460 OFFCURVE",
"1180 -450 OFFCURVE",
"1164 -453 CURVE SMOOTH",
"876 -509 OFFCURVE",
"416 -560 OFFCURVE",
"278 -312 CURVE SMOOTH",
"250 -259 OFFCURVE",
"241 -187 OFFCURVE",
"263 -98 CURVE SMOOTH",
"348 244 OFFCURVE",
"706 452 OFFCURVE",
"1068 457 CURVE SMOOTH",
"1074 457 OFFCURVE",
"1079 461 OFFCURVE",
"1081 466 CURVE",
"1129 612 LINE SMOOTH",
"1133 624 OFFCURVE",
"1124 636 OFFCURVE",
"1110 635 CURVE SMOOTH",
"823 620 OFFCURVE",
"682 698 OFFCURVE",
"534 744 CURVE SMOOTH",
"365 796 OFFCURVE",
"299 779 OFFCURVE",
"168 637 CURVE",
"164 633 OFFCURVE",
"163 628 OFFCURVE",
"164 624 CURVE",
"195 542 LINE SMOOTH",
"200 528 OFFCURVE",
"215 525 OFFCURVE",
"226 536 CURVE SMOOTH",
"327 636 OFFCURVE",
"367 631 OFFCURVE",
"470 599 CURVE SMOOTH",
"691 530 LINE",
"407 434 OFFCURVE",
"154 124 OFFCURVE",
"150 -200 CURVE SMOOTH",
"144 -687 OFFCURVE",
"552 -705 OFFCURVE",
"919 -651 CURVE SMOOTH"
);
}
);
width = 1250;
},
{
anchors = (
{
name = bottom;
position = "{700, -822}";
},
{
name = center;
position = "{710, -61}";
},
{
name = top;
position = "{389, 926}";
}
);
layerId = "BE58D163-656C-4DD5-ACF8-D2DBE947AA26";
name = Bold;
paths = (
{
closed = 1;
nodes = (
"1111.67 -662.33 OFFCURVE",
"1171.803 -622.308 OFFCURVE",
"1225.181 -487.75 CURVE SMOOTH",
"1241.556 -445.181 OFFCURVE",
"1204.067 -404.79 OFFCURVE",
"1156.628 -413.685 CURVE SMOOTH",
"702.787 -501.931 OFFCURVE",
"407.057 -461.665 OFFCURVE",
"312.953 -292.55 CURVE",
"313.368 -293.315 LINE",
"287.512 -244.374 OFFCURVE",
"283.45 -181.958 OFFCURVE",
"301.831 -107.599 CURVE SMOOTH",
"376.766 193.904 OFFCURVE",
"695.928 411.857 OFFCURVE",
"1068.552 417.004 CURVE",
"1068 417 LINE",
"1090.366 417 OFFCURVE",
"1111.013 431.472 OFFCURVE",
"1118.739 452.715 CURVE SMOOTH",
"1167 599.507 LINE SMOOTH",
"1180.129 638.897 OFFCURVE",
"1149.156 677.899 OFFCURVE",
"1107.15 674.898 CURVE",
"1107.912 674.945 LINE",
"832.345 660.543 OFFCURVE",
"697.781 734.983 OFFCURVE",
"545.872 782.198 CURVE SMOOTH",
"359.889 839.423 OFFCURVE",
"278.662 815.829 OFFCURVE",
"138.982 664.536 CURVE SMOOTH",
"125.468 650.474 OFFCURVE",
"120.192 629.404 OFFCURVE",
"126.097 611.143 CURVE",
"157.584 527.855 LINE",
"157.33 528.547 LINE",
"172.092 487.213 OFFCURVE",
"222.469 475.9 OFFCURVE",
"254.284 507.716 CURVE SMOOTH",
"334.91 587.543 OFFCURVE",
"356.487 592.38 OFFCURVE",
"458.132 560.801 CURVE SMOOTH",
"575.606 524.124 LINE",
"310.674 386.862 OFFCURVE",
"113.578 90.041 OFFCURVE",
"110.003 -199.506 CURVE SMOOTH",
"103.526 -725.253 OFFCURVE",
"554.048 -745.129 OFFCURVE",
"924.823 -690.574 CURVE SMOOTH"
);
}
);
width = 1250;
}
);
unicode = 062D;
},
{
glyphname = "hah-ar.fina";
lastChange = "2016-01-29 16:26:51 +0000";
layers = (
{
anchors = (
{
name = bottom;
position = "{690, -822}";
},
{
name = center;
position = "{590, -104}";
},
{
name = top;
position = "{393, 924}";
}
);
layerId = "3D7C20C2-9735-4AE4-B4D3-DDFDA9BF3443";
name = Regular;
paths = (
{
closed = 1;
nodes = (
"1091 -625 OFFCURVE",
"1140 -594 OFFCURVE",
"1188 -473 CURVE SMOOTH",
"1193 -460 OFFCURVE",
"1180 -450 OFFCURVE",
"1164 -453 CURVE SMOOTH",
"876 -509 OFFCURVE",
"416 -560 OFFCURVE",
"278 -312 CURVE SMOOTH",
"250 -259 OFFCURVE",
"241 -187 OFFCURVE",
"263 -98 CURVE SMOOTH",
"312 100 OFFCURVE",
"452 253 OFFCURVE",
"632 347 CURVE",
"705 126 OFFCURVE",
"850 0 OFFCURVE",
"1060 0 CURVE SMOOTH",
"1114 0 LINE",
"1156 52 OFFCURVE",
"1156 104 OFFCURVE",
"1114 156 CURVE",
"1074 156 LINE SMOOTH",
"960 156 OFFCURVE",
"789 202 OFFCURVE",
"725 390 CURVE",
"833 432 OFFCURVE",
"950 455 OFFCURVE",
"1068 457 CURVE SMOOTH",
"1074 457 OFFCURVE",
"1079 461 OFFCURVE",
"1081 466 CURVE",
"1129 612 LINE SMOOTH",
"1133 624 OFFCURVE",
"1124 636 OFFCURVE",
"1110 635 CURVE SMOOTH",
"823 620 OFFCURVE",
"682 698 OFFCURVE",
"534 744 CURVE SMOOTH",
"365 796 OFFCURVE",
"299 779 OFFCURVE",
"168 637 CURVE",
"164 633 OFFCURVE",
"163 628 OFFCURVE",
"164 624 CURVE",
"195 542 LINE SMOOTH",
"200 528 OFFCURVE",
"215 525 OFFCURVE",
"226 536 CURVE SMOOTH",
"327 636 OFFCURVE",
"367 631 OFFCURVE",
"470 599 CURVE SMOOTH",
"691 530 LINE",
"407 434 OFFCURVE",
"154 124 OFFCURVE",
"150 -200 CURVE SMOOTH",
"144 -687 OFFCURVE",
"552 -705 OFFCURVE",
"919 -651 CURVE SMOOTH"
);
}
);
width = 1114;
},
{
anchors = (
{
name = bottom;
position = "{690, -822}";
},
{
name = center;
position = "{590, -104}";
},
{
name = top;
position = "{393, 924}";
}
);
layerId = "BE58D163-656C-4DD5-ACF8-D2DBE947AA26";
name = Bold;
paths = (
{
closed = 1;
nodes = (
"1111.67 -662.33 OFFCURVE",
"1171.803 -622.308 OFFCURVE",
"1225.181 -487.75 CURVE SMOOTH",
"1241.556 -445.181 OFFCURVE",
"1204.067 -404.79 OFFCURVE",
"1156.628 -413.685 CURVE SMOOTH",
"702.787 -501.931 OFFCURVE",
"407.057 -461.665 OFFCURVE",
"312.953 -292.55 CURVE",
"313.368 -293.315 LINE",
"287.512 -244.374 OFFCURVE",
"283.45 -181.958 OFFCURVE",
"301.831 -107.599 CURVE SMOOTH",
"342.158 55.355 OFFCURVE",
"450.203 193.973 OFFCURVE",
"610.432 289.2 CURVE",
"695.372 75.262 OFFCURVE",
"851.634 -40 OFFCURVE",
"1060 -40 CURVE SMOOTH",
"1132.117 -40 LINE",
"1203.319 35.533 OFFCURVE",
"1203.319 120.467 OFFCURVE",
"1132.117 196 CURVE",
"1074 196 LINE SMOOTH",
"937.555 196 OFFCURVE",
"830.02 258.037 OFFCURVE",
"777.681 366.625 CURVE",
"870.902 398.307 OFFCURVE",
"968.999 415.316 OFFCURVE",
"1068.678 417.006 CURVE",
"1068 417 LINE",
"1090.366 417 OFFCURVE",
"1111.013 431.472 OFFCURVE",
"1118.739 452.715 CURVE SMOOTH",
"1167 599.507 LINE SMOOTH",
"1180.129 638.897 OFFCURVE",
"1149.156 677.899 OFFCURVE",
"1107.15 674.898 CURVE",
"1107.912 674.945 LINE",
"832.345 660.543 OFFCURVE",
"697.781 734.983 OFFCURVE",
"545.872 782.198 CURVE SMOOTH",
"359.889 839.423 OFFCURVE",
"278.662 815.829 OFFCURVE",
"138.982 664.536 CURVE SMOOTH",
"125.468 650.474 OFFCURVE",
"120.192 629.404 OFFCURVE",
"126.097 611.143 CURVE",
"157.584 527.855 LINE",
"157.33 528.547 LINE",
"172.092 487.213 OFFCURVE",
"222.469 475.9 OFFCURVE",
"254.284 507.716 CURVE SMOOTH",
"334.91 587.543 OFFCURVE",
"356.487 592.38 OFFCURVE",
"458.132 560.801 CURVE SMOOTH",
"575.606 524.124 LINE",
"310.674 386.862 OFFCURVE",
"113.578 90.041 OFFCURVE",
"110.003 -199.506 CURVE SMOOTH",
"103.526 -725.253 OFFCURVE",
"554.048 -745.129 OFFCURVE",
"924.823 -690.574 CURVE SMOOTH"
);
}
);
width = 1114;
}
);
unicode = FEA2;
},
{
glyphname = "hah-ar.medi";
lastChange = "2016-01-29 16:26:51 +0000";
layers = (
{
anchors = (
{
name = bottom;
position = "{670, -115}";
},
{
name = top;
position = "{449, 842}";
}
);
layerId = "3D7C20C2-9735-4AE4-B4D3-DDFDA9BF3443";
name = Regular;
paths = (
{
closed = 1;
nodes = (
"306 0 OFFCURVE",
"590 127 OFFCURVE",
"838 220 CURVE SMOOTH",
"880 236 OFFCURVE",
"918 249 OFFCURVE",
"952 259 CURVE",
"1037 123 OFFCURVE",
"1133 0 OFFCURVE",
"1357 0 CURVE SMOOTH",
"1397 0 LINE",
"1439 52 OFFCURVE",
"1439 104 OFFCURVE",
"1397 156 CURVE",
"1357 156 LINE SMOOTH",
"1219 156 OFFCURVE",
"1136 205 OFFCURVE",
"1083 285 CURVE",
"1141 291 OFFCURVE",
"1194 288 OFFCURVE",
"1257 281 CURVE",
"1266 281 OFFCURVE",
"1271 285 OFFCURVE",
"1274 293 CURVE",
"1323 442 LINE",
"1326 453 OFFCURVE",
"1322 459 OFFCURVE",
"1310 459 CURVE",
"1099 449 OFFCURVE",
"929 524 OFFCURVE",
"741 600 CURVE SMOOTH",
"488 702 OFFCURVE",
"395 754 OFFCURVE",
"233 559 CURVE",
"227 553 OFFCURVE",
"227 547 OFFCURVE",
"229 539 CURVE",
"259 442 LINE SMOOTH",
"262 431 OFFCURVE",
"271 429 OFFCURVE",
"279 438 CURVE SMOOTH",
"347 510 OFFCURVE",
"384 537 OFFCURVE",
"437 537 CURVE SMOOTH",
"542 537 OFFCURVE",
"771 414 OFFCURVE",
"934 378 CURVE",
"724 320 OFFCURVE",
"382 156 OFFCURVE",
"0 156 CURVE SMOOTH",
"-103 156 OFFCURVE",
"-103 0 OFFCURVE",
"0 0 CURVE SMOOTH"
);
}
);
width = 1397;
},
{
anchors = (
{
name = bottom;
position = "{670, -115}";
},
{
name = top;
position = "{449, 842}";
}
);
layerId = "BE58D163-656C-4DD5-ACF8-D2DBE947AA26";
name = Bold;
paths = (
{
closed = 1;
nodes = (
"314.536 -40 OFFCURVE",
"605.201 89.981 OFFCURVE",
"852.045 182.547 CURVE SMOOTH",
"881.596 193.804 OFFCURVE",
"909.118 203.552 OFFCURVE",
"934.649 211.784 CURVE",
"1018.481 82.952 OFFCURVE",
"1128.813 -40 OFFCURVE",
"1357 -40 CURVE SMOOTH",
"1415.117 -40 LINE",
"1486.319 35.533 OFFCURVE",
"1486.319 120.467 OFFCURVE",
"1415.117 196 CURVE",
"1357 196 LINE SMOOTH",
"1277.928 196 OFFCURVE",
"1217.57 212.635 OFFCURVE",
"1171.219 247.739 CURVE",
"1195.527 246.824 OFFCURVE",
"1222.454 244.621 OFFCURVE",
"1254.3 241.054 CURVE",
"1280.929 239.976 OFFCURVE",
"1302.827 254.853 OFFCURVE",
"1311.798 279.896 CURVE SMOOTH",
"1361.254 430.283 LINE SMOOTH",
"1372.3 468.177 OFFCURVE",
"1347.602 499.623 OFFCURVE",
"1308.854 498.991 CURVE SMOOTH",
"1106.922 489.225 OFFCURVE",
"944.805 560.755 OFFCURVE",
"755.992 637.084 CURVE SMOOTH",
"505.732 737.979 OFFCURVE",
"385.894 804.92 OFFCURVE",
"203.162 585.677 CURVE",
"188.798 570.286 OFFCURVE",
"184.563 550.464 OFFCURVE",
"190.511 528.07 CURVE",
"221.412 428.157 LINE SMOOTH",
"234.338 389.273 OFFCURVE",
"280.246 379.777 OFFCURVE",
"308.494 410.975 CURVE SMOOTH",
"374.085 480.376 OFFCURVE",
"400.131 497 OFFCURVE",
"437 497 CURVE SMOOTH",
"508.863 497 OFFCURVE",
"657.449 426.693 OFFCURVE",
"798.342 376.852 CURVE",
"589.369 305.292 OFFCURVE",
"307.039 196 OFFCURVE",
"0 196 CURVE SMOOTH",
"-155.865 196 OFFCURVE",
"-155.865 -40 OFFCURVE",
"0 -40 CURVE SMOOTH"
);
}
);
width = 1397;
}
);
unicode = FEA4;
},
{
glyphname = "hah-ar.init";
lastChange = "2016-01-29 16:26:50 +0000";
layers = (
{
anchors = (
{
name = bottom;
position = "{625, -131}";
},
{
name = top;
position = "{442, 846}";
}
);
layerId = "3D7C20C2-9735-4AE4-B4D3-DDFDA9BF3443";
name = Regular;
paths = (
{
closed = 1;
nodes = (
"296 0 OFFCURVE",
"590 127 OFFCURVE",
"838 220 CURVE SMOOTH",
"1033 294 OFFCURVE",
"1123 296 OFFCURVE",
"1257 281 CURVE",
"1266 281 OFFCURVE",
"1271 285 OFFCURVE",
"1274 293 CURVE",
"1323 442 LINE",
"1326 453 OFFCURVE",
"1322 459 OFFCURVE",
"1310 459 CURVE",
"1099 449 OFFCURVE",
"929 524 OFFCURVE",
"741 600 CURVE SMOOTH",
"488 702 OFFCURVE",
"395 754 OFFCURVE",
"233 559 CURVE",
"227 553 OFFCURVE",
"227 547 OFFCURVE",
"229 539 CURVE",
"259 442 LINE SMOOTH",
"262 431 OFFCURVE",
"271 429 OFFCURVE",
"279 438 CURVE SMOOTH",
"347 510 OFFCURVE",
"384 537 OFFCURVE",
"437 537 CURVE SMOOTH",
"542 537 OFFCURVE",
"771 414 OFFCURVE",
"934 378 CURVE",
"724 320 OFFCURVE",
"382 156 OFFCURVE",
"0 156 CURVE SMOOTH",
"-103 156 OFFCURVE",
"-103 0 OFFCURVE",
"0 0 CURVE SMOOTH"
);
}
);
width = 1444;
},
{
anchors = (
{
name = bottom;
position = "{625, -131}";
},
{
name = top;
position = "{442, 846}";
}
);
layerId = "BE58D163-656C-4DD5-ACF8-D2DBE947AA26";
name = Bold;
paths = (
{
closed = 1;
nodes = (
"304.27 -40 OFFCURVE",
"604.962 89.891 OFFCURVE",
"852.045 182.547 CURVE SMOOTH",
"1041.59 254.477 OFFCURVE",
"1121.915 255.965 OFFCURVE",
"1254.282 241.055 CURVE",
"1280.92 239.97 OFFCURVE",
"1302.825 254.847 OFFCURVE",
"1311.798 279.896 CURVE SMOOTH",
"1361.254 430.283 LINE SMOOTH",
"1372.3 468.177 OFFCURVE",
"1347.602 499.623 OFFCURVE",
"1308.854 498.991 CURVE SMOOTH",
"1106.922 489.225 OFFCURVE",
"944.805 560.755 OFFCURVE",
"755.992 637.084 CURVE SMOOTH",
"505.732 737.979 OFFCURVE",
"385.894 804.92 OFFCURVE",
"203.162 585.677 CURVE",
"188.798 570.286 OFFCURVE",
"184.563 550.464 OFFCURVE",
"190.511 528.07 CURVE",
"221.412 428.157 LINE SMOOTH",
"234.338 389.273 OFFCURVE",
"280.246 379.777 OFFCURVE",
"308.494 410.975 CURVE SMOOTH",
"374.085 480.376 OFFCURVE",
"400.131 497 OFFCURVE",
"437 497 CURVE SMOOTH",
"508.863 497 OFFCURVE",
"657.449 426.693 OFFCURVE",
"798.342 376.852 CURVE",
"589.369 305.292 OFFCURVE",
"307.039 196 OFFCURVE",
"0 196 CURVE SMOOTH",
"-155.865 196 OFFCURVE",
"-155.865 -40 OFFCURVE",
"0 -40 CURVE SMOOTH"
);
}
);
width = 1444;
}
);
unicode = FEA3;
},
{
glyphname = "dal-ar";
lastChange = "2016-01-29 16:26:50 +0000";
layers = (
{
anchors = (
{
name = bottom;
position = "{447, -200}";
},
{
name = top;
position = "{541, 1007}";
}
);
layerId = "3D7C20C2-9735-4AE4-B4D3-DDFDA9BF3443";
name = Regular;
paths = (
{
closed = 1;
nodes = (
"509 -49 OFFCURVE",
"743 -8 OFFCURVE",
"818 46 CURVE SMOOTH",
"864 79 OFFCURVE",
"883 134 OFFCURVE",
"883 199 CURVE SMOOTH",
"885 374 OFFCURVE",
"819 481 OFFCURVE",
"581 848 CURVE SMOOTH",
"576 856 OFFCURVE",
"566 856 OFFCURVE",
"563 852 CURVE",
"563 851 OFFCURVE",
"562 851 OFFCURVE",
"562 850 CURVE",
"482 727 LINE",
"478 720 OFFCURVE",
"478 713 OFFCURVE",
"483 705 CURVE",
"738 351 OFFCURVE",
"769 253 OFFCURVE",
"781 187 CURVE",
"652 142 OFFCURVE",
"484 108 OFFCURVE",
"332 126 CURVE SMOOTH",
"265 134 OFFCURVE",
"258 159 OFFCURVE",
"253 268 CURVE",
"252 278 OFFCURVE",
"246 283 OFFCURVE",
"237 283 CURVE SMOOTH",
"170 283 LINE SMOOTH",
"161 283 OFFCURVE",
"156 278 OFFCURVE",
"155 269 CURVE SMOOTH",
"141 104 OFFCURVE",
"136 -49 OFFCURVE",
"389 -49 CURVE SMOOTH"
);
}
);
width = 1003;
},
{
anchors = (
{
name = bottom;
position = "{447, -200}";
},
{
name = top;
position = "{541, 1007}";
}
);
layerId = "BE58D163-656C-4DD5-ACF8-D2DBE947AA26";
name = Bold;
paths = (
{
closed = 1;
nodes = (
"543.158 -89 OFFCURVE",
"768.497 -38.931 OFFCURVE",
"841.372 13.539 CURVE SMOOTH",
"895.028 52.031 OFFCURVE",
"923 116.358 OFFCURVE",
"923 199 CURVE SMOOTH",
"925.13 385.134 OFFCURVE",
"852.807 502.385 OFFCURVE",
"614.561 869.764 CURVE",
"614.92 869.2 LINE",
"593.363 903.69 OFFCURVE",
"540.368 903.736 OFFCURVE",
"523.832 864.999 CURVE",
"522.996 2010.909 OFFCURVE",
"522.008 1884.952 OFFCURVE",
"522 861.864 CURVE",
"447.986 748.067 LINE",
"435.583 727.404 OFFCURVE",
"436.361 703.168 OFFCURVE",
"449.925 682.48 CURVE",
"621.152 444.827 OFFCURVE",
"704.801 307.744 OFFCURVE",
"733.429 213.337 CURVE",
"593.441 169.102 OFFCURVE",
"451.87 152.084 OFFCURVE",
"336.704 165.722 CURVE SMOOTH",
"300.357 170.062 OFFCURVE",
"297.598 168.327 OFFCURVE",
"292.919 270.669 CURVE SMOOTH",
"290.482 301.255 OFFCURVE",
"267.2 323 OFFCURVE",
"237 323 CURVE SMOOTH",
"170 323 LINE SMOOTH",
"140.634 323 OFFCURVE",
"118.179 302.413 OFFCURVE",
"115.178 272.787 CURVE SMOOTH",
"101.066 106.664 OFFCURVE",
"94.432 -89 OFFCURVE",
"389 -89 CURVE SMOOTH"
);
}
);
width = 1003;
}
);
unicode = 062F;
},
{
glyphname = "dal-ar.fina";
lastChange = "2016-01-29 16:26:50 +0000";
layers = (
{
anchors = (
{
name = bottom;
position = "{447, -200}";
},
{
name = top;
position = "{765, 1042}";
}
);
guideLines = (
{
position = "{2480, -225}";
}
);
layerId = "3D7C20C2-9735-4AE4-B4D3-DDFDA9BF3443";
name = Regular;
paths = (
{
closed = 1;
nodes = (
"509 -49 OFFCURVE",
"721 -8 OFFCURVE",
"796 46 CURVE SMOOTH",
"827 68 OFFCURVE",
"844 100 OFFCURVE",
"852 138 CURVE SMOOTH",
"854 149 OFFCURVE",
"858 149 OFFCURVE",
"863 139 CURVE",
"907 41 OFFCURVE",
"993 0 OFFCURVE",
"1101 0 CURVE SMOOTH",
"1141 0 LINE",
"1183 52 OFFCURVE",
"1183 104 OFFCURVE",
"1141 156 CURVE",
"1113 156 LINE SMOOTH",
"937 156 OFFCURVE",
"894 216 OFFCURVE",
"855 457 CURVE SMOOTH",
"786 880 LINE SMOOTH",
"784 891 OFFCURVE",
"776 895 OFFCURVE",
"767 888 CURVE SMOOTH",
"663 809 LINE",
"657 804 OFFCURVE",
"653 799 OFFCURVE",
"655 790 CURVE SMOOTH",
"771 193 LINE SMOOTH",
"773 183 OFFCURVE",
"769 178 OFFCURVE",
"761 175 CURVE",
"633 136 OFFCURVE",
"459 108 OFFCURVE",
"332 126 CURVE SMOOTH",
"266 136 OFFCURVE",
"259 159 OFFCURVE",
"253 268 CURVE",
"252 278 OFFCURVE",
"246 283 OFFCURVE",
"237 283 CURVE SMOOTH",
"170 283 LINE SMOOTH",
"161 283 OFFCURVE",
"156 278 OFFCURVE",
"155 269 CURVE SMOOTH",
"141 104 OFFCURVE",
"136 -49 OFFCURVE",
"389 -49 CURVE SMOOTH"
);
}
);
width = 1141;
},
{
anchors = (
{
name = bottom;
position = "{447, -200}";
},
{
name = top;
position = "{765, 1042}";
}
);
guideLines = (
{
position = "{2480, -225}";
}
);
layerId = "BE58D163-656C-4DD5-ACF8-D2DBE947AA26";
name = Bold;
paths = (
{
closed = 1;
nodes = (
"536.326 -89 OFFCURVE",
"744.673 -40.245 OFFCURVE",
"819.372 13.539 CURVE SMOOTH",
"855.189 38.956 OFFCURVE",
"879.903 78.598 OFFCURVE",
"890.618 127.661 CURVE",
"882.576 103.525 OFFCURVE",
"837.211 99.025 OFFCURVE",
"826.858 121.86 CURVE",
"874.695 16.041 OFFCURVE",
"970.085 -40 OFFCURVE",
"1101 -40 CURVE SMOOTH",
"1159.117 -40 LINE",
"1230.319 35.533 OFFCURVE",
"1230.319 120.467 OFFCURVE",
"1159.117 196 CURVE",
"1113 196 LINE SMOOTH",
"964.923 196 OFFCURVE",
"931.743 233.165 OFFCURVE",
"894.486 463.39 CURVE SMOOTH",
"825.478 886.44 LINE",
"825.355 887.155 LINE SMOOTH",
"817.904 928.136 OFFCURVE",
"775.073 944.953 OFFCURVE",
"742.442 919.574 CURVE SMOOTH",
"638.205 840.397 LINE SMOOTH",
"619.696 825.369 OFFCURVE",
"611.599 805.57 OFFCURVE",
"615.408 784.048 CURVE SMOOTH",
"731.734 185.37 LINE",
"729.873 194.677 OFFCURVE",
"737.236 208.246 OFFCURVE",
"746.218 212.237 CURVE",
"602.479 168.961 OFFCURVE",
"442.697 150.71 OFFCURVE",
"337.613 165.604 CURVE SMOOTH",
"300.624 171.21 OFFCURVE",
"298.484 169.28 OFFCURVE",
"292.901 270.892 CURVE SMOOTH",
"290.368 301.361 OFFCURVE",
"267.126 323 OFFCURVE",
"237 323 CURVE SMOOTH",
"170 323 LINE SMOOTH",
"140.634 323 OFFCURVE",
"118.179 302.413 OFFCURVE",
"115.178 272.787 CURVE SMOOTH",
"101.066 106.664 OFFCURVE",
"94.432 -89 OFFCURVE",
"389 -89 CURVE SMOOTH"
);
}
);
width = 1141;
}
);
unicode = FEAA;
userData = {
com.typemytype.robofont.guides = (
{
angle = 0;
isGlobal = 0;
x = 2480;
y = -225;
}
);
};
},
{
glyphname = "reh-ar";
lastChange = "2016-01-29 16:26:50 +0000";
layers = (
{
anchors = (
{
name = bottom;
position = "{260, -565}";
},
{
name = top;
position = "{485, 840}";
}
);
guideLines = (
{
position = "{-844, -463}";
}
);
layerId = "3D7C20C2-9735-4AE4-B4D3-DDFDA9BF3443";
name = Regular;
paths = (
{
closed = 1;
nodes = (
"533 -347 OFFCURVE",
"653 -146 OFFCURVE",
"672 40 CURVE SMOOTH",
"684 161 OFFCURVE",
"622 393 OFFCURVE",
"577 584 CURVE SMOOTH",
"574 595 OFFCURVE",
"565 596 OFFCURVE",
"557 588 CURVE SMOOTH",
"467 497 LINE",
"462 491 OFFCURVE",
"460 485 OFFCURVE",
"462 477 CURVE SMOOTH",
"586 41 LINE SMOOTH",
"588 33 OFFCURVE",
"588 28 OFFCURVE",
"585 21 CURVE SMOOTH",
"464 -253 OFFCURVE",
"302 -380 OFFCURVE",
"-35 -306 CURVE SMOOTH",
"-44 -304 OFFCURVE",
"-50 -310 OFFCURVE",
"-53 -319 CURVE SMOOTH",
"-73 -377 LINE",
"-75 -385 OFFCURVE",
"-71 -391 OFFCURVE",
"-62 -394 CURVE SMOOTH",
"144 -463 OFFCURVE",
"288 -484 OFFCURVE",
"410 -416 CURVE SMOOTH"
);
}
);
width = 794;
},
{
anchors = (
{
name = bottom;
position = "{260, -565}";
},
{
name = top;
position = "{485, 840}";
}
);
guideLines = (
{
position = "{-844, -463}";
}
);
layerId = "BE58D163-656C-4DD5-ACF8-D2DBE947AA26";
name = Bold;
paths = (
{
closed = 1;
nodes = (
"567.289 -373.629 OFFCURVE",
"691.989 -157.937 OFFCURVE",
"711.793 35.935 CURVE SMOOTH",
"724.474 163.804 OFFCURVE",
"661.285 400.926 OFFCURVE",
"616.451 590.982 CURVE SMOOTH",
"607.205 634.257 OFFCURVE",
"559.593 647.162 OFFCURVE",
"528.716 616.284 CURVE SMOOTH",
"437.607 524.164 LINE",
"423.18 507.832 OFFCURVE",
"418.011 486.987 OFFCURVE",
"423.391 466.53 CURVE SMOOTH",
"547.526 30.058 LINE",
"547.194 31.299 LINE",
"548.17 27.397 OFFCURVE",
"547.404 34.819 OFFCURVE",
"548.234 36.757 CURVE",
"423.092 -246.617 OFFCURVE",
"265.204 -330.967 OFFCURVE",
"-26.421 -266.931 CURVE SMOOTH",
"-54.997 -260.581 OFFCURVE",
"-81.092 -276.786 OFFCURVE",
"-90.947 -306.351 CURVE SMOOTH",
"-111.237 -365.185 LINE",
"-119.701 -394.575 OFFCURVE",
"-104.289 -422.067 OFFCURVE",
"-74.649 -431.947 CURVE SMOOTH",
"166.809 -512.824 OFFCURVE",
"307.63 -518.852 OFFCURVE",
"429.474 -450.939 CURVE SMOOTH"
);
}
);
width = 794;
}
);
unicode = 0631;
userData = {
com.typemytype.robofont.guides = (
{
angle = 0;
isGlobal = 0;
x = -844;
y = -463;
}
);
};
},
{
glyphname = "reh-ar.fina";
lastChange = "2016-01-29 16:26:51 +0000";
layers = (
{
anchors = (
{
name = bottom;
position = "{290, -565}";
},
{
name = top;
position = "{560, 745}";
}
);
guideLines = (
{
position = "{618, 606}";
}
);
layerId = "3D7C20C2-9735-4AE4-B4D3-DDFDA9BF3443";
name = Regular;
paths = (
{
closed = 1;
nodes = (
"539 -349 OFFCURVE",
"687 -126 OFFCURVE",
"710 90 CURVE",
"763 25 OFFCURVE",
"828 0 OFFCURVE",
"916 0 CURVE SMOOTH",
"1009 0 LINE",
"1051 52 OFFCURVE",
"1051 104 OFFCURVE",
"1009 156 CURVE",
"916 156 LINE SMOOTH",
"753 156 OFFCURVE",
"719 225 OFFCURVE",
"666 454 CURVE SMOOTH",
"635 587 LINE SMOOTH",
"632 601 OFFCURVE",
"618 607 OFFCURVE",
"607 597 CURVE SMOOTH",
"520 518 LINE",
"515 514 OFFCURVE",
"514 510 OFFCURVE",
"515 504 CURVE",
"616 86 LINE",
"618 79 OFFCURVE",
"616 73 OFFCURVE",
"614 67 CURVE SMOOTH",
"494 -261 OFFCURVE",
"292 -378 OFFCURVE",
"-35 -306 CURVE SMOOTH",
"-44 -304 OFFCURVE",
"-50 -310 OFFCURVE",
"-53 -319 CURVE SMOOTH",
"-73 -377 LINE",
"-75 -385 OFFCURVE",
"-71 -391 OFFCURVE",
"-62 -394 CURVE SMOOTH",
"144 -463 OFFCURVE",
"286 -481 OFFCURVE",
"410 -416 CURVE SMOOTH"
);
}
);
width = 1009;
},
{
anchors = (
{
name = bottom;
position = "{290, -565}";
},
{
name = top;
position = "{560, 745}";
}
);
guideLines = (
{
position = "{618, 606}";
}
);
layerId = "BE58D163-656C-4DD5-ACF8-D2DBE947AA26";
name = Bold;
paths = (
{
closed = 1;
nodes = (
"563.449 -381.375 OFFCURVE",
"692.938 -182.44 OFFCURVE",
"736.979 10.105 CURVE",
"785.521 -23.921 OFFCURVE",
"843.896 -40 OFFCURVE",
"916 -40 CURVE SMOOTH",
"1027.117 -40 LINE",
"1098.319 35.533 OFFCURVE",
"1098.319 120.467 OFFCURVE",
"1027.117 196 CURVE",
"916 196 LINE SMOOTH",
"787.84 196 OFFCURVE",
"758.725 230.756 OFFCURVE",
"704.97 463.019 CURVE SMOOTH",
"673.956 596.08 LINE",
"674.112 595.381 LINE",
"664.626 639.65 OFFCURVE",
"613.777 657.219 OFFCURVE",
"580.093 626.598 CURVE SMOOTH",
"490.826 545.539 LINE",
"477.635 532.684 OFFCURVE",
"472.141 514.627 OFFCURVE",
"475.865 495.654 CURVE",
"576.244 80.227 LINE",
"576.238 80.208 OFFCURVE",
"576.231 80.189 OFFCURVE",
"576.225 80.169 CURVE SMOOTH",
"462.794 -229.389 OFFCURVE",
"280.099 -334.422 OFFCURVE",
"-26.399 -266.936 CURVE SMOOTH",
"-54.997 -260.581 OFFCURVE",
"-81.092 -276.786 OFFCURVE",
"-90.947 -306.351 CURVE SMOOTH",
"-111.237 -365.185 LINE",
"-119.701 -394.575 OFFCURVE",
"-104.289 -422.067 OFFCURVE",
"-74.649 -431.947 CURVE SMOOTH",
"161.108 -510.914 OFFCURVE",
"303.455 -517.013 OFFCURVE",
"428.571 -451.428 CURVE SMOOTH"
);
}
);
width = 1009;
}
);
unicode = FEAE;
userData = {
com.typemytype.robofont.guides = (
{
angle = 0;
isGlobal = 0;
x = 618;
y = 606;
}
);
};
},
{
glyphname = "seen-ar";
lastChange = "2016-01-29 16:26:50 +0000";
layers = (
{
anchors = (
{
name = bottom;
position = "{614, -612}";
},
{
name = top;
position = "{1586, 760}";
}
);
layerId = "3D7C20C2-9735-4AE4-B4D3-DDFDA9BF3443";
name = Regular;
paths = (
{
closed = 1;
nodes = (
"709 -462 OFFCURVE",
"1021 -380 OFFCURVE",
"1125 -236 CURVE SMOOTH",
"1170 -174 OFFCURVE",
"1164 -95 OFFCURVE",
"1154 19 CURVE",
"1249 -23 OFFCURVE",
"1542 -15 OFFCURVE",
"1619 83 CURVE",
"1693 37 OFFCURVE",
"1796 -3 OFFCURVE",
"1887 -5 CURVE SMOOTH",
"2099 -12 OFFCURVE",
"2189 40 OFFCURVE",
"2183 268 CURVE SMOOTH",
"2179 356 OFFCURVE",
"2151 583 OFFCURVE",
"2116 730 CURVE SMOOTH",
"2113 741 OFFCURVE",
"2104 742 OFFCURVE",
"2096 734 CURVE SMOOTH",
"2006 643 LINE",
"2001 637 OFFCURVE",
"1999 631 OFFCURVE",
"2001 623 CURVE SMOOTH",
"2098 185 LINE SMOOTH",
"2101 173 OFFCURVE",
"2092 164 OFFCURVE",
"2081 161 CURVE",
"1943 133 OFFCURVE",
"1824 143 OFFCURVE",
"1703 196 CURVE SMOOTH",
"1698 198 OFFCURVE",
"1694 203 OFFCURVE",
"1695 210 CURVE SMOOTH",
"1729 506 LINE SMOOTH",
"1730 516 OFFCURVE",
"1724 522 OFFCURVE",
"1715 523 CURVE SMOOTH",
"1655 528 LINE",
"1647 529 OFFCURVE",
"1640 524 OFFCURVE",
"1639 515 CURVE SMOOTH",
"1610 302 LINE SMOOTH",
"1593 175 OFFCURVE",
"1482 149 OFFCURVE",
"1344 151 CURVE SMOOTH",
"1220 153 OFFCURVE",
"1139 167 OFFCURVE",
"1125 263 CURVE SMOOTH",
"1092 495 LINE SMOOTH",
"1090 511 OFFCURVE",
"1075 516 OFFCURVE",
"1063 507 CURVE SMOOTH",
"967 436 LINE SMOOTH",
"963 433 OFFCURVE",
"961 428 OFFCURVE",
"962 423 CURVE",
"1055 -154 LINE SMOOTH",
"1056 -160 OFFCURVE",
"1053 -167 OFFCURVE",
"1047 -169 CURVE",
"995 -193 OFFCURVE",
"766 -287 OFFCURVE",
"536 -287 CURVE SMOOTH",
"340 -287 OFFCURVE",
"219 -189 OFFCURVE",
"263 53 CURVE SMOOTH",
"293 218 LINE SMOOTH",
"295 228 OFFCURVE",
"288 235 OFFCURVE",
"279 236 CURVE SMOOTH",
"215 245 LINE SMOOTH",
"207 246 OFFCURVE",
"200 242 OFFCURVE",
"198 233 CURVE",
"162 33 LINE SMOOTH",
"116 -222 OFFCURVE",
"192 -462 OFFCURVE",
"512 -462 CURVE SMOOTH"
);
}
);
width = 2303;
},
{
anchors = (
{
name = bottom;
position = "{614, -612}";
},
{
name = top;
position = "{1586, 760}";
}
);
layerId = "BE58D163-656C-4DD5-ACF8-D2DBE947AA26";
name = Bold;
paths = (
{
closed = 1;
nodes = (
"768.304 -502 OFFCURVE",
"1060.212 -394.026 OFFCURVE",
"1157.427 -259.42 CURVE SMOOTH",
"1201.471 -198.737 OFFCURVE",
"1204.483 -124.459 OFFCURVE",
"1198.589 -36.457 CURVE",
"1334.891 -65.006 OFFCURVE",
"1536.536 -33.758 OFFCURVE",
"1624.557 33.356 CURVE",
"1709.04 -13.549 OFFCURVE",
"1807.113 -43.254 OFFCURVE",
"1886.121 -44.99 CURVE SMOOTH",
"2136.592 -53.263 OFFCURVE",
"2229.243 31.309 OFFCURVE",
"2222.986 269.052 CURVE SMOOTH",
"2222.959 269.816 LINE SMOOTH",
"2218.908 358.935 OFFCURVE",
"2190.697 587.91 OFFCURVE",
"2155.419 737.13 CURVE SMOOTH",
"2146.097 780.287 OFFCURVE",
"2098.558 793.126 OFFCURVE",
"2067.716 762.284 CURVE SMOOTH",
"1976.607 670.164 LINE",
"1963.005 654.767 OFFCURVE",
"1957.633 635.357 OFFCURVE",
"1961.571 616.044 CURVE SMOOTH",
"2058.946 176.351 LINE",
"2059.194 175.299 LINE",
"2056.934 184.339 OFFCURVE",
"2061.978 197.216 OFFCURVE",
"2070.399 199.62 CURVE",
"1938.799 173.392 OFFCURVE",
"1831.132 183.545 OFFCURVE",
"1719.049 232.639 CURVE SMOOTH",
"1717.856 233.139 LINE",
"1728.962 228.696 OFFCURVE",
"1736.283 216.142 OFFCURVE",
"1734.598 204.343 CURVE",
"1734.739 205.435 LINE",
"1768.739 501.435 LINE",
"1768.801 502.02 LINE SMOOTH",
"1771.942 533.422 OFFCURVE",
"1750.374 559.66 OFFCURVE",
"1718.735 562.827 CURVE SMOOTH",
"1656.407 568.021 LINE SMOOTH",
"1627.79 569.763 OFFCURVE",
"1602.547 549.138 OFFCURVE",
"1599.245 519.417 CURVE",
"1599.366 520.396 LINE",
"1570.366 307.396 LINE SMOOTH",
"1559.01 222.566 OFFCURVE",
"1496.39 188.796 OFFCURVE",
"1344.58 190.996 CURVE SMOOTH",
"1211.021 193.15 OFFCURVE",
"1173.02 210.905 OFFCURVE",
"1164.581 268.772 CURVE SMOOTH",
"1131.601 500.633 LINE",
"1131.691 499.961 LINE",
"1125.925 546.092 OFFCURVE",
"1075.764 566.573 OFFCURVE",
"1039 539 CURVE SMOOTH",
"943.215 468.16 LINE SMOOTH",
"927.63 456.473 OFFCURVE",
"919.592 436.795 OFFCURVE",
"922.308 417.887 CURVE SMOOTH",
"1015.51 -160.365 LINE",
"1013.651 -149.215 OFFCURVE",
"1019.904 -138.097 OFFCURVE",
"1030.232 -132.735 CURVE",
"978.941 -156.353 OFFCURVE",
"758.072 -247 OFFCURVE",
"536 -247 CURVE SMOOTH",
"343.894 -247 OFFCURVE",
"266.662 -150.466 OFFCURVE",
"302.355 45.845 CURVE SMOOTH",
"332.355 210.845 LINE",
"332.223 210.155 LINE",
"338.49 241.49 OFFCURVE",
"317.749 270.389 OFFCURVE",
"286.212 275.379 CURVE SMOOTH",
"220.57 284.61 LINE",
"219.961 284.691 LINE SMOOTH",
"190.72 288.346 OFFCURVE",
"164.669 269.692 OFFCURVE",
"158.738 240.672 CURVE SMOOTH",
"122.633 40.086 LINE SMOOTH",
"62.5 -293.257 OFFCURVE",
"210.319 -502 OFFCURVE",
"512 -502 CURVE SMOOTH"
);
}
);
width = 2303;
}
);
unicode = 0633;
},
{
glyphname = "seen-ar.fina";
lastChange = "2016-01-29 16:26:51 +0000";
layers = (
{
anchors = (
{
name = bottom;
position = "{615, -612}";
},
{
name = top;
position = "{1587, 760}";
}
);
layerId = "3D7C20C2-9735-4AE4-B4D3-DDFDA9BF3443";
name = Regular;
paths = (
{
closed = 1;
nodes = (
"710 -462 OFFCURVE",
"1022 -380 OFFCURVE",
"1126 -236 CURVE SMOOTH",
"1171 -174 OFFCURVE",
"1165 -96 OFFCURVE",
"1155 18 CURVE",
"1221 0 OFFCURVE",
"1296 -8 OFFCURVE",
"1357 -8 CURVE SMOOTH",
"1469 -7 OFFCURVE",
"1580 24 OFFCURVE",
"1621 76 CURVE",
"1695 30 OFFCURVE",
"1798 -1 OFFCURVE",
"1889 -3 CURVE SMOOTH",
"2032 -8 OFFCURVE",
"2136 14 OFFCURVE",
"2179 100 CURVE SMOOTH",
"2186 113 OFFCURVE",
"2198 115 OFFCURVE",
"2208 103 CURVE SMOOTH",
"2261 36 OFFCURVE",
"2337 0 OFFCURVE",
"2426 0 CURVE SMOOTH",
"2496 0 LINE",
"2538 52 OFFCURVE",
"2538 104 OFFCURVE",
"2496 156 CURVE",
"2426 156 LINE SMOOTH",
"2272 156 OFFCURVE",
"2242 226 OFFCURVE",
"2206 454 CURVE SMOOTH",
"2185 587 LINE SMOOTH",
"2183 601 OFFCURVE",
"2168 606 OFFCURVE",
"2157 597 CURVE SMOOTH",
"2070 528 LINE SMOOTH",
"2065 524 OFFCURVE",
"2064 520 OFFCURVE",
"2065 514 CURVE SMOOTH",
"2120 181 LINE",
"2121 172 OFFCURVE",
"2117 164 OFFCURVE",
"2108 162 CURVE SMOOTH",
"1966 134 OFFCURVE",
"1827 141 OFFCURVE",
"1705 198 CURVE SMOOTH",
"1699 201 OFFCURVE",
"1696 206 OFFCURVE",
"1697 212 CURVE",
"1731 506 LINE SMOOTH",
"1732 516 OFFCURVE",
"1726 522 OFFCURVE",
"1717 523 CURVE SMOOTH",
"1657 528 LINE",
"1649 529 OFFCURVE",
"1642 524 OFFCURVE",
"1641 515 CURVE SMOOTH",
"1612 298 LINE SMOOTH",
"1595 173 OFFCURVE",
"1494 150 OFFCURVE",
"1365 150 CURVE SMOOTH",
"1307 150 OFFCURVE",
"1246 152 OFFCURVE",
"1201 168 CURVE SMOOTH",
"1162 182 OFFCURVE",
"1134 208 OFFCURVE",
"1126 262 CURVE SMOOTH",
"1093 495 LINE SMOOTH",
"1091 511 OFFCURVE",
"1076 516 OFFCURVE",
"1064 507 CURVE SMOOTH",
"968 436 LINE SMOOTH",
"964 433 OFFCURVE",
"962 428 OFFCURVE",
"963 423 CURVE",
"1056 -154 LINE SMOOTH",
"1057 -160 OFFCURVE",
"1054 -167 OFFCURVE",
"1048 -169 CURVE",
"996 -193 OFFCURVE",
"767 -287 OFFCURVE",
"537 -287 CURVE SMOOTH",
"341 -287 OFFCURVE",
"217 -188 OFFCURVE",
"264 53 CURVE SMOOTH",
"294 208 LINE SMOOTH",
"296 218 OFFCURVE",
"289 225 OFFCURVE",
"280 226 CURVE SMOOTH",
"216 235 LINE SMOOTH",
"208 236 OFFCURVE",
"201 232 OFFCURVE",
"199 223 CURVE SMOOTH",
"163 33 LINE SMOOTH",
"115 -222 OFFCURVE",
"193 -462 OFFCURVE",
"513 -462 CURVE SMOOTH"
);
}
);
width = 2496;
},
{
anchors = (
{
name = bottom;
position = "{615, -612}";
},
{
name = top;
position = "{1587, 760}";
}
);
layerId = "BE58D163-656C-4DD5-ACF8-D2DBE947AA26";
name = Bold;
paths = (
{
closed = 1;
nodes = (
"769.304 -502 OFFCURVE",
"1061.212 -394.026 OFFCURVE",
"1158.427 -259.42 CURVE SMOOTH",
"1203.196 -197.739 OFFCURVE",
"1205.572 -122.731 OFFCURVE",
"1199.296 -33.093 CURVE",
"1250.132 -42.664 OFFCURVE",
"1305.565 -48 OFFCURVE",
"1357 -48 CURVE SMOOTH",
"1469.493 -46.997 OFFCURVE",
"1570.723 -18.915 OFFCURVE",
"1627.268 26.302 CURVE",
"1704.364 -14.644 OFFCURVE",
"1802.756 -41.114 OFFCURVE",
"1888.121 -42.99 CURVE",
"1887.602 -42.976 LINE",
"2064.898 -49.175 OFFCURVE",
"2167.231 -11.594 OFFCURVE",
"2214.186 80.958 CURVE",
"2207.955 69.581 OFFCURVE",
"2184.872 67.494 OFFCURVE",
"2176.949 77.787 CURVE",
"2237.383 1.625 OFFCURVE",
"2325.48 -40 OFFCURVE",
"2426 -40 CURVE SMOOTH",
"2514.117 -40 LINE",
"2585.319 35.533 OFFCURVE",
"2585.319 120.467 OFFCURVE",
"2514.117 196 CURVE",
"2426 196 LINE SMOOTH",
"2307.567 196 OFFCURVE",
"2281.79 230.466 OFFCURVE",
"2245.511 460.239 CURVE SMOOTH",
"2224.511 593.239 LINE",
"2224.598 592.657 LINE",
"2218.19 637.512 OFFCURVE",
"2166.503 656.458 OFFCURVE",
"2131.67 627.958 CURVE",
"2132.144 628.34 LINE",
"2045.144 559.34 LINE SMOOTH",
"2029.284 546.652 OFFCURVE",
"2022.175 527.637 OFFCURVE",
"2025.544 507.424 CURVE SMOOTH",
"2080.535 174.482 LINE",
"2080.245 176.583 LINE SMOOTH",
"2079.047 187.361 OFFCURVE",
"2088.28 198.593 OFFCURVE",
"2099.323 201.047 CURVE SMOOTH",
"2100.262 201.244 LINE",
"1955.887 172.776 OFFCURVE",
"1829.813 183.836 OFFCURVE",
"1721.932 234.24 CURVE",
"1722.889 233.777 LINE SMOOTH",
"1732.607 228.918 OFFCURVE",
"1738.308 216.537 OFFCURVE",
"1736.456 205.424 CURVE",
"1736.735 207.405 LINE",
"1770.735 501.405 LINE",
"1770.801 502.02 LINE SMOOTH",
"1773.942 533.422 OFFCURVE",
"1752.374 559.66 OFFCURVE",
"1720.735 562.827 CURVE SMOOTH",
"1658.407 568.021 LINE SMOOTH",
"1629.79 569.763 OFFCURVE",
"1604.547 549.138 OFFCURVE",
"1601.245 519.417 CURVE",
"1601.352 520.299 LINE",
"1572.352 303.299 LINE SMOOTH",
"1561.087 220.461 OFFCURVE",
"1507.161 190 OFFCURVE",
"1365 190 CURVE SMOOTH",
"1289.772 190 OFFCURVE",
"1245.849 194.507 OFFCURVE",
"1214.4 205.689 CURVE SMOOTH",
"1184.071 216.576 OFFCURVE",
"1170.668 233.437 OFFCURVE",
"1165.568 267.862 CURVE SMOOTH",
"1132.605 500.609 LINE",
"1132.691 499.961 LINE",
"1126.925 546.092 OFFCURVE",
"1076.764 566.573 OFFCURVE",
"1040 539 CURVE SMOOTH",
"944.215 468.16 LINE SMOOTH",
"928.63 456.473 OFFCURVE",
"920.592 436.795 OFFCURVE",
"923.308 417.887 CURVE SMOOTH",
"1016.51 -160.365 LINE",
"1014.651 -149.215 OFFCURVE",
"1020.904 -138.097 OFFCURVE",
"1031.232 -132.735 CURVE",
"979.941 -156.353 OFFCURVE",
"759.072 -247 OFFCURVE",
"537 -247 CURVE SMOOTH",
"343.918 -247 OFFCURVE",
"265.246 -149.583 OFFCURVE",
"303.26 45.343 CURVE SMOOTH",
"333.271 200.399 LINE SMOOTH",
"339.49 231.49 OFFCURVE",
"318.749 260.389 OFFCURVE",
"287.212 265.379 CURVE SMOOTH",
"221.57 274.61 LINE",
"220.961 274.691 LINE SMOOTH",
"191.797 278.337 OFFCURVE",
"165.805 259.789 OFFCURVE",
"159.785 230.899 CURVE SMOOTH",
"123.699 40.446 LINE SMOOTH",
"61.235 -291.397 OFFCURVE",
"210.326 -502 OFFCURVE",
"513 -502 CURVE SMOOTH"
);
}
);
width = 2496;
}
);
unicode = FEB2;
},
{
glyphname = "seen-ar.medi";
lastChange = "2016-01-29 16:26:50 +0000";
layers = (
{
anchors = (
{
name = bottom;
position = "{990, -170}";
},
{
name = top;
position = "{872, 760}";
}
);
layerId = "3D7C20C2-9735-4AE4-B4D3-DDFDA9BF3443";
name = Regular;
paths = (
{
closed = 1;
nodes = (
"753 -5 OFFCURVE",
"864 19 OFFCURVE",
"905 71 CURVE",
"979 25 OFFCURVE",
"1082 -3 OFFCURVE",
"1173 -5 CURVE SMOOTH",
"1316 -10 OFFCURVE",
"1420 14 OFFCURVE",
"1463 100 CURVE SMOOTH",
"1470 113 OFFCURVE",
"1482 115 OFFCURVE",
"1492 103 CURVE SMOOTH",
"1545 36 OFFCURVE",
"1621 0 OFFCURVE",
"1710 0 CURVE SMOOTH",
"1770 0 LINE",
"1812 52 OFFCURVE",
"1812 104 OFFCURVE",
"1770 156 CURVE",
"1710 156 LINE SMOOTH",
"1545 156 OFFCURVE",
"1509 220 OFFCURVE",
"1490 454 CURVE SMOOTH",
"1479 587 LINE SMOOTH",
"1478 601 OFFCURVE",
"1462 606 OFFCURVE",
"1451 597 CURVE SMOOTH",
"1364 528 LINE SMOOTH",
"1359 524 OFFCURVE",
"1358 520 OFFCURVE",
"1359 514 CURVE SMOOTH",
"1404 181 LINE SMOOTH",
"1405 172 OFFCURVE",
"1401 164 OFFCURVE",
"1392 162 CURVE SMOOTH",
"1250 134 OFFCURVE",
"1111 141 OFFCURVE",
"989 188 CURVE",
"983 190 OFFCURVE",
"980 196 OFFCURVE",
"981 202 CURVE",
"1015 506 LINE SMOOTH",
"1016 516 OFFCURVE",
"1010 522 OFFCURVE",
"1001 523 CURVE SMOOTH",
"941 528 LINE",
"933 529 OFFCURVE",
"926 524 OFFCURVE",
"925 515 CURVE SMOOTH",
"896 288 LINE SMOOTH",
"880 163 OFFCURVE",
"778 147 OFFCURVE",
"649 147 CURVE SMOOTH",
"578 147 OFFCURVE",
"489 156 OFFCURVE",
"421 176 CURVE",
"415 178 OFFCURVE",
"413 184 OFFCURVE",
"413 190 CURVE",
"438 506 LINE SMOOTH",
"439 516 OFFCURVE",
"433 522 OFFCURVE",
"423 523 CURVE",
"363 526 LINE",
"355 526 OFFCURVE",
"348 522 OFFCURVE",
"347 513 CURVE SMOOTH",
"329 367 LINE SMOOTH",
"307 189 OFFCURVE",
"282 160 OFFCURVE",
"112 157 CURVE SMOOTH",
"0 157 LINE SMOOTH",
"-103 157 OFFCURVE",
"-103 0 OFFCURVE",
"0 0 CURVE SMOOTH",
"98 0 LINE SMOOTH",
"188 0 OFFCURVE",
"274 34 OFFCURVE",
"307 76 CURVE",
"374 1 OFFCURVE",
"530 -6 OFFCURVE",
"641 -6 CURVE SMOOTH"
);
}
);
width = 1770;
},
{
anchors = (
{
name = bottom;
position = "{990, -170}";
},
{
name = top;
position = "{872, 760}";
}
);
layerId = "BE58D163-656C-4DD5-ACF8-D2DBE947AA26";
name = Bold;
paths = (
{
closed = 1;
nodes = (
"759.862 -44.94 OFFCURVE",
"856.649 -20.895 OFFCURVE",
"911.134 21.484 CURVE",
"986.135 -17.825 OFFCURVE",
"1083.957 -43.053 OFFCURVE",
"1172.121 -44.99 CURVE",
"1171.602 -44.976 LINE",
"1346.897 -51.105 OFFCURVE",
"1450.921 -12.205 OFFCURVE",
"1498.186 80.958 CURVE",
"1491.955 69.581 OFFCURVE",
"1468.872 67.494 OFFCURVE",
"1460.949 77.787 CURVE",
"1521.383 1.625 OFFCURVE",
"1609.48 -40 OFFCURVE",
"1710 -40 CURVE SMOOTH",
"1788.117 -40 LINE",
"1859.319 35.533 OFFCURVE",
"1859.319 120.467 OFFCURVE",
"1788.117 196 CURVE",
"1710 196 LINE SMOOTH",
"1576.577 196 OFFCURVE",
"1548.091 232.817 OFFCURVE",
"1529.869 457.237 CURVE SMOOTH",
"1518.864 590.297 LINE SMOOTH",
"1515.586 636.228 OFFCURVE",
"1461.718 657.452 OFFCURVE",
"1425.67 627.958 CURVE",
"1426.144 628.34 LINE",
"1339.144 559.34 LINE SMOOTH",
"1324.062 547.274 OFFCURVE",
"1316.9 529.503 OFFCURVE",
"1319.121 510.414 CURVE SMOOTH",
"1364.36 175.643 LINE",
"1364.245 176.583 LINE SMOOTH",
"1363.047 187.361 OFFCURVE",
"1372.28 198.593 OFFCURVE",
"1383.323 201.047 CURVE SMOOTH",
"1384.262 201.244 LINE",
"1244.695 173.724 OFFCURVE",
"1116.438 181.835 OFFCURVE",
"1003.637 225.212 CURVE",
"1015 220.396 OFFCURVE",
"1022.571 208.118 OFFCURVE",
"1020.456 195.424 CURVE",
"1020.752 197.554 LINE",
"1054.752 501.554 LINE SMOOTH",
"1057.942 533.422 OFFCURVE",
"1036.374 559.66 OFFCURVE",
"1004.735 562.827 CURVE SMOOTH",
"942.407 568.021 LINE SMOOTH",
"913.79 569.763 OFFCURVE",
"888.547 549.138 OFFCURVE",
"885.245 519.417 CURVE",
"885.322 520.069 LINE",
"856.322 293.069 LINE SMOOTH",
"846.029 212.653 OFFCURVE",
"797.235 187 OFFCURVE",
"649 187 CURVE SMOOTH",
"572.371 187 OFFCURVE",
"489.835 197.449 OFFCURVE",
"432.287 214.375 CURVE",
"433.649 213.947 LINE SMOOTH",
"444.019 210.491 OFFCURVE",
"453 200.006 OFFCURVE",
"453 190 CURVE",
"452.875 186.845 LINE",
"477.875 502.845 LINE",
"477.801 502.02 LINE",
"481 534.006 OFFCURVE",
"458.577 560.238 OFFCURVE",
"425.765 562.912 CURVE SMOOTH",
"364.233 565.988 LINE SMOOTH",
"334.22 566.556 OFFCURVE",
"310.461 546.361 OFFCURVE",
"307.245 517.417 CURVE SMOOTH",
"289.301 371.894 LINE SMOOTH",
"269.526 211.902 OFFCURVE",
"257.669 199.577 OFFCURVE",
"111.294 196.994 CURVE",
"112 197 LINE",
"0 197 LINE SMOOTH",
"-155.865 197 OFFCURVE",
"-155.865 -40 OFFCURVE",
"0 -40 CURVE SMOOTH",
"98 -40 LINE SMOOTH",
"177.365 -40 OFFCURVE",
"257.367 -15.823 OFFCURVE",
"307.668 21.838 CURVE",
"372.929 -25.822 OFFCURVE",
"479.283 -46 OFFCURVE",
"641 -46 CURVE SMOOTH"
);
}
);
width = 1770;
}
);
unicode = FEB4;
},
{
glyphname = "seen-ar.init";
lastChange = "2016-01-29 16:26:50 +0000";
layers = (
{
anchors = (
{
name = bottom;
position = "{995, -170}";
},
{
name = top;
position = "{877, 760}";
}
);
layerId = "3D7C20C2-9735-4AE4-B4D3-DDFDA9BF3443";
name = Regular;
paths = (
{
closed = 1;
nodes = (
"763 -4 OFFCURVE",
"874 25 OFFCURVE",
"915 77 CURVE",
"989 31 OFFCURVE",
"1092 -1 OFFCURVE",
"1183 -3 CURVE SMOOTH",
"1395 -10 OFFCURVE",
"1485 42 OFFCURVE",
"1479 270 CURVE SMOOTH",
"1475 358 OFFCURVE",
"1437 583 OFFCURVE",
"1402 730 CURVE SMOOTH",
"1399 741 OFFCURVE",
"1390 742 OFFCURVE",
"1382 734 CURVE SMOOTH",
"1292 643 LINE",
"1287 637 OFFCURVE",
"1285 631 OFFCURVE",
"1287 623 CURVE SMOOTH",
"1394 187 LINE SMOOTH",
"1397 175 OFFCURVE",
"1388 166 OFFCURVE",
"1377 163 CURVE",
"1239 135 OFFCURVE",
"1120 145 OFFCURVE",
"999 198 CURVE SMOOTH",
"994 200 OFFCURVE",
"990 205 OFFCURVE",
"991 212 CURVE SMOOTH",
"1025 506 LINE SMOOTH",
"1026 516 OFFCURVE",
"1020 522 OFFCURVE",
"1011 523 CURVE SMOOTH",
"951 528 LINE",
"943 529 OFFCURVE",
"936 524 OFFCURVE",
"935 515 CURVE SMOOTH",
"906 299 LINE SMOOTH",
"890 174 OFFCURVE",
"788 148 OFFCURVE",
"659 148 CURVE SMOOTH",
"588 148 OFFCURVE",
"499 157 OFFCURVE",
"431 187 CURVE",
"425 189 OFFCURVE",
"423 195 OFFCURVE",
"423 201 CURVE",
"448 506 LINE SMOOTH",
"449 516 OFFCURVE",
"443 522 OFFCURVE",
"433 523 CURVE",
"373 526 LINE",
"365 526 OFFCURVE",
"358 522 OFFCURVE",
"357 513 CURVE SMOOTH",
"339 378 LINE SMOOTH",
"315 198 OFFCURVE",
"282 170 OFFCURVE",
"105 159 CURVE",
"0 157 LINE SMOOTH",
"-103 155 OFFCURVE",
"-103 0 OFFCURVE",
"0 0 CURVE SMOOTH",
"108 0 LINE SMOOTH",
"198 0 OFFCURVE",
"284 45 OFFCURVE",
"317 87 CURVE",
"384 12 OFFCURVE",
"540 -5 OFFCURVE",
"651 -5 CURVE SMOOTH"
);
}
);
width = 1599;
},
{
anchors = (
{
name = bottom;
position = "{995, -170}";
},
{
name = top;
position = "{877, 760}";
}
);
layerId = "BE58D163-656C-4DD5-ACF8-D2DBE947AA26";
name = Bold;
paths = (
{
closed = 1;
nodes = (
"765.072 -43.983 OFFCURVE",
"865.175 -17.015 OFFCURVE",
"921.163 27.32 CURVE",
"999.002 -14.236 OFFCURVE",
"1097.579 -41.132 OFFCURVE",
"1182.121 -42.99 CURVE SMOOTH",
"1432.592 -51.263 OFFCURVE",
"1525.243 33.309 OFFCURVE",
"1518.986 271.052 CURVE SMOOTH",
"1518.959 271.816 LINE SMOOTH",
"1514.919 360.691 OFFCURVE",
"1477.457 585.159 OFFCURVE",
"1441.411 737.166 CURVE SMOOTH",
"1432.07 780.294 OFFCURVE",
"1384.549 793.118 OFFCURVE",
"1353.716 762.284 CURVE SMOOTH",
"1262.607 670.164 LINE",
"1248.36 654.037 OFFCURVE",
"1243.142 633.508 OFFCURVE",
"1248.194 613.299 CURVE SMOOTH",
"1355.153 177.466 LINE",
"1352.934 186.339 OFFCURVE",
"1357.978 199.216 OFFCURVE",
"1366.399 201.62 CURVE",
"1234.799 175.392 OFFCURVE",
"1127.132 185.545 OFFCURVE",
"1015.049 234.639 CURVE SMOOTH",
"1013.856 235.139 LINE",
"1024.962 230.696 OFFCURVE",
"1032.283 218.142 OFFCURVE",
"1030.598 206.343 CURVE",
"1030.735 207.405 LINE",
"1064.735 501.405 LINE",
"1064.801 502.02 LINE SMOOTH",
"1067.942 533.422 OFFCURVE",
"1046.374 559.66 OFFCURVE",
"1014.735 562.827 CURVE SMOOTH",
"952.407 568.021 LINE SMOOTH",
"923.79 569.763 OFFCURVE",
"898.547 549.138 OFFCURVE",
"895.245 519.417 CURVE",
"895.356 520.323 LINE",
"866.356 304.323 LINE SMOOTH",
"855.599 220.294 OFFCURVE",
"799.615 188 OFFCURVE",
"659 188 CURVE SMOOTH",
"574.959 188 OFFCURVE",
"499.472 200.68 OFFCURVE",
"447.747 223.26 CURVE",
"456.26 218.695 OFFCURVE",
"463 209.668 OFFCURVE",
"463 201 CURVE",
"462.866 197.732 LINE",
"487.866 502.732 LINE",
"487.801 502.02 LINE",
"491 534.006 OFFCURVE",
"468.577 560.238 OFFCURVE",
"435.765 562.912 CURVE SMOOTH",
"374.233 565.988 LINE SMOOTH",
"344.22 566.556 OFFCURVE",
"320.461 546.361 OFFCURVE",
"317.245 517.417 CURVE",
"317.351 518.287 LINE",
"299.351 383.287 LINE SMOOTH",
"278.148 224.265 OFFCURVE",
"260.655 208.802 OFFCURVE",
"103.375 198.976 CURVE",
"-0.762 196.993 LINE SMOOTH",
"-155.885 193.981 OFFCURVE",
"-155.12 -40 OFFCURVE",
"0 -40 CURVE SMOOTH",
"108 -40 LINE SMOOTH",
"182.702 -40 OFFCURVE",
"265.612 -10.647 OFFCURVE",
"318.441 32.265 CURVE",
"387.65 -18.394 OFFCURVE",
"504.155 -45 OFFCURVE",
"651 -45 CURVE SMOOTH"
);
}
);
width = 1599;
}
);
unicode = FEB3;
},
{
glyphname = "sad-ar";
lastChange = "2016-01-29 16:26:51 +0000";
layers = (
{
anchors = (
{
name = bottom;
position = "{605, -612}";
},
{
name = top;
position = "{1818, 839}";
}
);
layerId = "3D7C20C2-9735-4AE4-B4D3-DDFDA9BF3443";
name = Regular;
paths = (
{
closed = 1;
nodes = (
"711 -462 OFFCURVE",
"1023 -371 OFFCURVE",
"1127 -236 CURVE SMOOTH",
"1169 -181 OFFCURVE",
"1170 -128 OFFCURVE",
"1151 73 CURVE",
"1372 -63 OFFCURVE",
"1984 -31 OFFCURVE",
"2172 151 CURVE",
"2370 375 OFFCURVE",
"2066 677 OFFCURVE",
"1847 679 CURVE SMOOTH",
"1693 680 OFFCURVE",
"1502 619 OFFCURVE",
"1178 221 CURVE",
"1119 271 OFFCURVE",
"1124 364 OFFCURVE",
"1106 502 CURVE SMOOTH",
"1104 518 OFFCURVE",
"1089 523 OFFCURVE",
"1077 514 CURVE SMOOTH",
"981 443 LINE SMOOTH",
"977 440 OFFCURVE",
"975 435 OFFCURVE",
"976 430 CURVE",
"1057 -154 LINE SMOOTH",
"1058 -160 OFFCURVE",
"1055 -167 OFFCURVE",
"1049 -169 CURVE",
"977 -203 OFFCURVE",
"808 -287 OFFCURVE",
"538 -287 CURVE SMOOTH",
"332 -287 OFFCURVE",
"221 -189 OFFCURVE",
"265 53 CURVE SMOOTH",
"295 218 LINE SMOOTH",
"297 228 OFFCURVE",
"290 235 OFFCURVE",
"281 236 CURVE SMOOTH",
"217 245 LINE SMOOTH",
"209 246 OFFCURVE",
"202 242 OFFCURVE",
"200 233 CURVE",
"164 33 LINE SMOOTH",
"118 -222 OFFCURVE",
"174 -462 OFFCURVE",
"514 -462 CURVE SMOOTH"
);
},
{
closed = 1;
nodes = (
"1497 470 OFFCURVE",
"1635 527 OFFCURVE",
"1777 527 CURVE SMOOTH",
"1960 527 OFFCURVE",
"2099 353 OFFCURVE",
"2137 278 CURVE",
"2141 269 OFFCURVE",
"2139 263 OFFCURVE",
"2131 258 CURVE SMOOTH",
"1894 116 OFFCURVE",
"1519 116 OFFCURVE",
"1262 187 CURVE"
);
}
);
width = 2356;
},
{
anchors = (
{
name = bottom;
position = "{605, -612}";
},
{
name = top;
position = "{1818, 839}";
}
);
layerId = "BE58D163-656C-4DD5-ACF8-D2DBE947AA26";
name = Bold;
paths = (
{
closed = 1;
nodes = (
"757.002 -502 OFFCURVE",
"1058.49 -390.476 OFFCURVE",
"1158.688 -260.411 CURVE SMOOTH",
"1201.482 -204.371 OFFCURVE",
"1209.863 -154.986 OFFCURVE",
"1197.064 5.924 CURVE",
"1511.758 -118.612 OFFCURVE",
"2165.752 -33.449 OFFCURVE",
"2248.744 194.056 CURVE",
"2364.538 434.954 OFFCURVE",
"2061.583 717.042 OFFCURVE",
"1847.365 718.998 CURVE SMOOTH",
"1632.393 720.394 OFFCURVE",
"1434.343 589.996 OFFCURVE",
"1179.535 285.695 CURVE",
"1160.656 329.677 OFFCURVE",
"1159.627 400.125 OFFCURVE",
"1145.664 507.174 CURVE SMOOTH",
"1139.925 553.092 OFFCURVE",
"1089.764 573.573 OFFCURVE",
"1053 546 CURVE SMOOTH",
"957.215 475.16 LINE SMOOTH",
"942.069 463.801 OFFCURVE",
"934.056 444.911 OFFCURVE",
"936.102 426.507 CURVE SMOOTH",
"1017.379 -159.495 LINE",
"1017.544 -160.576 LINE",
"1015.683 -149.406 OFFCURVE",
"1021.697 -138.47 OFFCURVE",
"1031.708 -132.996 CURVE",
"959.2 -167.178 OFFCURVE",
"798.319 -247 OFFCURVE",
"538 -247 CURVE SMOOTH",
"341.155 -247 OFFCURVE",
"267.78 -155.314 OFFCURVE",
"304.355 45.845 CURVE SMOOTH",
"334.355 210.845 LINE",
"334.223 210.155 LINE",
"340.49 241.49 OFFCURVE",
"319.749 270.389 OFFCURVE",
"288.212 275.379 CURVE SMOOTH",
"222.57 284.61 LINE",
"221.961 284.691 LINE SMOOTH",
"192.72 288.346 OFFCURVE",
"166.669 269.692 OFFCURVE",
"160.738 240.672 CURVE SMOOTH",
"124.633 40.086 LINE SMOOTH",
"62.275 -305.593 OFFCURVE",
"201.818 -502 OFFCURVE",
"514 -502 CURVE SMOOTH"
);
},
{
closed = 1;
nodes = (
"1509.847 412.104 OFFCURVE",
"1633.224 487 OFFCURVE",
"1777 487 CURVE SMOOTH",
"1938.877 487 OFFCURVE",
"2062.315 334.808 OFFCURVE",
"2100.098 262.436 CURVE",
"2096.724 271.466 OFFCURVE",
"2101.178 286.531 OFFCURVE",
"2109.8 291.92 CURVE SMOOTH",
"2110.441 292.312 LINE",
"1924.952 181.176 OFFCURVE",
"1610.63 149.724 OFFCURVE",
"1334.276 210.32 CURVE"
);
}
);
width = 2356;
}
);
unicode = 0635;
},
{
glyphname = "sad-ar.fina";
lastChange = "2016-01-29 16:26:50 +0000";
layers = (
{
anchors = (
{
name = bottom;
position = "{609, -612}";
},
{
name = top;
position = "{1812, 839}";
}
);
layerId = "3D7C20C2-9735-4AE4-B4D3-DDFDA9BF3443";
name = Regular;
paths = (
{
closed = 1;
nodes = (
"709 -462 OFFCURVE",
"1012 -380 OFFCURVE",
"1116 -236 CURVE SMOOTH",
"1157 -179 OFFCURVE",
"1167 -131 OFFCURVE",
"1149 53 CURVE",
"1259 12 OFFCURVE",
"1404 -7 OFFCURVE",
"1551 -5 CURVE SMOOTH",
"1738 -4 OFFCURVE",
"1966 29 OFFCURVE",
"2092 80 CURVE SMOOTH",
"2100 83 OFFCURVE",
"2106 82 OFFCURVE",
"2112 75 CURVE",
"2172 10 OFFCURVE",
"2270 0 OFFCURVE",
"2420 0 CURVE SMOOTH",
"2460 0 LINE",
"2502 52 OFFCURVE",
"2502 104 OFFCURVE",
"2460 156 CURVE",
"2420 156 LINE SMOOTH",
"2367 156 OFFCURVE",
"2262 159 OFFCURVE",
"2190 173 CURVE SMOOTH",
"2180 175 OFFCURVE",
"2176 181 OFFCURVE",
"2179 191 CURVE SMOOTH",
"2251 411 OFFCURVE",
"2060 687 OFFCURVE",
"1831 689 CURVE SMOOTH",
"1684 690 OFFCURVE",
"1486 573 OFFCURVE",
"1183 213 CURVE",
"1177 205 OFFCURVE",
"1170 204 OFFCURVE",
"1163 208 CURVE SMOOTH",
"1129 227 OFFCURVE",
"1125 251 OFFCURVE",
"1091 503 CURVE SMOOTH",
"1089 517 OFFCURVE",
"1081 521 OFFCURVE",
"1072 514 CURVE SMOOTH",
"971 438 LINE",
"965 433 OFFCURVE",
"962 428 OFFCURVE",
"963 419 CURVE",
"1057 -165 LINE",
"1038 -174 OFFCURVE",
"788 -287 OFFCURVE",
"536 -287 CURVE SMOOTH",
"340 -287 OFFCURVE",
"219 -188 OFFCURVE",
"263 53 CURVE SMOOTH",
"293 219 LINE",
"295 228 OFFCURVE",
"290 235 OFFCURVE",
"281 236 CURVE SMOOTH",
"215 245 LINE SMOOTH",
"206 246 OFFCURVE",
"200 243 OFFCURVE",
"198 233 CURVE SMOOTH",
"162 33 LINE SMOOTH",
"116 -222 OFFCURVE",
"192 -462 OFFCURVE",
"512 -462 CURVE SMOOTH"
);
},
{
closed = 1;
nodes = (
"1493 450 OFFCURVE",
"1656 535 OFFCURVE",
"1797 535 CURVE SMOOTH",
"1976 535 OFFCURVE",
"2086 310 OFFCURVE",
"2104 248 CURVE",
"2107 240 OFFCURVE",
"2103 233 OFFCURVE",
"2094 230 CURVE",
"1807 119 OFFCURVE",
"1506 133 OFFCURVE",
"1265 175 CURVE"
);
}
);
width = 2460;
},
{
anchors = (
{
name = bottom;
position = "{609, -612}";
},
{
name = top;
position = "{1812, 839}";
}
);
layerId = "BE58D163-656C-4DD5-ACF8-D2DBE947AA26";
name = Bold;
paths = (
{
closed = 1;
nodes = (
"765.365 -502 OFFCURVE",
"1050.497 -395.015 OFFCURVE",
"1148.427 -259.42 CURVE SMOOTH",
"1192.982 -197.477 OFFCURVE",
"1204.147 -140.207 OFFCURVE",
"1194.081 -3.614 CURVE",
"1295.779 -32.152 OFFCURVE",
"1420.781 -46.775 OFFCURVE",
"1551.544 -44.996 CURVE SMOOTH",
"1751.505 -43.928 OFFCURVE",
"1981.171 -7.724 OFFCURVE",
"2106.059 42.546 CURVE",
"2099.079 39.926 OFFCURVE",
"2086.424 43.308 OFFCURVE",
"2081.577 49.011 CURVE",
"2143.346 -18.743 OFFCURVE",
"2229.538 -40 OFFCURVE",
"2420 -40 CURVE SMOOTH",
"2478.117 -40 LINE",
"2549.319 35.533 OFFCURVE",
"2549.319 120.467 OFFCURVE",
"2478.117 196 CURVE",
"2420 196 LINE SMOOTH",
"2367.571 196 OFFCURVE",
"2266.418 198.89 OFFCURVE",
"2197.635 212.265 CURVE",
"2210.758 209.641 OFFCURVE",
"2221.11 192.164 OFFCURVE",
"2217.313 179.506 CURVE SMOOTH",
"2217.016 178.558 LINE",
"2297.611 424.821 OFFCURVE",
"2086.817 726.767 OFFCURVE",
"1831.349 728.998 CURVE SMOOTH",
"1648.985 730.239 OFFCURVE",
"1431.012 570.478 OFFCURVE",
"1149.612 235.175 CURVE",
"1155.367 245.345 OFFCURVE",
"1172.425 248.685 OFFCURVE",
"1182.846 242.73 CURVE",
"1168.249 250.889 OFFCURVE",
"1163.644 263.735 OFFCURVE",
"1130.641 508.348 CURVE SMOOTH",
"1124.301 552.736 OFFCURVE",
"1080.975 571.655 OFFCURVE",
"1047.442 545.574 CURVE",
"1047.949 545.962 LINE",
"946.315 469.485 LINE SMOOTH",
"928.809 455.381 OFFCURVE",
"920.562 435.29 OFFCURVE",
"923.387 413.396 CURVE SMOOTH",
"1012.595 -140.831 LINE",
"939.858 -171.356 OFFCURVE",
"738.469 -247 OFFCURVE",
"536 -247 CURVE SMOOTH",
"344.29 -247 OFFCURVE",
"266.614 -149.915 OFFCURVE",
"302.35 45.816 CURVE SMOOTH",
"332.739 213.973 LINE SMOOTH",
"337.59 244.864 OFFCURVE",
"316.408 272.312 OFFCURVE",
"285.417 275.755 CURVE",
"286.405 275.633 LINE",
"220.405 284.633 LINE",
"219.417 284.755 LINE SMOOTH",
"189.176 288.115 OFFCURVE",
"164.694 270.432 OFFCURVE",
"158.777 240.845 CURVE SMOOTH",
"158.633 240.086 LINE",
"122.633 40.086 LINE SMOOTH",
"62.5 -293.257 OFFCURVE",
"210.319 -502 OFFCURVE",
"512 -502 CURVE SMOOTH"
);
},
{
closed = 1;
nodes = (
"1517.936 403.895 OFFCURVE",
"1661.773 495 OFFCURVE",
"1797 495 CURVE SMOOTH",
"1952.341 495 OFFCURVE",
"2050.203 292.125 OFFCURVE",
"2066.031 235.389 CURVE",
"2062.18 248.177 OFFCURVE",
"2069.054 263.848 OFFCURVE",
"2081.351 267.947 CURVE",
"2079.571 267.307 LINE SMOOTH",
"1867.935 185.454 OFFCURVE",
"1620.13 164.053 OFFCURVE",
"1341.754 203.371 CURVE"
);
}
);
width = 2460;
}
);
unicode = FEBA;
},
{
glyphname = "sad-ar.medi";
lastChange = "2016-01-29 16:26:50 +0000";
layers = (
{
anchors = (
{
name = bottom;
position = "{847, -167}";
},
{
name = top;
position = "{998, 839}";
}
);
layerId = "3D7C20C2-9735-4AE4-B4D3-DDFDA9BF3443";
name = Regular;
paths = (
{
closed = 1;
nodes = (
"942 -1 OFFCURVE",
"1172 34 OFFCURVE",
"1297 96 CURVE SMOOTH",
"1303 99 OFFCURVE",
"1309 97 OFFCURVE",
"1315 90 CURVE SMOOTH",
"1375 24 OFFCURVE",
"1472 0 OFFCURVE",
"1622 0 CURVE SMOOTH",
"1662 0 LINE",
"1704 52 OFFCURVE",
"1704 104 OFFCURVE",
"1662 156 CURVE",
"1622 156 LINE SMOOTH",
"1569 156 OFFCURVE",
"1464 159 OFFCURVE",
"1392 173 CURVE SMOOTH",
"1382 175 OFFCURVE",
"1378 181 OFFCURVE",
"1381 191 CURVE SMOOTH",
"1453 411 OFFCURVE",
"1262 687 OFFCURVE",
"1033 689 CURVE SMOOTH",
"886 690 OFFCURVE",
"688 576 OFFCURVE",
"384 215 CURVE",
"379 208 OFFCURVE",
"372 206 OFFCURVE",
"364 209 CURVE SMOOTH",
"332 222 OFFCURVE",
"334 237 OFFCURVE",
"341 321 CURVE SMOOTH",
"357 507 LINE SMOOTH",
"358 516 OFFCURVE",
"352 523 OFFCURVE",
"343 523 CURVE SMOOTH",
"282 525 LINE SMOOTH",
"273 525 OFFCURVE",
"267 522 OFFCURVE",
"266 512 CURVE SMOOTH",
"240 313 LINE SMOOTH",
"224 206 OFFCURVE",
"200 156 OFFCURVE",
"40 156 CURVE SMOOTH",
"0 156 LINE SMOOTH",
"-103 156 OFFCURVE",
"-103 0 OFFCURVE",
"0 0 CURVE SMOOTH",
"40 0 LINE SMOOTH",
"135 0 OFFCURVE",
"215 27 OFFCURVE",
"269 89 CURVE",
"381 27 OFFCURVE",
"566 -4 OFFCURVE",
"753 -2 CURVE SMOOTH"
);
},
{
closed = 1;
nodes = (
"695 453 OFFCURVE",
"858 535 OFFCURVE",
"999 535 CURVE SMOOTH",
"1178 535 OFFCURVE",
"1288 316 OFFCURVE",
"1306 255 CURVE",
"1309 247 OFFCURVE",
"1305 240 OFFCURVE",
"1296 237 CURVE",
"984 113 OFFCURVE",
"738 130 OFFCURVE",
"467 178 CURVE"
);
}
);
width = 1662;
},
{
anchors = (
{
name = bottom;
position = "{847, -167}";
},
{
name = top;
position = "{998, 839}";
}
);
layerId = "BE58D163-656C-4DD5-ACF8-D2DBE947AA26";
name = Bold;
paths = (
{
closed = 1;
nodes = (
"965.927 -40.874 OFFCURVE",
"1194.918 0.717 OFFCURVE",
"1314.774 60.166 CURVE",
"1305.471 55.514 OFFCURVE",
"1290.712 56.704 OFFCURVE",
"1284.524 64.078 CURVE",
"1350.02 -8.727 OFFCURVE",
"1453.123 -40 OFFCURVE",
"1622 -40 CURVE SMOOTH",
"1680.117 -40 LINE",
"1751.319 35.533 OFFCURVE",
"1751.319 120.467 OFFCURVE",
"1680.117 196 CURVE",
"1622 196 LINE SMOOTH",
"1569.571 196 OFFCURVE",
"1468.418 198.89 OFFCURVE",
"1399.635 212.265 CURVE",
"1412.758 209.641 OFFCURVE",
"1423.11 192.164 OFFCURVE",
"1419.313 179.506 CURVE SMOOTH",
"1419.016 178.558 LINE",
"1499.611 424.821 OFFCURVE",
"1288.817 726.767 OFFCURVE",
"1033.349 728.998 CURVE SMOOTH",
"848.112 730.259 OFFCURVE",
"627.605 568.553 OFFCURVE",
"346.316 229.764 CURVE",
"349.162 243.27 OFFCURVE",
"366.956 251.222 OFFCURVE",
"378.793 246.141 CURVE",
"375.388 246.603 OFFCURVE",
"373.572 230.195 OFFCURVE",
"380.862 317.678 CURVE SMOOTH",
"396.853 503.572 LINE",
"396.755 502.583 LINE",
"400.231 533.864 OFFCURVE",
"377.386 561.32 OFFCURVE",
"345.919 562.926 CURVE SMOOTH",
"282.781 564.996 LINE SMOOTH",
"252.747 565.312 OFFCURVE",
"230.842 547.4 OFFCURVE",
"226.602 519.21 CURVE SMOOTH",
"200.337 318.182 LINE",
"200.44 318.916 LINE",
"184.89 214.927 OFFCURVE",
"162.199 196 OFFCURVE",
"40 196 CURVE SMOOTH",
"0 196 LINE SMOOTH",
"-155.865 196 OFFCURVE",
"-155.865 -40 OFFCURVE",
"0 -40 CURVE SMOOTH",
"40 -40 LINE SMOOTH",
"137.914 -40 OFFCURVE",
"218.849 -12.694 OFFCURVE",
"276.979 40.079 CURVE",
"391.27 -13.534 OFFCURVE",
"566.683 -43.995 OFFCURVE",
"753.428 -41.998 CURVE SMOOTH"
);
},
{
closed = 1;
nodes = (
"718.205 404.708 OFFCURVE",
"862.092 495 OFFCURVE",
"999 495 CURVE SMOOTH",
"1154.587 495 OFFCURVE",
"1252.232 298.073 OFFCURVE",
"1268.059 242.306 CURVE",
"1264.15 255.108 OFFCURVE",
"1271.028 270.84 OFFCURVE",
"1283.351 274.947 CURVE",
"1281.227 274.172 LINE SMOOTH",
"1004.016 163.998 OFFCURVE",
"784.139 167.973 OFFCURVE",
"543.26 205.769 CURVE"
);
}
);
width = 1662;
}
);
unicode = FEBC;
},
{
glyphname = "sad-ar.init";
lastChange = "2016-01-29 16:26:50 +0000";
layers = (
{
anchors = (
{
name = bottom;
position = "{847, -167}";
},
{
name = top;
position = "{998, 839}";
}
);
layerId = "3D7C20C2-9735-4AE4-B4D3-DDFDA9BF3443";
name = Regular;
paths = (
{
closed = 1;
nodes = (
"962 -2 OFFCURVE",
"1223 45 OFFCURVE",
"1368 171 CURVE SMOOTH",
"1554 336 OFFCURVE",
"1338 687 OFFCURVE",
"1053 689 CURVE SMOOTH",
"905 690 OFFCURVE",
"706 571 OFFCURVE",
"400 206 CURVE",
"395 199 OFFCURVE",
"388 197 OFFCURVE",
"380 200 CURVE",
"332 215 OFFCURVE",
"333 221 OFFCURVE",
"341 317 CURVE SMOOTH",
"357 507 LINE SMOOTH",
"358 516 OFFCURVE",
"352 523 OFFCURVE",
"343 523 CURVE SMOOTH",
"282 525 LINE SMOOTH",
"273 525 OFFCURVE",
"267 522 OFFCURVE",
"266 512 CURVE",
"240 322 LINE SMOOTH",
"225 215 OFFCURVE",
"200 156 OFFCURVE",
"40 156 CURVE SMOOTH",
"0 156 LINE SMOOTH",
"-103 156 OFFCURVE",
"-103 0 OFFCURVE",
"0 0 CURVE SMOOTH",
"40 0 LINE SMOOTH",
"132 0 OFFCURVE",
"210 37 OFFCURVE",
"264 95 CURVE",
"376 24 OFFCURVE",
"543 -7 OFFCURVE",
"717 -5 CURVE SMOOTH"
);
},
{
closed = 1;
nodes = (
"715 449 OFFCURVE",
"852 524 OFFCURVE",
"993 524 CURVE SMOOTH",
"1185 524 OFFCURVE",
"1309 362 OFFCURVE",
"1343 298 CURVE",
"1347 289 OFFCURVE",
"1345 283 OFFCURVE",
"1336 278 CURVE SMOOTH",
"1082 139 OFFCURVE",
"711 131 OFFCURVE",
"487 174 CURVE"
);
}
);
width = 1557;
},
{
anchors = (
{
name = bottom;
position = "{847, -167}";
},
{
name = top;
position = "{998, 839}";
}
);
layerId = "BE58D163-656C-4DD5-ACF8-D2DBE947AA26";
name = Bold;
paths = (
{
closed = 1;
nodes = (
"1018.361 -41.313 OFFCURVE",
"1260.519 24.611 OFFCURVE",
"1394.237 140.807 CURVE SMOOTH",
"1608.407 330.793 OFFCURVE",
"1375.9 726.735 OFFCURVE",
"1053.281 729 CURVE SMOOTH",
"868.971 730.244 OFFCURVE",
"648.237 566.405 OFFCURVE",
"362.471 221.046 CURVE",
"365.238 233.698 OFFCURVE",
"381.287 241.387 OFFCURVE",
"392.971 237.818 CURVE",
"374.986 244.694 OFFCURVE",
"372.477 213.055 OFFCURVE",
"380.862 313.678 CURVE SMOOTH",
"396.969 504.95 LINE SMOOTH",
"399.069 535.238 OFFCURVE",
"376.589 561.36 OFFCURVE",
"345.919 562.926 CURVE SMOOTH",
"282.781 564.996 LINE SMOOTH",
"252.972 565.31 OFFCURVE",
"231.171 547.667 OFFCURVE",
"226.7 519.842 CURVE SMOOTH",
"200.369 327.423 LINE SMOOTH",
"185.173 219.024 OFFCURVE",
"158.712 196 OFFCURVE",
"40 196 CURVE SMOOTH",
"0 196 LINE SMOOTH",
"-155.865 196 OFFCURVE",
"-155.865 -40 OFFCURVE",
"0 -40 CURVE SMOOTH",
"40 -40 LINE SMOOTH",
"126.714 -40 OFFCURVE",
"207.927 -9.727 OFFCURVE",
"270.044 45.116 CURVE",
"380.784 -14.969 OFFCURVE",
"539.416 -47.044 OFFCURVE",
"717.46 -44.997 CURVE SMOOTH"
);
},
{
closed = 1;
nodes = (
"740.219 405.751 OFFCURVE",
"862.523 484 OFFCURVE",
"993 484 CURVE SMOOTH",
"1164.092 484 OFFCURVE",
"1273.753 342.229 OFFCURVE",
"1307.046 280.489 CURVE",
"1301.692 289.937 OFFCURVE",
"1306.991 307.642 OFFCURVE",
"1316.574 312.966 CURVE",
"1095.607 192.044 OFFCURVE",
"783.801 173.837 OFFCURVE",
"563.447 202.314 CURVE"
);
}
);
width = 1557;
}
);
unicode = FEBB;
},
{
glyphname = "tah-ar";
lastChange = "2016-01-29 16:26:51 +0000";
layers = (
{
anchors = (
{
name = bottom;
position = "{692, -170}";
},
{
name = top;
position = "{1065, 885}";
}
);
layerId = "3D7C20C2-9735-4AE4-B4D3-DDFDA9BF3443";
name = Regular;
paths = (
{
closed = 1;
nodes = (
"628 -27 OFFCURVE",
"1135 -29 OFFCURVE",
"1380 209 CURVE SMOOTH",
"1564 390 OFFCURVE",
"1347 733 OFFCURVE",
"1085 734 CURVE SMOOTH",
"922 735 OFFCURVE",
"741 607 OFFCURVE",
"573 421 CURVE",
"599 505 OFFCURVE",
"603 600 OFFCURVE",
"599 734 CURVE SMOOTH",
"582 1314 LINE",
"582 1331 OFFCURVE",
"565 1340 OFFCURVE",
"551 1329 CURVE SMOOTH",
"437 1244 LINE",
"434 1242 OFFCURVE",
"431 1238 OFFCURVE",
"431 1233 CURVE",
"483 382 OFFCURVE",
"526 362 OFFCURVE",
"344 170 CURVE SMOOTH",
"341 167 OFFCURVE",
"338 166 OFFCURVE",
"334 166 CURVE",
"169 183 LINE SMOOTH",
"157 184 OFFCURVE",
"147 174 OFFCURVE",
"151 161 CURVE",
"182 31 OFFCURVE",
"214 -4 OFFCURVE",
"328 -10 CURVE SMOOTH"
);
},
{
closed = 1;
nodes = (
"757 482 OFFCURVE",
"860 563 OFFCURVE",
"1010 563 CURVE SMOOTH",
"1211 563 OFFCURVE",
"1316 394 OFFCURVE",
"1341 321 CURVE SMOOTH",
"1343 315 OFFCURVE",
"1340 308 OFFCURVE",
"1333 305 CURVE",
"1078 177 OFFCURVE",
"751 145 OFFCURVE",
"445 159 CURVE"
);
}
);
width = 1568;
},
{
anchors = (
{
name = bottom;
position = "{692, -170}";
},
{
name = top;
position = "{1065, 885}";
}
);
layerId = "BE58D163-656C-4DD5-ACF8-D2DBE947AA26";
name = Bold;
paths = (
{
closed = 1;
nodes = (
"852.839 -79.805 OFFCURVE",
"1215.015 -7.037 OFFCURVE",
"1407.871 180.309 CURVE SMOOTH",
"1610.824 379.952 OFFCURVE",
"1394.812 772.818 OFFCURVE",
"1085.153 774 CURVE SMOOTH",
"949.341 774.833 OFFCURVE",
"796.055 695.294 OFFCURVE",
"636.039 543.235 CURVE",
"640.525 595.522 OFFCURVE",
"641.308 657.277 OFFCURVE",
"638.982 735.193 CURVE SMOOTH",
"621.921 1317.265 LINE SMOOTH",
"619.63 1364.642 OFFCURVE",
"567.66 1390.319 OFFCURVE",
"528.593 1362.188 CURVE SMOOTH",
"411.559 1274.926 LINE SMOOTH",
"398.381 1264.581 OFFCURVE",
"390.484 1248.127 OFFCURVE",
"391.025 1231.376 CURVE SMOOTH",
"445.761 335.268 OFFCURVE",
"476.034 367.423 OFFCURVE",
"316.303 198.883 CURVE",
"320.728 202.874 OFFCURVE",
"328.325 206 OFFCURVE",
"334 206 CURVE",
"338.1 205.789 LINE",
"173.1 222.789 LINE",
"172.322 222.862 LINE SMOOTH",
"133.91 226.063 OFFCURVE",
"103.987 192.589 OFFCURVE",
"111.187 155.547 CURVE",
"146.948 2.98 OFFCURVE",
"193.943 -43 OFFCURVE",
"325.898 -49.945 CURVE SMOOTH"
);
},
{
closed = 1;
nodes = (
"803.017 467.529 OFFCURVE",
"889.033 523 OFFCURVE",
"1010 523 CURVE SMOOTH",
"1188.76 523 OFFCURVE",
"1279.628 376.746 OFFCURVE",
"1303.158 308.04 CURVE",
"1299.046 320.371 OFFCURVE",
"1303.74 333.746 OFFCURVE",
"1313.987 340.144 CURVE",
"1115.651 240.96 OFFCURVE",
"850.375 191.69 OFFCURVE",
"537.004 196.225 CURVE"
);
}
);
width = 1568;
}
);
unicode = 0637;
},
{
glyphname = "tah-ar.fina";
lastChange = "2016-01-29 16:26:50 +0000";
layers = (
{
anchors = (
{
name = bottom;
position = "{692, -170}";
},
{
name = top;
position = "{1065, 885}";
}
);
layerId = "3D7C20C2-9735-4AE4-B4D3-DDFDA9BF3443";
name = Regular;
paths = (
{
closed = 1;
nodes = (
"561 -13 OFFCURVE",
"919 -17 OFFCURVE",
"1182 84 CURVE",
"1189 86 OFFCURVE",
"1195 85 OFFCURVE",
"1199 81 CURVE SMOOTH",
"1263 15 OFFCURVE",
"1413 0 OFFCURVE",
"1562 0 CURVE SMOOTH",
"1596 0 LINE SMOOTH",
"1600 0 OFFCURVE",
"1603 2 OFFCURVE",
"1606 5 CURVE",
"1643 53 OFFCURVE",
"1643 103 OFFCURVE",
"1606 151 CURVE",
"1603 154 OFFCURVE",
"1600 156 OFFCURVE",
"1596 156 CURVE SMOOTH",
"1562 156 LINE SMOOTH",
"1510 156 OFFCURVE",
"1408 161 OFFCURVE",
"1337 172 CURVE",
"1352 184 OFFCURVE",
"1367 196 OFFCURVE",
"1380 209 CURVE SMOOTH",
"1564 390 OFFCURVE",
"1347 716 OFFCURVE",
"1085 734 CURVE SMOOTH",
"922 745 OFFCURVE",
"741 617 OFFCURVE",
"573 431 CURVE",
"599 515 OFFCURVE",
"604 610 OFFCURVE",
"599 744 CURVE SMOOTH",
"578 1321 LINE SMOOTH",
"577 1337 OFFCURVE",
"561 1345 OFFCURVE",
"548 1336 CURVE SMOOTH",
"434 1256 LINE",
"430 1254 OFFCURVE",
"428 1249 OFFCURVE",
"428 1245 CURVE",
"481 379 OFFCURVE",
"520 365 OFFCURVE",
"344 180 CURVE SMOOTH",
"341 177 OFFCURVE",
"338 176 OFFCURVE",
"334 176 CURVE",
"169 193 LINE SMOOTH",
"157 194 OFFCURVE",
"147 184 OFFCURVE",
"151 171 CURVE",
"182 41 OFFCURVE",
"214 6 OFFCURVE",
"328 0 CURVE SMOOTH"
);
},
{
closed = 1;
nodes = (
"757 492 OFFCURVE",
"860 573 OFFCURVE",
"1010 563 CURVE SMOOTH",
"1211 550 OFFCURVE",
"1316 392 OFFCURVE",
"1341 321 CURVE SMOOTH",
"1343 315 OFFCURVE",
"1340 308 OFFCURVE",
"1333 305 CURVE",
"1078 177 OFFCURVE",
"751 155 OFFCURVE",
"445 169 CURVE"
);
}
);
width = 1602;
},
{
anchors = (
{
name = bottom;
position = "{692, -170}";
},
{
name = top;
position = "{1065, 885}";
}
);
layerId = "BE58D163-656C-4DD5-ACF8-D2DBE947AA26";
name = Bold;
paths = (
{
closed = 1;
nodes = (
"558.716 -52.935 OFFCURVE",
"923.238 -57.05 OFFCURVE",
"1193.038 45.476 CURVE",
"1186.328 43.617 OFFCURVE",
"1176.165 47.266 OFFCURVE",
"1170.716 52.716 CURVE SMOOTH",
"1170.284 53.154 LINE",
"1232.584 -11.093 OFFCURVE",
"1359.07 -40 OFFCURVE",
"1562 -40 CURVE SMOOTH",
"1596 -40 LINE SMOOTH",
"1610.796 -40 OFFCURVE",
"1625.588 -33.008 OFFCURVE",
"1636.411 -21.05 CURVE",
"1686.115 42.18 OFFCURVE",
"1686.115 113.82 OFFCURVE",
"1636.411 177.049 CURVE",
"1625.588 189.008 OFFCURVE",
"1610.796 196 OFFCURVE",
"1596 196 CURVE SMOOTH",
"1562 196 LINE SMOOTH",
"1525.681 196 OFFCURVE",
"1465.087 198.457 OFFCURVE",
"1408.319 203.725 CURVE",
"1408.284 180.716 LINE",
"1408.284 180.716 OFFCURVE",
"1408.284 180.716 OFFCURVE",
"1408.284 180.716 CURVE",
"1607.146 376.334 OFFCURVE",
"1401.671 752.338 OFFCURVE",
"1087.742 773.906 CURVE SMOOTH",
"952.009 783.066 OFFCURVE",
"798.754 707.377 OFFCURVE",
"636.422 553.535 CURVE",
"641.15 606.867 OFFCURVE",
"641.829 668.932 OFFCURVE",
"638.972 745.491 CURVE SMOOTH",
"617.959 1322.862 LINE SMOOTH",
"615.43 1370.436 OFFCURVE",
"564.117 1395.808 OFFCURVE",
"525.232 1368.888 CURVE SMOOTH",
"407.967 1286.598 LINE",
"395.25 1276.58 OFFCURVE",
"387.502 1260.25 OFFCURVE",
"388.024 1243.394 CURVE SMOOTH",
"444.282 323.874 OFFCURVE",
"468.894 369.313 OFFCURVE",
"315.02 207.571 CURVE",
"315.716 208.284 LINE SMOOTH",
"320.001 212.57 OFFCURVE",
"328.055 216 OFFCURVE",
"334 216 CURVE",
"338.1 215.789 LINE",
"173.1 232.789 LINE",
"172.322 232.862 LINE SMOOTH",
"133.91 236.063 OFFCURVE",
"103.987 202.589 OFFCURVE",
"111.187 165.547 CURVE",
"146.948 12.98 OFFCURVE",
"193.943 -33 OFFCURVE",
"325.898 -39.945 CURVE SMOOTH"
);
},
{
closed = 1;
nodes = (
"804.041 478.451 OFFCURVE",
"888.511 531.01 OFFCURVE",
"1007.339 523.089 CURVE SMOOTH",
"1188.65 511.362 OFFCURVE",
"1279.926 374.013 OFFCURVE",
"1303.271 307.715 CURVE",
"1303.053 308.351 LINE SMOOTH",
"1299.045 320.375 OFFCURVE",
"1303.743 333.754 OFFCURVE",
"1313.997 340.15 CURVE",
"1121.19 243.749 OFFCURVE",
"864.81 199.48 OFFCURVE",
"536.782 205.985 CURVE"
);
}
);
width = 1602;
}
);
unicode = FEC2;
},
{
glyphname = "tah-ar.medi";
lastChange = "2016-01-29 16:26:50 +0000";
layers = (
{
anchors = (
{
name = bottom;
position = "{600, -150}";
},
{
name = top;
position = "{954, 884}";
}
);
layerId = "3D7C20C2-9735-4AE4-B4D3-DDFDA9BF3443";
name = Regular;
paths = (
{
closed = 1;
nodes = (
"556 -4 OFFCURVE",
"841 1 OFFCURVE",
"1059 83 CURVE",
"1065 85 OFFCURVE",
"1070 83 OFFCURVE",
"1074 79 CURVE SMOOTH",
"1139 14 OFFCURVE",
"1287 0 OFFCURVE",
"1436 0 CURVE SMOOTH",
"1476 0 LINE",
"1518 52 OFFCURVE",
"1518 104 OFFCURVE",
"1476 156 CURVE",
"1436 156 LINE SMOOTH",
"1387 156 OFFCURVE",
"1293 161 OFFCURVE",
"1223 171 CURVE",
"1239 183 OFFCURVE",
"1254 195 OFFCURVE",
"1268 209 CURVE SMOOTH",
"1452 390 OFFCURVE",
"1235 733 OFFCURVE",
"973 734 CURVE SMOOTH",
"810 735 OFFCURVE",
"629 607 OFFCURVE",
"461 421 CURVE",
"487 505 OFFCURVE",
"491 600 OFFCURVE",
"487 734 CURVE SMOOTH",
"470 1317 LINE",
"470 1333 OFFCURVE",
"454 1342 OFFCURVE",
"440 1332 CURVE SMOOTH",
"333 1252 LINE SMOOTH",
"329 1249 OFFCURVE",
"327 1245 OFFCURVE",
"327 1241 CURVE",
"360 399 OFFCURVE",
"408 368 OFFCURVE",
"210 160 CURVE SMOOTH",
"207 157 OFFCURVE",
"204 156 OFFCURVE",
"201 156 CURVE SMOOTH",
"0 156 LINE SMOOTH",
"-103 156 OFFCURVE",
"-103 0 OFFCURVE",
"0 0 CURVE SMOOTH",
"320 -1 LINE SMOOTH"
);
},
{
closed = 1;
nodes = (
"645 482 OFFCURVE",
"748 563 OFFCURVE",
"898 563 CURVE SMOOTH",
"1099 563 OFFCURVE",
"1204 394 OFFCURVE",
"1229 321 CURVE SMOOTH",
"1231 315 OFFCURVE",
"1228 308 OFFCURVE",
"1221 305 CURVE",
"940 166 OFFCURVE",
"639 165 OFFCURVE",
"333 159 CURVE"
);
}
);
width = 1476;
},
{
anchors = (
{
name = bottom;
position = "{600, -150}";
},
{
name = top;
position = "{954, 884}";
}
);
layerId = "BE58D163-656C-4DD5-ACF8-D2DBE947AA26";
name = Bold;
paths = (
{
closed = 1;
nodes = (
"556.097 -44.004 OFFCURVE",
"848.613 -38.873 OFFCURVE",
"1073.083 45.561 CURVE",
"1071.649 45.053 LINE SMOOTH",
"1063.136 42.215 OFFCURVE",
"1051.875 44.556 OFFCURVE",
"1045.716 50.716 CURVE",
"1108.774 -12.343 OFFCURVE",
"1232.74 -40 OFFCURVE",
"1436 -40 CURVE SMOOTH",
"1494.117 -40 LINE",
"1565.319 35.533 OFFCURVE",
"1565.319 120.467 OFFCURVE",
"1494.117 196 CURVE",
"1436 196 LINE SMOOTH",
"1402.831 196 OFFCURVE",
"1348.967 198.322 OFFCURVE",
"1296.32 202.981 CURVE",
"1296.284 180.716 LINE",
"1296.284 180.716 OFFCURVE",
"1296.284 180.716 OFFCURVE",
"1296.284 180.716 CURVE",
"1498.824 379.952 OFFCURVE",
"1282.812 772.818 OFFCURVE",
"973.153 774 CURVE SMOOTH",
"837.341 774.833 OFFCURVE",
"684.055 695.294 OFFCURVE",
"524.039 543.235 CURVE",
"528.525 595.522 OFFCURVE",
"529.308 657.277 OFFCURVE",
"526.982 735.193 CURVE SMOOTH",
"509.926 1320.126 LINE SMOOTH",
"507.705 1366.708 OFFCURVE",
"456.037 1392.611 OFFCURVE",
"416.75 1364.549 CURVE SMOOTH",
"416.048 1364.036 LINE",
"309.048 1284.036 LINE SMOOTH",
"295.126 1273.595 OFFCURVE",
"286.641 1256.761 OFFCURVE",
"287.011 1239.939 CURVE SMOOTH",
"321.543 358.473 OFFCURVE",
"359.596 375.166 OFFCURVE",
"181.028 187.579 CURVE",
"181.716 188.284 LINE SMOOTH",
"186.245 192.813 OFFCURVE",
"194.349 196 OFFCURVE",
"201 196 CURVE",
"0 196 LINE SMOOTH",
"-155.865 196 OFFCURVE",
"-155.865 -40 OFFCURVE",
"0 -40 CURVE SMOOTH",
"319.875 -41 LINE SMOOTH"
);
},
{
closed = 1;
nodes = (
"692.012 468.168 OFFCURVE",
"777.732 523 OFFCURVE",
"898 523 CURVE SMOOTH",
"1076.76 523 OFFCURVE",
"1167.628 376.746 OFFCURVE",
"1191.158 308.04 CURVE",
"1187.008 320.483 OFFCURVE",
"1191.828 333.995 OFFCURVE",
"1202.282 340.311 CURVE",
"958.914 220.292 OFFCURVE",
"700.156 206.716 OFFCURVE",
"429.599 200.908 CURVE"
);
}
);
width = 1476;
}
);
unicode = FEC4;
},
{
glyphname = "tah-ar.init";
lastChange = "2016-01-29 16:26:50 +0000";
layers = (
{
anchors = (
{
name = bottom;
position = "{600, -150}";
},
{
name = top;
position = "{954, 884}";
}
);
layerId = "3D7C20C2-9735-4AE4-B4D3-DDFDA9BF3443";
name = Regular;
paths = (
{
closed = 1;
nodes = (
"320 0 LINE SMOOTH",
"643 0 OFFCURVE",
"1058 5 OFFCURVE",
"1268 209 CURVE SMOOTH",
"1452 390 OFFCURVE",
"1235 733 OFFCURVE",
"973 734 CURVE SMOOTH",
"810 735 OFFCURVE",
"629 607 OFFCURVE",
"461 421 CURVE",
"487 505 OFFCURVE",
"491 600 OFFCURVE",
"487 734 CURVE SMOOTH",
"470 1317 LINE",
"470 1333 OFFCURVE",
"454 1342 OFFCURVE",
"440 1332 CURVE SMOOTH",
"336 1257 LINE SMOOTH",
"332 1254 OFFCURVE",
"330 1250 OFFCURVE",
"330 1246 CURVE SMOOTH",
"358 393 OFFCURVE",
"395 356 OFFCURVE",
"210 160 CURVE SMOOTH",
"207 157 OFFCURVE",
"204 156 OFFCURVE",
"201 156 CURVE SMOOTH",
"0 156 LINE SMOOTH",
"-103 156 OFFCURVE",
"-103 0 OFFCURVE",
"0 0 CURVE SMOOTH"
);
},
{
closed = 1;
nodes = (
"645 482 OFFCURVE",
"748 563 OFFCURVE",
"898 563 CURVE SMOOTH",
"1099 563 OFFCURVE",
"1204 394 OFFCURVE",
"1229 321 CURVE SMOOTH",
"1231 315 OFFCURVE",
"1228 308 OFFCURVE",
"1221 305 CURVE",
"940 166 OFFCURVE",
"639 165 OFFCURVE",
"333 159 CURVE"
);
}
);
width = 1456;
},
{
anchors = (
{
name = bottom;
position = "{600, -150}";
},
{
name = top;
position = "{954, 884}";
}
);
layerId = "BE58D163-656C-4DD5-ACF8-D2DBE947AA26";
name = Bold;
paths = (
{
closed = 1;
nodes = (
"320 -40 LINE SMOOTH",
"643.241 -40 OFFCURVE",
"1074.431 -34.805 OFFCURVE",
"1295.871 180.309 CURVE SMOOTH",
"1498.824 379.952 OFFCURVE",
"1282.812 772.818 OFFCURVE",
"973.153 774 CURVE SMOOTH",
"837.341 774.833 OFFCURVE",
"684.055 695.294 OFFCURVE",
"524.039 543.235 CURVE",
"528.525 595.522 OFFCURVE",
"529.308 657.277 OFFCURVE",
"526.982 735.193 CURVE SMOOTH",
"509.926 1320.126 LINE SMOOTH",
"507.705 1366.708 OFFCURVE",
"456.037 1392.611 OFFCURVE",
"416.75 1364.549 CURVE SMOOTH",
"312.603 1289.444 LINE",
"312 1289 LINE SMOOTH",
"298.174 1278.63 OFFCURVE",
"289.699 1261.876 OFFCURVE",
"290.008 1245.111 CURVE SMOOTH",
"318.927 363.801 OFFCURVE",
"348.647 365.166 OFFCURVE",
"180.911 187.456 CURVE",
"181.716 188.284 LINE SMOOTH",
"186.245 192.813 OFFCURVE",
"194.349 196 OFFCURVE",
"201 196 CURVE",
"0 196 LINE SMOOTH",
"-155.865 196 OFFCURVE",
"-155.865 -40 OFFCURVE",
"0 -40 CURVE SMOOTH"
);
},
{
closed = 1;
nodes = (
"692.012 468.168 OFFCURVE",
"777.732 523 OFFCURVE",
"898 523 CURVE SMOOTH",
"1076.76 523 OFFCURVE",
"1167.628 376.746 OFFCURVE",
"1191.158 308.04 CURVE",
"1187.008 320.483 OFFCURVE",
"1191.828 333.995 OFFCURVE",
"1202.282 340.311 CURVE",
"958.914 220.292 OFFCURVE",
"700.156 206.716 OFFCURVE",
"429.599 200.908 CURVE"
);
}
);
width = 1456;
}
);
unicode = FEC3;
},
{
glyphname = "ain-ar";
lastChange = "2016-01-29 16:26:50 +0000";
layers = (
{
anchors = (
{
name = bottom;
position = "{742, -783}";
},
{
name = top;
position = "{515, 1200}";
}
);
layerId = "3D7C20C2-9735-4AE4-B4D3-DDFDA9BF3443";
name = Regular;
paths = (
{
closed = 1;
nodes = (
"887 -631 OFFCURVE",
"1060 -607 OFFCURVE",
"1192 -577 CURVE",
"1206 -573 OFFCURVE",
"1210 -563 OFFCURVE",
"1216 -541 CURVE SMOOTH",
"1244 -432 LINE SMOOTH",
"1247 -421 OFFCURVE",
"1242 -415 OFFCURVE",
"1230 -417 CURVE SMOOTH",
"926 -460 OFFCURVE",
"394 -509 OFFCURVE",
"312 -181 CURVE",
"305 -143 OFFCURVE",
"304 -127 OFFCURVE",
"308 -96 CURVE SMOOTH",
"347 203 OFFCURVE",
"685 361 OFFCURVE",
"976 445 CURVE",
"984 448 OFFCURVE",
"987 454 OFFCURVE",
"988 462 CURVE",
"1000 598 LINE SMOOTH",
"1001 610 OFFCURVE",
"993 614 OFFCURVE",
"983 611 CURVE SMOOTH",
"819 561 OFFCURVE",
"703 508 OFFCURVE",
"556 438 CURVE SMOOTH",
"525 423 OFFCURVE",
"498 420 OFFCURVE",
"472 445 CURVE",
"363 534 OFFCURVE",
"278 644 OFFCURVE",
"263 766 CURVE",
"263 774 OFFCURVE",
"264 778 OFFCURVE",
"270 785 CURVE",
"389 899 OFFCURVE",
"545 925 OFFCURVE",
"761 855 CURVE SMOOTH",
"771 852 OFFCURVE",
"781 858 OFFCURVE",
"778 868 CURVE",
"750 978 LINE SMOOTH",
"748 987 OFFCURVE",
"748 991 OFFCURVE",
"739 995 CURVE",
"471 1127 OFFCURVE",
"139 994 OFFCURVE",
"150 712 CURVE",
"161 566 OFFCURVE",
"246 444 OFFCURVE",
"391 314 CURVE",
"284 190 OFFCURVE",
"214 33 OFFCURVE",
"211 -135 CURVE SMOOTH",
"206 -528 OFFCURVE",
"457 -638 OFFCURVE",
"772 -633 CURVE SMOOTH"
);
}
);
width = 1121;
},
{
anchors = (
{
name = bottom;
position = "{742, -783}";
},
{
name = top;
position = "{515, 1200}";
}
);
layerId = "BE58D163-656C-4DD5-ACF8-D2DBE947AA26";
name = Bold;
paths = (
{
closed = 1;
nodes = (
"886.711 -671.011 OFFCURVE",
"1062.033 -647.631 OFFCURVE",
"1201.794 -615.794 CURVE",
"1230.053 -608.122 OFFCURVE",
"1243.974 -590.451 OFFCURVE",
"1254.591 -551.525 CURVE SMOOTH",
"1254.742 -550.952 LINE",
"1282.742 -441.952 LINE",
"1282.591 -442.525 LINE",
"1293.253 -403.429 OFFCURVE",
"1264.204 -370.748 OFFCURVE",
"1223.424 -377.544 CURVE",
"1224.398 -377.394 LINE",
"697.387 -451.939 OFFCURVE",
"406.128 -388.564 OFFCURVE",
"351.105 -172.486 CURVE",
"344.799 -138.055 OFFCURVE",
"344.328 -127.026 OFFCURVE",
"347.671 -101.119 CURVE SMOOTH",
"376.577 120.491 OFFCURVE",
"596.066 293.911 OFFCURVE",
"988.246 406.902 CURVE",
"1010.748 414.589 OFFCURVE",
"1024.986 433.181 OFFCURVE",
"1027.793 457.893 CURVE SMOOTH",
"1039.845 594.484 LINE SMOOTH",
"1043.134 633.946 OFFCURVE",
"1009.541 660.723 OFFCURVE",
"971.506 649.313 CURVE SMOOTH",
"804.794 598.486 OFFCURVE",
"686.089 544.251 OFFCURVE",
"538.803 474.114 CURVE SMOOTH",
"521.876 465.925 OFFCURVE",
"513.795 464.522 OFFCURVE",
"506.473 468.587 CURVE",
"385.644 564.79 OFFCURVE",
"316.682 666.654 OFFCURVE",
"303.042 767.724 CURVE",
"302.87 768.315 OFFCURVE",
"302.341 759.412 OFFCURVE",
"299.486 758.076 CURVE",
"409.344 861.764 OFFCURVE",
"551.192 880.945 OFFCURVE",
"748.668 816.948 CURVE SMOOTH",
"749.506 816.687 LINE SMOOTH",
"789.555 804.672 OFFCURVE",
"826.141 837.291 OFFCURVE",
"817.253 875.947 CURVE SMOOTH",
"787.328 993.507 LINE SMOOTH",
"781.868 1012.677 OFFCURVE",
"772.787 1023.538 OFFCURVE",
"756.063 1031.184 CURVE SMOOTH",
"447.601 1182.659 OFFCURVE",
"97.727 1011.127 OFFCURVE",
"110.059 709.713 CURVE SMOOTH",
"120.233 571.855 OFFCURVE",
"190.706 447.29 OFFCURVE",
"336.052 310.18 CURVE",
"232.222 177.974 OFFCURVE",
"173.786 21.368 OFFCURVE",
"171.006 -134.286 CURVE SMOOTH",
"166.386 -497.411 OFFCURVE",
"370.52 -679.378 OFFCURVE",
"772.635 -672.995 CURVE SMOOTH"
);
}
);
width = 1121;
}
);
unicode = 0639;
},
{
glyphname = "ain-ar.fina";
lastChange = "2016-01-29 16:26:51 +0000";
layers = (
{
anchors = (
{
name = bottom;
position = "{694, -785}";
},
{
name = top;
position = "{625, 1121}";
}
);
layerId = "3D7C20C2-9735-4AE4-B4D3-DDFDA9BF3443";
name = Regular;
paths = (
{
closed = 1;
nodes = (
"829 -631 OFFCURVE",
"1002 -607 OFFCURVE",
"1134 -577 CURVE",
"1148 -573 OFFCURVE",
"1152 -563 OFFCURVE",
"1158 -541 CURVE SMOOTH",
"1186 -432 LINE SMOOTH",
"1189 -421 OFFCURVE",
"1184 -415 OFFCURVE",
"1172 -417 CURVE SMOOTH",
"801 -467 OFFCURVE",
"336 -509 OFFCURVE",
"254 -181 CURVE",
"247 -143 OFFCURVE",
"246 -127 OFFCURVE",
"250 -96 CURVE SMOOTH",
"271 53 OFFCURVE",
"398 196 OFFCURVE",
"544 287 CURVE",
"552 293 OFFCURVE",
"558 291 OFFCURVE",
"565 283 CURVE SMOOTH",
"803 9 OFFCURVE",
"960 0 OFFCURVE",
"1109 0 CURVE SMOOTH",
"1132 0 LINE",
"1174 52 OFFCURVE",
"1174 104 OFFCURVE",
"1132 156 CURVE",
"1104 156 LINE SMOOTH",
"887 156 OFFCURVE",
"781 253 OFFCURVE",
"674 365 CURVE SMOOTH",
"666 373 OFFCURVE",
"668 380 OFFCURVE",
"676 386 CURVE",
"808 474 OFFCURVE",
"1015 567 OFFCURVE",
"1024 706 CURVE SMOOTH",
"1037 881 OFFCURVE",
"811 968 OFFCURVE",
"623 967 CURVE SMOOTH",
"494 966 OFFCURVE",
"330 914 OFFCURVE",
"237 873 CURVE SMOOTH",
"230 870 OFFCURVE",
"227 865 OFFCURVE",
"224 858 CURVE SMOOTH",
"152 679 LINE",
"148 670 OFFCURVE",
"152 665 OFFCURVE",
"160 660 CURVE",
"272 582 OFFCURVE",
"365 508 OFFCURVE",
"458 422 CURVE",
"466 414 OFFCURVE",
"465 407 OFFCURVE",
"457 401 CURVE SMOOTH",
"340 311 OFFCURVE",
"160 123 OFFCURVE",
"153 -135 CURVE SMOOTH",
"142 -528 OFFCURVE",
"399 -638 OFFCURVE",
"714 -633 CURVE SMOOTH"
);
},
{
closed = 1;
nodes = (
"583 491 OFFCURVE",
"576 492 OFFCURVE",
"570 499 CURVE",
"429 642 OFFCURVE",
"306 737 OFFCURVE",
"294 745 CURVE",
"294 745 OFFCURVE",
"302 749 OFFCURVE",
"314 753 CURVE",
"491 821 OFFCURVE",
"779 863 OFFCURVE",
"920 700 CURVE",
"926 692 OFFCURVE",
"925 684 OFFCURVE",
"916 679 CURVE SMOOTH",
"591 495 LINE"
);
}
);
width = 1132;
},
{
anchors = (
{
name = bottom;
position = "{694, -785}";
},
{
name = top;
position = "{625, 1121}";
}
);
layerId = "BE58D163-656C-4DD5-ACF8-D2DBE947AA26";
name = Bold;
paths = (
{
closed = 1;
nodes = (
"828.711 -671.011 OFFCURVE",
"1004.033 -647.631 OFFCURVE",
"1143.794 -615.794 CURVE",
"1172.053 -608.122 OFFCURVE",
"1185.974 -590.451 OFFCURVE",
"1196.591 -551.525 CURVE SMOOTH",
"1196.742 -550.952 LINE",
"1224.742 -441.952 LINE",
"1224.591 -442.525 LINE",
"1235.199 -403.626 OFFCURVE",
"1206.496 -371.077 OFFCURVE",
"1166.04 -377.443 CURVE SMOOTH",
"796.549 -427.217 OFFCURVE",
"367.621 -465.814 OFFCURVE",
"293.106 -172.491 CURVE",
"286.799 -138.056 OFFCURVE",
"286.328 -127.028 OFFCURVE",
"289.671 -101.119 CURVE SMOOTH",
"307.261 23.662 OFFCURVE",
"414.326 160.724 OFFCURVE",
"570.427 256.746 CURVE",
"563.034 248.5 OFFCURVE",
"541.76 248.816 OFFCURVE",
"534.897 256.66 CURVE",
"783.866 -29.969 OFFCURVE",
"958.854 -40 OFFCURVE",
"1109 -40 CURVE SMOOTH",
"1150.117 -40 LINE",
"1221.319 35.533 OFFCURVE",
"1221.319 120.467 OFFCURVE",
"1150.117 196 CURVE",
"1104 196 LINE SMOOTH",
"902.54 196 OFFCURVE",
"808.995 281.602 OFFCURVE",
"702.922 392.631 CURVE SMOOTH",
"702.284 393.284 LINE",
"711.424 384.144 OFFCURVE",
"710.861 364.231 OFFCURVE",
"701.667 355.211 CURVE",
"831.558 440.746 OFFCURVE",
"1053.457 541.881 OFFCURVE",
"1063.916 703.415 CURVE SMOOTH",
"1076.866 877.715 OFFCURVE",
"881.868 1008.378 OFFCURVE",
"622.787 1007 CURVE SMOOTH",
"487.659 1005.952 OFFCURVE",
"315.846 951.475 OFFCURVE",
"220.864 909.601 CURVE SMOOTH",
"206.138 903.292 OFFCURVE",
"194.601 890.945 OFFCURVE",
"187.234 873.757 CURVE SMOOTH",
"186.89 872.927 LINE",
"114.041 691.817 LINE SMOOTH",
"104.662 666.895 OFFCURVE",
"113.751 642.246 OFFCURVE",
"137.816 626.705 CURVE",
"248.927 549.287 OFFCURVE",
"339.316 477.103 OFFCURVE",
"428.924 394.48 CURVE",
"420.392 404.333 OFFCURVE",
"422.509 425.132 OFFCURVE",
"433 433 CURVE",
"236.782 282.067 OFFCURVE",
"118.69 75.257 OFFCURVE",
"113.015 -133.915 CURVE SMOOTH",
"102.891 -495.616 OFFCURVE",
"309.661 -679.423 OFFCURVE",
"714.635 -672.995 CURVE SMOOTH"
);
},
{
closed = 1;
nodes = (
"573.111 530.777 LINE SMOOTH",
"582.506 535.474 OFFCURVE",
"597.585 531.346 OFFCURVE",
"602.695 522.281 CURVE",
"510.071 616.977 OFFCURVE",
"423.874 691.863 OFFCURVE",
"370.452 735.735 CURVE",
"326.649 715.053 LINE",
"326.649 715.053 OFFCURVE",
"326.649 715.053 OFFCURVE",
"326.649 715.03 CURVE",
"562.387 806.069 OFFCURVE",
"789.092 790.192 OFFCURVE",
"889.748 673.831 CURVE",
"888 676 LINE SMOOTH",
"879.85 686.867 OFFCURVE",
"884.002 706.982 OFFCURVE",
"896.574 713.966 CURVE",
"571.293 529.809 LINE"
);
}
);
width = 1132;
}
);
unicode = FECA;
},
{
glyphname = "ain-ar.medi";
lastChange = "2016-01-29 16:26:50 +0000";
layers = (
{
anchors = (
{
name = bottom;
position = "{530, -150}";
},
{
name = top;
position = "{572, 897}";
}
);
layerId = "3D7C20C2-9735-4AE4-B4D3-DDFDA9BF3443";
name = Regular;
paths = (
{
closed = 1;
nodes = (
"40 0 LINE SMOOTH",
"190 0 OFFCURVE",
"386 16 OFFCURVE",
"524 104 CURVE SMOOTH",
"532 109 OFFCURVE",
"538 108 OFFCURVE",
"545 103 CURVE",
"671 21 OFFCURVE",
"853 0 OFFCURVE",
"1020 0 CURVE SMOOTH",
"1060 0 LINE",
"1102 52 OFFCURVE",
"1102 104 OFFCURVE",
"1060 156 CURVE",
"1020 156 LINE SMOOTH",
"919 156 OFFCURVE",
"754 165 OFFCURVE",
"690 182 CURVE SMOOTH",
"676 186 OFFCURVE",
"674 194 OFFCURVE",
"684 201 CURVE SMOOTH",
"791 276 OFFCURVE",
"951 388 OFFCURVE",
"950 484 CURVE SMOOTH",
"949 662 OFFCURVE",
"731 746 OFFCURVE",
"572 745 CURVE SMOOTH",
"443 744 OFFCURVE",
"279 688 OFFCURVE",
"186 647 CURVE SMOOTH",
"179 644 OFFCURVE",
"175 639 OFFCURVE",
"173 632 CURVE",
"111 447 LINE SMOOTH",
"108 438 OFFCURVE",
"111 431 OFFCURVE",
"119 427 CURVE SMOOTH",
"217 375 OFFCURVE",
"326 302 OFFCURVE",
"428 213 CURVE SMOOTH",
"437 205 OFFCURVE",
"435 196 OFFCURVE",
"424 193 CURVE SMOOTH",
"317 167 OFFCURVE",
"172 156 OFFCURVE",
"40 156 CURVE SMOOTH",
"0 156 LINE SMOOTH",
"-103 156 OFFCURVE",
"-103 0 OFFCURVE",
"0 0 CURVE SMOOTH"
);
},
{
closed = 1;
nodes = (
"550 252 OFFCURVE",
"544 254 OFFCURVE",
"537 262 CURVE",
"412 395 OFFCURVE",
"248 498 OFFCURVE",
"233 508 CURVE",
"233 509 OFFCURVE",
"241 513 OFFCURVE",
"252 517 CURVE SMOOTH",
"335 550 OFFCURVE",
"458 591 OFFCURVE",
"556 590 CURVE SMOOTH",
"640 589 OFFCURVE",
"781 555 OFFCURVE",
"844 483 CURVE",
"850 475 OFFCURVE",
"848 468 OFFCURVE",
"840 462 CURVE SMOOTH",
"558 258 LINE SMOOTH"
);
}
);
width = 1060;
},
{
anchors = (
{
name = bottom;
position = "{530, -150}";
},
{
name = top;
position = "{572, 897}";
}
);
layerId = "BE58D163-656C-4DD5-ACF8-D2DBE947AA26";
name = Bold;
paths = (
{
closed = 1;
nodes = (
"40 -40 LINE SMOOTH",
"260.576 -40 OFFCURVE",
"429.504 -3.699 OFFCURVE",
"545.507 70.274 CURVE",
"539.187 66.322 OFFCURVE",
"527.326 66.4 OFFCURVE",
"521.671 70.485 CURVE",
"633.905 -3.236 OFFCURVE",
"801.262 -40 OFFCURVE",
"1020 -40 CURVE SMOOTH",
"1078.117 -40 LINE",
"1149.319 35.533 OFFCURVE",
"1149.319 120.467 OFFCURVE",
"1078.117 196 CURVE",
"1020 196 LINE SMOOTH",
"897.358 196 OFFCURVE",
"750.719 207.259 OFFCURVE",
"700.269 220.659 CURVE",
"700.989 220.461 LINE SMOOTH",
"718.887 215.347 OFFCURVE",
"723.678 179.948 OFFCURVE",
"706.938 168.231 CURVE",
"909.469 310.191 OFFCURVE",
"990.932 394.735 OFFCURVE",
"989.998 484.417 CURVE SMOOTH",
"989.038 655.335 OFFCURVE",
"802.404 786.45 OFFCURVE",
"571.748 785 CURVE SMOOTH",
"436.208 783.949 OFFCURVE",
"264.442 725.297 OFFCURVE",
"169.864 683.601 CURVE SMOOTH",
"154.373 676.964 OFFCURVE",
"141.912 663.629 OFFCURVE",
"135.954 647.338 CURVE SMOOTH",
"73.073 459.711 LINE SMOOTH",
"63.813 431.929 OFFCURVE",
"75.151 404.203 OFFCURVE",
"101.111 391.223 CURVE",
"100.251 391.666 LINE",
"203.306 336.984 OFFCURVE",
"308.829 263.897 OFFCURVE",
"401.702 182.86 CURVE",
"386.497 196.373 OFFCURVE",
"394.381 226.905 OFFCURVE",
"414.014 231.734 CURVE",
"320.32 209.047 OFFCURVE",
"184.778 196 OFFCURVE",
"40 196 CURVE SMOOTH",
"0 196 LINE SMOOTH",
"-155.865 196 OFFCURVE",
"-155.865 -40 OFFCURVE",
"0 -40 CURVE SMOOTH"
);
},
{
closed = 1;
nodes = (
"534 290 LINE",
"542.532 296.399 OFFCURVE",
"560.883 295.506 OFFCURVE",
"567.14 288.317 CURVE",
"458.994 403.723 OFFCURVE",
"322.512 497.003 OFFCURVE",
"271.47 529.028 CURVE",
"278.177 503.691 OFFCURVE",
"271.216 487.508 OFFCURVE",
"262.797 478.241 CURVE",
"380.8 525.517 OFFCURVE",
"483.445 550.738 OFFCURVE",
"555.592 550.002 CURVE SMOOTH",
"654.388 548.826 OFFCURVE",
"769.688 507.184 OFFCURVE",
"813.897 456.66 CURVE",
"812 459 LINE",
"804.717 468.71 OFFCURVE",
"806.529 486.897 OFFCURVE",
"816 494 CURVE SMOOTH",
"816.555 494.409 LINE",
"534.555 290.409 LINE"
);
}
);
width = 1060;
}
);
unicode = FECC;
},
{
glyphname = "ain-ar.init";
lastChange = "2016-01-29 16:26:50 +0000";
layers = (
{
anchors = (
{
name = bottom;
position = "{524, -140}";
},
{
name = top;
position = "{514, 1006}";
}
);
layerId = "3D7C20C2-9735-4AE4-B4D3-DDFDA9BF3443";
name = Regular;
paths = (
{
closed = 1;
nodes = (
"40 0 LINE SMOOTH",
"395 0 OFFCURVE",
"602 56 OFFCURVE",
"958 183 CURVE SMOOTH",
"966 186 OFFCURVE",
"970 191 OFFCURVE",
"972 199 CURVE SMOOTH",
"1001 333 LINE SMOOTH",
"1003 344 OFFCURVE",
"986 352 OFFCURVE",
"975 347 CURVE SMOOTH",
"823 282 OFFCURVE",
"672 232 OFFCURVE",
"516 200 CURVE SMOOTH",
"499 196 OFFCURVE",
"486 199 OFFCURVE",
"476 212 CURVE SMOOTH",
"368 350 OFFCURVE",
"313 466 OFFCURVE",
"283 594 CURVE SMOOTH",
"281 603 OFFCURVE",
"281 610 OFFCURVE",
"289 615 CURVE SMOOTH",
"435 713 OFFCURVE",
"607 712 OFFCURVE",
"789 637 CURVE SMOOTH",
"799 633 OFFCURVE",
"808 638 OFFCURVE",
"807 648 CURVE",
"791 758 LINE SMOOTH",
"790 767 OFFCURVE",
"790 772 OFFCURVE",
"782 776 CURVE",
"528 925 OFFCURVE",
"185 838 OFFCURVE",
"166 556 CURVE",
"164 452 OFFCURVE",
"215 327 OFFCURVE",
"325 169 CURVE",
"224 155 OFFCURVE",
"116 156 OFFCURVE",
"40 156 CURVE SMOOTH",
"0 156 LINE SMOOTH",
"-103 156 OFFCURVE",
"-103 0 OFFCURVE",
"0 0 CURVE SMOOTH"
);
}
);
width = 1121;
},
{
anchors = (
{
name = bottom;
position = "{524, -140}";
},
{
name = top;
position = "{514, 1006}";
}
);
layerId = "BE58D163-656C-4DD5-ACF8-D2DBE947AA26";
name = Bold;
paths = (
{
closed = 1;
nodes = (
"40 -40 LINE SMOOTH",
"400.315 -40 OFFCURVE",
"613.961 17.798 OFFCURVE",
"971.44 145.326 CURVE SMOOTH",
"972.045 145.547 LINE SMOOTH",
"991.859 152.977 OFFCURVE",
"1006.017 169.168 OFFCURVE",
"1010.989 190.05 CURVE SMOOTH",
"1040.187 324.965 LINE SMOOTH",
"1048.798 368.129 OFFCURVE",
"999.359 402.011 OFFCURVE",
"958.448 383.415 CURVE",
"959.272 383.778 LINE",
"802.063 316.551 OFFCURVE",
"654.157 269.173 OFFCURVE",
"507.962 239.184 CURVE SMOOTH",
"506.838 238.937 LINE SMOOTH",
"494.822 236.109 OFFCURVE",
"512.144 230.618 OFFCURVE",
"507.705 236.388 CURVE SMOOTH",
"407.575 364.334 OFFCURVE",
"352.32 473.525 OFFCURVE",
"321.945 603.128 CURVE",
"323.403 596.578 OFFCURVE",
"315.876 584.347 OFFCURVE",
"309.873 580.857 CURVE",
"438.025 667.571 OFFCURVE",
"593.458 674.317 OFFCURVE",
"773.76 600.017 CURVE SMOOTH",
"812.74 584.423 OFFCURVE",
"851.485 613.106 OFFCURVE",
"846.675 653.126 CURVE SMOOTH",
"828.722 776.553 LINE",
"826.046 787.381 OFFCURVE",
"819.342 801.495 OFFCURVE",
"801.307 811.047 CURVE",
"502.928 985.371 OFFCURVE",
"145.226 853.876 OFFCURVE",
"126.027 557.731 CURVE",
"123.813 457.546 OFFCURVE",
"166.21 340.812 OFFCURVE",
"255.075 201.673 CURVE",
"177.209 195.402 OFFCURVE",
"99.808 195.999 OFFCURVE",
"40 196 CURVE SMOOTH",
"0 196 LINE SMOOTH",
"-155.865 196 OFFCURVE",
"-155.865 -40 OFFCURVE",
"0 -40 CURVE SMOOTH"
);
}
);
width = 1121;
}
);
unicode = FECB;
},
{
glyphname = "dotlessfeh-ar";
lastChange = "2016-01-29 16:26:51 +0000";
layers = (
{
anchors = (
{
name = bottom;
position = "{737, -188}";
},
{
name = top;
position = "{1174, 1124}";
}
);
layerId = "3D7C20C2-9735-4AE4-B4D3-DDFDA9BF3443";
name = Regular;
paths = (
{
closed = 1;
nodes = (
"784 -41 OFFCURVE",
"1023 1 OFFCURVE",
"1201 47 CURVE SMOOTH",
"1468 117 OFFCURVE",
"1485 294 OFFCURVE",
"1485 440 CURVE",
"1470 696 OFFCURVE",
"1343 970 OFFCURVE",
"1178 970 CURVE SMOOTH",
"977 970 OFFCURVE",
"879 723 OFFCURVE",
"879 517 CURVE SMOOTH",
"879 251 OFFCURVE",
"1202 280 OFFCURVE",
"1359 356 CURVE SMOOTH",
"1373 363 OFFCURVE",
"1386 355 OFFCURVE",
"1387 339 CURVE SMOOTH",
"1390 257 LINE",
"1282 205 OFFCURVE",
"940 120 OFFCURVE",
"652 125 CURVE SMOOTH",
"417 129 OFFCURVE",
"224 194 OFFCURVE",
"243 395 CURVE SMOOTH",
"255 518 LINE SMOOTH",
"256 527 OFFCURVE",
"250 533 OFFCURVE",
"241 534 CURVE SMOOTH",
"186 539 LINE SMOOTH",
"177 540 OFFCURVE",
"170 534 OFFCURVE",
"169 525 CURVE SMOOTH",
"155 395 LINE SMOOTH",
"121 92 OFFCURVE",
"262 -27 OFFCURVE",
"579 -36 CURVE SMOOTH"
);
},
{
closed = 1;
nodes = (
"982 486 OFFCURVE",
"967 499 OFFCURVE",
"967 504 CURVE SMOOTH",
"969 672 OFFCURVE",
"1032 804 OFFCURVE",
"1143 804 CURVE SMOOTH",
"1242 804 OFFCURVE",
"1342 646 OFFCURVE",
"1372 485 CURVE",
"1374 478 OFFCURVE",
"1158 424 OFFCURVE",
"1011 476 CURVE SMOOTH"
);
}
);
width = 1605;
},
{
anchors = (
{
name = bottom;
position = "{737, -188}";
},
{
name = top;
position = "{1174, 1124}";
}
);
layerId = "BE58D163-656C-4DD5-ACF8-D2DBE947AA26";
name = Bold;
paths = (
{
closed = 1;
nodes = (
"787.003 -81.085 OFFCURVE",
"1031.479 -38.123 OFFCURVE",
"1211.008 8.272 CURVE SMOOTH",
"1505.798 85.558 OFFCURVE",
"1525.086 292.998 OFFCURVE",
"1525.005 440.981 CURVE",
"1507.198 751.868 OFFCURVE",
"1353.808 1010 OFFCURVE",
"1178 1010 CURVE SMOOTH",
"982.679 1010 OFFCURVE",
"839 796.155 OFFCURVE",
"839 517 CURVE SMOOTH",
"839 207.248 OFFCURVE",
"1212.853 240.814 OFFCURVE",
"1376.428 319.997 CURVE SMOOTH",
"1376.889 320.223 LINE",
"1364.989 314.273 OFFCURVE",
"1347.82 324.626 OFFCURVE",
"1347.078 336.505 CURVE SMOOTH",
"1347.027 337.538 LINE",
"1349.034 282.684 LINE",
"1224.537 232.264 OFFCURVE",
"916.744 160.41 OFFCURVE",
"652.694 164.994 CURVE SMOOTH",
"389.902 169.467 OFFCURVE",
"269.077 245.82 OFFCURVE",
"282.822 391.236 CURVE SMOOTH",
"294.811 514.116 LINE",
"294.755 513.583 LINE",
"298.152 544.155 OFFCURVE",
"276.596 570.291 OFFCURVE",
"245.417 573.755 CURVE SMOOTH",
"244.621 573.836 LINE",
"189.621 578.836 LINE",
"190.417 578.755 LINE",
"159.333 582.209 OFFCURVE",
"132.648 560.044 OFFCURVE",
"129.245 529.417 CURVE SMOOTH",
"115.23 399.283 LINE SMOOTH",
"79.708 82.724 OFFCURVE",
"225.731 -65.986 OFFCURVE",
"577.865 -75.984 CURVE SMOOTH"
);
},
{
closed = 1;
nodes = (
"985.349 527.157 OFFCURVE",
"1007 538.259 OFFCURVE",
"1007 504 CURVE",
"1008.875 661.258 OFFCURVE",
"1064.68 764 OFFCURVE",
"1143 764 CURVE SMOOTH",
"1212.809 764 OFFCURVE",
"1305.137 628.573 OFFCURVE",
"1333.041 475.698 CURVE",
"1305.849 564.818 OFFCURVE",
"1197.638 452.407 OFFCURVE",
"1024.34 513.71 CURVE SMOOTH"
);
}
);
width = 1605;
}
);
unicode = 06A1;
},
{
glyphname = "dotlessfeh-ar.fina";
lastChange = "2016-01-29 16:26:50 +0000";
layers = (
{
anchors = (
{
name = bottom;
position = "{737, -200}";
},
{
name = top;
position = "{1420, 1021}";
}
);
layerId = "3D7C20C2-9735-4AE4-B4D3-DDFDA9BF3443";
name = Regular;
paths = (
{
closed = 1;
nodes = (
"826 -50 OFFCURVE",
"1122 2 OFFCURVE",
"1318 75 CURVE SMOOTH",
"1324 77 OFFCURVE",
"1329 77 OFFCURVE",
"1336 74 CURVE",
"1450 31 OFFCURVE",
"1603 0 OFFCURVE",
"1766 0 CURVE SMOOTH",
"1806 0 LINE",
"1848 52 OFFCURVE",
"1848 104 OFFCURVE",
"1806 156 CURVE",
"1766 156 LINE SMOOTH",
"1663 156 OFFCURVE",
"1540 165 OFFCURVE",
"1540 165 CURVE SMOOTH",
"1540 165 OFFCURVE",
"1666 365 OFFCURVE",
"1666 458 CURVE SMOOTH",
"1667 705 OFFCURVE",
"1517 869 OFFCURVE",
"1420 871 CURVE SMOOTH",
"1251 875 OFFCURVE",
"1089 608 OFFCURVE",
"1091 371 CURVE SMOOTH",
"1092 299 OFFCURVE",
"1104 239 OFFCURVE",
"1136 171 CURVE",
"996 143 OFFCURVE",
"803 114 OFFCURVE",
"652 117 CURVE SMOOTH",
"417 121 OFFCURVE",
"224 186 OFFCURVE",
"243 387 CURVE SMOOTH",
"255 550 LINE",
"256 559 OFFCURVE",
"250 565 OFFCURVE",
"241 566 CURVE SMOOTH",
"186 571 LINE SMOOTH",
"177 572 OFFCURVE",
"171 566 OFFCURVE",
"170 557 CURVE SMOOTH",
"155 387 LINE SMOOTH",
"121 84 OFFCURVE",
"262 -36 OFFCURVE",
"579 -44 CURVE SMOOTH"
);
},
{
closed = 1;
nodes = (
"1258 246 OFFCURVE",
"1167 321 OFFCURVE",
"1177 441 CURVE SMOOTH",
"1185 535 OFFCURVE",
"1290 687 OFFCURVE",
"1385 687 CURVE SMOOTH",
"1506 687 OFFCURVE",
"1565 455 OFFCURVE",
"1577 403 CURVE",
"1578 395 OFFCURVE",
"1577 389 OFFCURVE",
"1573 383 CURVE SMOOTH",
"1529 316 OFFCURVE",
"1476 256 OFFCURVE",
"1411 206 CURVE",
"1405 201 OFFCURVE",
"1399 200 OFFCURVE",
"1391 203 CURVE"
);
}
);
width = 1806;
},
{
anchors = (
{
name = bottom;
position = "{737, -200}";
},
{
name = top;
position = "{1420, 1021}";
}
);
layerId = "BE58D163-656C-4DD5-ACF8-D2DBE947AA26";
name = Bold;
paths = (
{
closed = 1;
nodes = (
"817.442 -89.804 OFFCURVE",
"1120.613 -41.017 OFFCURVE",
"1331.038 37.202 CURVE",
"1330.011 36.502 OFFCURVE",
"1323.82 36.398 OFFCURVE",
"1321.067 36.937 CURVE",
"1450.633 -12.13 OFFCURVE",
"1612.02 -40 OFFCURVE",
"1766 -40 CURVE SMOOTH",
"1824.117 -40 LINE",
"1895.319 35.533 OFFCURVE",
"1895.319 120.467 OFFCURVE",
"1824.117 196 CURVE",
"1766 196 LINE SMOOTH",
"1649.372 196 OFFCURVE",
"1506.299 207.737 OFFCURVE",
"1551.397 204.249 CURVE",
"1541.996 94.701 LINE",
"1632.21 228.044 OFFCURVE",
"1706 381.121 OFFCURVE",
"1706 458 CURVE SMOOTH",
"1706.921 685.504 OFFCURVE",
"1568.308 907.951 OFFCURVE",
"1420.825 910.992 CURVE SMOOTH",
"1233.08 915.435 OFFCURVE",
"1048.716 641.444 OFFCURVE",
"1051.001 370.662 CURVE SMOOTH",
"1051.868 308.25 OFFCURVE",
"1061.028 254.353 OFFCURVE",
"1080.242 201.005 CURVE",
"947.802 176.515 OFFCURVE",
"784.056 154.384 OFFCURVE",
"652.795 156.992 CURVE SMOOTH",
"389.902 161.467 OFFCURVE",
"269.077 237.82 OFFCURVE",
"282.822 383.236 CURVE SMOOTH",
"282.892 384.063 LINE",
"295.029 548.921 LINE SMOOTH",
"296.562 578.037 OFFCURVE",
"275.455 602.418 OFFCURVE",
"245.417 605.755 CURVE SMOOTH",
"244.621 605.836 LINE",
"189.621 610.836 LINE",
"190.417 610.755 LINE",
"159.845 614.152 OFFCURVE",
"133.709 592.596 OFFCURVE",
"130.245 561.417 CURVE SMOOTH",
"130.155 560.516 LINE",
"115.155 390.516 LINE",
"115.249 391.46 LINE",
"79.657 74.271 OFFCURVE",
"226.358 -75.113 OFFCURVE",
"577.991 -83.987 CURVE SMOOTH"
);
},
{
closed = 1;
nodes = (
"1271.064 283.362 OFFCURVE",
"1209.501 349.343 OFFCURVE",
"1216.862 437.678 CURVE SMOOTH",
"1224.296 525.029 OFFCURVE",
"1322.532 647 OFFCURVE",
"1385 647 CURVE SMOOTH",
"1442.252 647 OFFCURVE",
"1502.865 544.246 OFFCURVE",
"1537.405 396.961 CURVE",
"1537.645 396.478 OFFCURVE",
"1537.527 401.901 OFFCURVE",
"1539.718 405.188 CURVE",
"1494.906 336.953 OFFCURVE",
"1444.233 281.733 OFFCURVE",
"1385.023 236.448 CURVE",
"1389.633 240.568 OFFCURVE",
"1399.556 242.652 OFFCURVE",
"1405.264 240.4 CURVE"
);
}
);
width = 1806;
}
);
},
{
glyphname = "dotlessfeh-ar.medi";
lastChange = "2016-01-29 16:26:51 +0000";
layers = (
{
anchors = (
{
name = bottom;
position = "{427, -151}";
},
{
name = top;
position = "{521, 1021}";
}
);
layerId = "3D7C20C2-9735-4AE4-B4D3-DDFDA9BF3443";
name = Regular;
paths = (
{
closed = 1;
nodes = (
"40 0 LINE SMOOTH",
"215 0 OFFCURVE",
"334 31 OFFCURVE",
"427 78 CURVE",
"542 33 OFFCURVE",
"699 0 OFFCURVE",
"867 0 CURVE SMOOTH",
"907 0 LINE",
"949 52 OFFCURVE",
"949 104 OFFCURVE",
"907 156 CURVE",
"867 156 LINE SMOOTH",
"764 156 OFFCURVE",
"641 165 OFFCURVE",
"641 165 CURVE",
"686 226 OFFCURVE",
"762 338 OFFCURVE",
"763 454 CURVE SMOOTH",
"765 654 OFFCURVE",
"662 868 OFFCURVE",
"521 871 CURVE SMOOTH",
"352 875 OFFCURVE",
"189 608 OFFCURVE",
"192 371 CURVE SMOOTH",
"193 279 OFFCURVE",
"220 216 OFFCURVE",
"252 168 CURVE",
"210 163 OFFCURVE",
"117 156 OFFCURVE",
"40 156 CURVE SMOOTH",
"0 156 LINE SMOOTH",
"-103 156 OFFCURVE",
"-103 0 OFFCURVE",
"0 0 CURVE SMOOTH"
);
},
{
closed = 1;
nodes = (
"360 245 OFFCURVE",
"268 320 OFFCURVE",
"278 441 CURVE SMOOTH",
"286 535 OFFCURVE",
"391 687 OFFCURVE",
"486 687 CURVE SMOOTH",
"610 687 OFFCURVE",
"676 444 OFFCURVE",
"687 399 CURVE SMOOTH",
"688 395 OFFCURVE",
"687 391 OFFCURVE",
"684 387 CURVE SMOOTH",
"629 314 OFFCURVE",
"570 254 OFFCURVE",
"509 205 CURVE",
"506 201 OFFCURVE",
"500 200 OFFCURVE",
"495 202 CURVE"
);
}
);
width = 907;
},
{
anchors = (
{
name = bottom;
position = "{427, -151}";
},
{
name = top;
position = "{521, 1021}";
}
);
layerId = "BE58D163-656C-4DD5-ACF8-D2DBE947AA26";
name = Bold;
paths = (
{
closed = 1;
nodes = (
"40 -40 LINE SMOOTH",
"194.841 -40 OFFCURVE",
"322.562 -15.611 OFFCURVE",
"428.968 34.459 CURVE",
"557.408 -12.994 OFFCURVE",
"715.797 -40 OFFCURVE",
"867 -40 CURVE SMOOTH",
"925.117 -40 LINE",
"996.319 35.533 OFFCURVE",
"996.319 120.467 OFFCURVE",
"925.117 196 CURVE",
"867 196 LINE SMOOTH",
"814.916 196 OFFCURVE",
"757.557 198.341 OFFCURVE",
"714.039 200.621 CURVE",
"772.612 292.701 OFFCURVE",
"802.33 376.097 OFFCURVE",
"802.999 453.655 CURVE SMOOTH",
"805.407 694.452 OFFCURVE",
"677.647 907.676 OFFCURVE",
"521.851 910.991 CURVE SMOOTH",
"333.575 915.447 OFFCURVE",
"148.586 640.488 OFFCURVE",
"152.003 370.494 CURVE SMOOTH",
"152.666 309.528 OFFCURVE",
"164.516 253.312 OFFCURVE",
"187.515 202.158 CURVE",
"143.587 198.833 OFFCURVE",
"88.65 196 OFFCURVE",
"40 196 CURVE SMOOTH",
"0 196 LINE SMOOTH",
"-155.865 196 OFFCURVE",
"-155.865 -40 OFFCURVE",
"0 -40 CURVE SMOOTH"
);
},
{
closed = 1;
nodes = (
"371.899 283.382 OFFCURVE",
"310.546 349.153 OFFCURVE",
"317.864 437.705 CURVE SMOOTH",
"325.296 525.029 OFFCURVE",
"423.532 647 OFFCURVE",
"486 647 CURVE SMOOTH",
"545.06 647 OFFCURVE",
"612.187 536.598 OFFCURVE",
"648.144 389.502 CURVE",
"646.439 396.318 OFFCURVE",
"647.925 405.567 OFFCURVE",
"652 411 CURVE",
"601.223 343.605 OFFCURVE",
"545.187 285.337 OFFCURVE",
"483.792 235.821 CURVE",
"490.374 240.233 OFFCURVE",
"498.512 242.125 OFFCURVE",
"506.289 240.328 CURVE"
);
}
);
width = 907;
}
);
},
{
glyphname = "dotlessfeh-ar.init";
lastChange = "2016-01-29 16:26:50 +0000";
layers = (
{
anchors = (
{
name = bottom;
position = "{347, -150}";
},
{
name = top;
position = "{435, 1132}";
}
);
layerId = "3D7C20C2-9735-4AE4-B4D3-DDFDA9BF3443";
name = Regular;
paths = (
{
closed = 1;
nodes = (
"40 0 LINE SMOOTH",
"193 0 OFFCURVE",
"313 -3 OFFCURVE",
"459 30 CURVE SMOOTH",
"734 93 OFFCURVE",
"754 253 OFFCURVE",
"742 452 CURVE SMOOTH",
"727 708 OFFCURVE",
"600 982 OFFCURVE",
"435 982 CURVE SMOOTH",
"234 982 OFFCURVE",
"136 735 OFFCURVE",
"136 529 CURVE SMOOTH",
"136 263 OFFCURVE",
"463 292 OFFCURVE",
"620 368 CURVE SMOOTH",
"634 375 OFFCURVE",
"648 367 OFFCURVE",
"648 351 CURVE SMOOTH",
"647 247 LINE SMOOTH",
"647 242 OFFCURVE",
"644 237 OFFCURVE",
"639 234 CURVE",
"434 150 OFFCURVE",
"91 156 OFFCURVE",
"40 156 CURVE SMOOTH",
"0 156 LINE SMOOTH",
"-103 156 OFFCURVE",
"-103 0 OFFCURVE",
"0 0 CURVE SMOOTH"
);
},
{
closed = 1;
nodes = (
"239 498 OFFCURVE",
"224 511 OFFCURVE",
"224 516 CURVE SMOOTH",
"226 684 OFFCURVE",
"289 816 OFFCURVE",
"400 816 CURVE SMOOTH",
"499 816 OFFCURVE",
"599 658 OFFCURVE",
"629 497 CURVE",
"631 490 OFFCURVE",
"415 436 OFFCURVE",
"268 488 CURVE SMOOTH"
);
}
);
width = 865;
},
{
anchors = (
{
name = bottom;
position = "{347, -150}";
},
{
name = top;
position = "{435, 1132}";
}
);
layerId = "BE58D163-656C-4DD5-ACF8-D2DBE947AA26";
name = Bold;
paths = (
{
closed = 1;
nodes = (
"40 -40 LINE SMOOTH",
"192.5 -40 OFFCURVE",
"316.97 -43.112 OFFCURVE",
"467.819 -9.016 CURVE SMOOTH",
"770.219 60.261 OFFCURVE",
"794.15 251.712 OFFCURVE",
"781.927 454.408 CURVE SMOOTH",
"763.751 764.619 OFFCURVE",
"610.552 1022 OFFCURVE",
"435 1022 CURVE SMOOTH",
"239.679 1022 OFFCURVE",
"96 808.155 OFFCURVE",
"96 529 CURVE SMOOTH",
"96 219.296 OFFCURVE",
"473.833 252.804 OFFCURVE",
"637.428 331.997 CURVE SMOOTH",
"637.889 332.223 LINE",
"625.603 326.08 OFFCURVE",
"608 337.232 OFFCURVE",
"608 351 CURVE",
"607.002 247.385 LINE",
"607 259.297 OFFCURVE",
"615.24 270.423 OFFCURVE",
"630.004 272.845 CURVE",
"435.334 189.983 OFFCURVE",
"92.026 196 OFFCURVE",
"40 196 CURVE SMOOTH",
"0 196 LINE SMOOTH",
"-155.865 196 OFFCURVE",
"-155.865 -40 OFFCURVE",
"0 -40 CURVE SMOOTH"
);
},
{
closed = 1;
nodes = (
"242.349 539.157 OFFCURVE",
"264 550.259 OFFCURVE",
"264 516 CURVE",
"265.875 673.258 OFFCURVE",
"321.68 776 OFFCURVE",
"400 776 CURVE SMOOTH",
"469.809 776 OFFCURVE",
"562.137 640.573 OFFCURVE",
"590.041 487.698 CURVE",
"562.849 576.818 OFFCURVE",
"454.638 464.407 OFFCURVE",
"281.34 525.71 CURVE SMOOTH"
);
}
);
width = 865;
}
);
},
{
glyphname = "dotlessqaf-ar";
lastChange = "2016-01-29 16:26:50 +0000";
layers = (
{
anchors = (
{
name = bottom;
position = "{666, -610}";
},
{
name = top;
position = "{965, 847}";
}
);
layerId = "3D7C20C2-9735-4AE4-B4D3-DDFDA9BF3443";
name = Regular;
paths = (
{
closed = 1;
nodes = (
"708 -460 OFFCURVE",
"1126 -405 OFFCURVE",
"1243 -234 CURVE SMOOTH",
"1290 -166 OFFCURVE",
"1294 -72 OFFCURVE",
"1298 50 CURVE SMOOTH",
"1307 336 OFFCURVE",
"1165 697 OFFCURVE",
"964 697 CURVE SMOOTH",
"763 697 OFFCURVE",
"645 410 OFFCURVE",
"645 204 CURVE SMOOTH",
"645 -109 OFFCURVE",
"986 -72 OFFCURVE",
"1168 21 CURVE",
"1178 27 OFFCURVE",
"1186 22 OFFCURVE",
"1185 10 CURVE",
"1177 -165 LINE",
"1177 -173 OFFCURVE",
"1172 -178 OFFCURVE",
"1164 -181 CURVE SMOOTH",
"1107 -202 OFFCURVE",
"857 -285 OFFCURVE",
"557 -285 CURVE SMOOTH",
"379 -285 OFFCURVE",
"246 -203 OFFCURVE",
"256 -7 CURVE SMOOTH",
"257 12 OFFCURVE",
"260 32 OFFCURVE",
"298 239 CURVE SMOOTH",
"300 249 OFFCURVE",
"295 256 OFFCURVE",
"286 258 CURVE SMOOTH",
"218 272 LINE SMOOTH",
"209 274 OFFCURVE",
"202 269 OFFCURVE",
"200 260 CURVE",
"163 35 LINE",
"112 -219 OFFCURVE",
"213 -460 OFFCURVE",
"533 -460 CURVE SMOOTH"
);
},
{
closed = 1;
nodes = (
"1022 114 OFFCURVE",
"880 101 OFFCURVE",
"763 154 CURVE",
"756 158 OFFCURVE",
"753 163 OFFCURVE",
"752 171 CURVE",
"743 322 OFFCURVE",
"799 531 OFFCURVE",
"929 531 CURVE SMOOTH",
"1043 531 OFFCURVE",
"1162 344 OFFCURVE",
"1177 164 CURVE SMOOTH",
"1178 155 OFFCURVE",
"1173 149 OFFCURVE",
"1164 147 CURVE SMOOTH"
);
}
);
width = 1418;
},
{
anchors = (
{
name = bottom;
position = "{666, -610}";
},
{
name = top;
position = "{965, 847}";
}
);
layerId = "BE58D163-656C-4DD5-ACF8-D2DBE947AA26";
name = Bold;
paths = (
{
closed = 1;
nodes = (
"710.62 -500 OFFCURVE",
"1148.926 -442.328 OFFCURVE",
"1276.012 -256.587 CURVE SMOOTH",
"1329.473 -179.241 OFFCURVE",
"1333.972 -73.506 OFFCURVE",
"1337.979 48.689 CURVE SMOOTH",
"1349.08 401.476 OFFCURVE",
"1171.163 737 OFFCURVE",
"964 737 CURVE SMOOTH",
"769.929 737 OFFCURVE",
"605 486.825 OFFCURVE",
"605 204 CURVE SMOOTH",
"605 -154.342 OFFCURVE",
"999.327 -110.787 OFFCURVE",
"1187.403 -13.981 CURVE",
"1169.521 -23.271 OFFCURVE",
"1143.504 -6.287 OFFCURVE",
"1145.138 13.322 CURVE",
"1145.042 11.827 LINE",
"1137.042 -163.173 LINE",
"1137 -165 LINE",
"1137 -157.041 OFFCURVE",
"1143.049 -146.137 OFFCURVE",
"1149.955 -143.547 CURVE",
"1093.781 -164.242 OFFCURVE",
"850.534 -245 OFFCURVE",
"557 -245 CURVE SMOOTH",
"379.21 -245 OFFCURVE",
"288.113 -162.614 OFFCURVE",
"295.948 -9.038 CURVE SMOOTH",
"296.893 8.913 OFFCURVE",
"302.33 41.052 OFFCURVE",
"337.343 231.778 CURVE",
"337.223 231.155 LINE",
"343.397 262.024 OFFCURVE",
"325.201 290.264 OFFCURVE",
"294.677 297.047 CURVE SMOOTH",
"294.066 297.178 LINE",
"226.066 311.178 LINE",
"226.677 311.047 LINE",
"195.565 317.961 OFFCURVE",
"166.837 298.405 OFFCURVE",
"160.664 267.307 CURVE SMOOTH",
"115.307 -8.514 LINE",
"77.773 -301.439 OFFCURVE",
"241.717 -500 OFFCURVE",
"533 -500 CURVE SMOOTH"
);
},
{
closed = 1;
nodes = (
"990.574 147.763 OFFCURVE",
"873.414 148.884 OFFCURVE",
"782.089 189.182 CURVE",
"785.641 187.824 OFFCURVE",
"791.78 179.3 OFFCURVE",
"791.773 175.328 CURVE",
"782.401 342.952 OFFCURVE",
"848.398 491 OFFCURVE",
"929 491 CURVE SMOOTH",
"1015.377 491 OFFCURVE",
"1123.497 324.372 OFFCURVE",
"1137.138 160.678 CURVE SMOOTH",
"1137.245 159.583 LINE",
"1136.006 170.734 OFFCURVE",
"1144.607 183.666 OFFCURVE",
"1155.323 186.047 CURVE"
);
}
);
width = 1418;
}
);
unicode = 066F;
},
{
glyphname = "dotlessqaf-ar.fina";
lastChange = "2016-01-29 16:26:50 +0000";
layers = (
{
anchors = (
{
name = bottom;
position = "{666, -610}";
},
{
name = top;
position = "{965, 847}";
}
);
layerId = "3D7C20C2-9735-4AE4-B4D3-DDFDA9BF3443";
name = Regular;
paths = (
{
closed = 1;
nodes = (
"708 -461 OFFCURVE",
"1126 -406 OFFCURVE",
"1243 -235 CURVE SMOOTH",
"1284 -176 OFFCURVE",
"1293 -98 OFFCURVE",
"1297 0 CURVE",
"1445 0 LINE",
"1487 52 OFFCURVE",
"1487 104 OFFCURVE",
"1445 156 CURVE",
"1295 156 LINE",
"1272 417 OFFCURVE",
"1141 696 OFFCURVE",
"964 696 CURVE SMOOTH",
"763 696 OFFCURVE",
"625 429 OFFCURVE",
"625 223 CURVE SMOOTH",
"625 -60 OFFCURVE",
"959 -36 OFFCURVE",
"1166 3 CURVE SMOOTH",
"1177 5 OFFCURVE",
"1182 -1 OFFCURVE",
"1182 -11 CURVE",
"1176 -165 LINE",
"1176 -173 OFFCURVE",
"1172 -179 OFFCURVE",
"1164 -182 CURVE SMOOTH",
"1107 -203 OFFCURVE",
"857 -286 OFFCURVE",
"557 -286 CURVE SMOOTH",
"379 -286 OFFCURVE",
"246 -204 OFFCURVE",
"256 -8 CURVE SMOOTH",
"257 11 OFFCURVE",
"261 31 OFFCURVE",
"299 238 CURVE SMOOTH",
"301 248 OFFCURVE",
"296 255 OFFCURVE",
"287 257 CURVE SMOOTH",
"219 271 LINE SMOOTH",
"210 273 OFFCURVE",
"203 268 OFFCURVE",
"201 259 CURVE",
"163 34 LINE SMOOTH",
"112 -220 OFFCURVE",
"213 -461 OFFCURVE",
"533 -461 CURVE SMOOTH"
);
},
{
closed = 1;
nodes = (
"991 129 OFFCURVE",
"821 138 OFFCURVE",
"724 185 CURVE SMOOTH",
"720 187 OFFCURVE",
"718 192 OFFCURVE",
"717 200 CURVE",
"710 349 OFFCURVE",
"799 530 OFFCURVE",
"929 530 CURVE SMOOTH",
"1046 530 OFFCURVE",
"1168 334 OFFCURVE",
"1178 149 CURVE"
);
}
);
width = 1445;
},
{
anchors = (
{
name = bottom;
position = "{666, -610}";
},
{
name = top;
position = "{965, 847}";
}
);
layerId = "BE58D163-656C-4DD5-ACF8-D2DBE947AA26";
name = Bold;
paths = (
{
closed = 1;
nodes = (
"710.62 -501 OFFCURVE",
"1148.926 -443.328 OFFCURVE",
"1276.012 -257.587 CURVE SMOOTH",
"1311.061 -207.153 OFFCURVE",
"1328.015 -145.163 OFFCURVE",
"1334.947 -40 CURVE",
"1463.117 -40 LINE",
"1534.319 35.533 OFFCURVE",
"1534.319 120.467 OFFCURVE",
"1463.117 196 CURVE",
"1331.04 196 LINE",
"1294.275 500.86 OFFCURVE",
"1140.098 736 OFFCURVE",
"964 736 CURVE SMOOTH",
"764.198 736 OFFCURVE",
"585 489.466 OFFCURVE",
"585 223 CURVE SMOOTH",
"585 -17.812 OFFCURVE",
"796.731 -107.276 OFFCURVE",
"1173.406 -36.308 CURVE",
"1158.832 -38.959 OFFCURVE",
"1142 -24.757 OFFCURVE",
"1142 -11 CURVE SMOOTH",
"1142.03 -9.443 LINE",
"1136.03 -163.443 LINE",
"1136 -165 LINE",
"1136 -156.541 OFFCURVE",
"1142.098 -147.493 OFFCURVE",
"1149.955 -144.547 CURVE",
"1093.781 -165.242 OFFCURVE",
"850.534 -246 OFFCURVE",
"557 -246 CURVE SMOOTH",
"379.21 -246 OFFCURVE",
"288.113 -163.614 OFFCURVE",
"295.948 -10.038 CURVE SMOOTH",
"296.758 5.341 OFFCURVE",
"300.285 23.466 OFFCURVE",
"338.343 230.778 CURVE",
"338.223 230.155 LINE",
"344.397 261.024 OFFCURVE",
"326.201 289.264 OFFCURVE",
"295.677 296.047 CURVE SMOOTH",
"295.066 296.178 LINE",
"227.066 310.178 LINE",
"227.677 310.047 LINE",
"196.601 316.953 OFFCURVE",
"167.903 297.45 OFFCURVE",
"161.686 266.414 CURVE SMOOTH",
"116.122 -3.373 LINE SMOOTH",
"75.493 -299.66 OFFCURVE",
"239.686 -501 OFFCURVE",
"533 -501 CURVE SMOOTH"
);
},
{
closed = 1;
nodes = (
"960.049 169.928 OFFCURVE",
"820.521 182.68 OFFCURVE",
"741.442 220.997 CURVE",
"748.14 217.651 OFFCURVE",
"758.302 207.046 OFFCURVE",
"756.697 203.523 CURVE",
"750.755 347.933 OFFCURVE",
"836.648 490 OFFCURVE",
"929 490 CURVE SMOOTH",
"1011.639 490 OFFCURVE",
"1112.374 339.941 OFFCURVE",
"1134.307 184.958 CURVE"
);
}
);
width = 1445;
}
);
},
{
glyphname = "dotlesskaf-ar";
lastChange = "2016-01-29 16:26:50 +0000";
layers = (
{
anchors = (
{
name = bottom;
position = "{674, -187}";
},
{
name = top;
position = "{628, 807}";
}
);
layerId = "3D7C20C2-9735-4AE4-B4D3-DDFDA9BF3443";
name = Regular;
paths = (
{
closed = 1;
nodes = (
"467 -28 OFFCURVE",
"648 -20 OFFCURVE",
"792 -4 CURVE SMOOTH",
"1109 31 OFFCURVE",
"1189 175 OFFCURVE",
"1184 520 CURVE SMOOTH",
"1172 1322 LINE",
"1172 1334 OFFCURVE",
"1165 1339 OFFCURVE",
"1154 1332 CURVE",
"1050 1260 LINE SMOOTH",
"1043 1255 OFFCURVE",
"1041 1251 OFFCURVE",
"1041 1242 CURVE",
"1069 594 OFFCURVE",
"1077 332 OFFCURVE",
"1061 227 CURVE",
"1059 217 OFFCURVE",
"1057 213 OFFCURVE",
"1048 210 CURVE SMOOTH",
"883 151 OFFCURVE",
"440 124 OFFCURVE",
"168 193 CURVE",
"158 196 OFFCURVE",
"152 192 OFFCURVE",
"151 181 CURVE SMOOTH",
"142 24 OFFCURVE",
"172 6 OFFCURVE",
"322 -11 CURVE SMOOTH"
);
}
);
width = 1304;
},
{
anchors = (
{
name = bottom;
position = "{674, -187}";
},
{
name = top;
position = "{628, 807}";
}
);
layerId = "BE58D163-656C-4DD5-ACF8-D2DBE947AA26";
name = Bold;
paths = (
{
closed = 1;
nodes = (
"465.545 -68.103 OFFCURVE",
"651.095 -59.902 OFFCURVE",
"796.417 -43.755 CURVE SMOOTH",
"1121.023 -7.916 OFFCURVE",
"1229.544 137.763 OFFCURVE",
"1223.996 520.58 CURVE SMOOTH",
"1211.996 1322.598 LINE",
"1212 1322 LINE",
"1212 1366.583 OFFCURVE",
"1169.239 1389.817 OFFCURVE",
"1131.736 1365.237 CURVE SMOOTH",
"1027.232 1292.888 LINE",
"1026.75 1292.549 LINE SMOOTH",
"1009.315 1280.096 OFFCURVE",
"1000.734 1262.862 OFFCURVE",
"1001.006 1240.993 CURVE SMOOTH",
"1028.913 595.213 OFFCURVE",
"1036.852 336.454 OFFCURVE",
"1021.666 234.205 CURVE",
"1021.754 231.911 OFFCURVE",
"1029.033 245.841 OFFCURVE",
"1035.351 247.947 CURVE",
"1034.532 247.665 LINE SMOOTH",
"875.019 190.626 OFFCURVE",
"444.494 164.348 OFFCURVE",
"178.486 231.607 CURVE SMOOTH",
"144.112 241.337 OFFCURVE",
"113.977 220.114 OFFCURVE",
"111.097 183.827 CURVE SMOOTH",
"101.073 10.4 OFFCURVE",
"138.403 -30.448 OFFCURVE",
"317.496 -50.746 CURVE SMOOTH"
);
}
);
width = 1304;
}
);
},
{
glyphname = "dotlesskaf-ar.fina";
lastChange = "2016-01-29 16:26:50 +0000";
layers = (
{
anchors = (
{
name = bottom;
position = "{674, -187}";
},
{
name = top;
position = "{627, 807}";
}
);
guideLines = (
{
position = "{-180, 1345}";
}
);
layerId = "3D7C20C2-9735-4AE4-B4D3-DDFDA9BF3443";
name = Regular;
paths = (
{
closed = 1;
nodes = (
"467 -28 OFFCURVE",
"628 -20 OFFCURVE",
"772 -4 CURVE SMOOTH",
"955 16 OFFCURVE",
"1072 68 OFFCURVE",
"1112 179 CURVE",
"1150 68 OFFCURVE",
"1223 0 OFFCURVE",
"1360 0 CURVE SMOOTH",
"1460 0 LINE",
"1502 52 OFFCURVE",
"1502 104 OFFCURVE",
"1460 156 CURVE",
"1402 156 LINE SMOOTH",
"1315 156 OFFCURVE",
"1188 181 OFFCURVE",
"1188 268 CURVE",
"1172 1322 LINE",
"1172 1334 OFFCURVE",
"1165 1339 OFFCURVE",
"1154 1332 CURVE",
"1050 1260 LINE SMOOTH",
"1043 1255 OFFCURVE",
"1041 1251 OFFCURVE",
"1041 1242 CURVE",
"1069 594 OFFCURVE",
"1077 332 OFFCURVE",
"1061 227 CURVE",
"1059 217 OFFCURVE",
"1057 213 OFFCURVE",
"1048 210 CURVE SMOOTH",
"883 151 OFFCURVE",
"440 124 OFFCURVE",
"168 193 CURVE",
"158 196 OFFCURVE",
"152 192 OFFCURVE",
"151 181 CURVE SMOOTH",
"142 24 OFFCURVE",
"172 6 OFFCURVE",
"322 -11 CURVE SMOOTH"
);
}
);
width = 1460;
},
{
anchors = (
{
name = bottom;
position = "{674, -187}";
},
{
name = top;
position = "{627, 807}";
}
);
guideLines = (
{
position = "{-180, 1345}";
}
);
layerId = "BE58D163-656C-4DD5-ACF8-D2DBE947AA26";
name = Bold;
paths = (
{
closed = 1;
nodes = (
"465.654 -68.116 OFFCURVE",
"631.204 -59.89 OFFCURVE",
"776.417 -43.755 CURVE SMOOTH",
"939.202 -25.965 OFFCURVE",
"1047.418 17.347 OFFCURVE",
"1108.2 91.765 CURVE",
"1161.238 3.871 OFFCURVE",
"1245.075 -40 OFFCURVE",
"1360 -40 CURVE SMOOTH",
"1478.117 -40 LINE",
"1549.319 35.533 OFFCURVE",
"1549.319 120.467 OFFCURVE",
"1478.117 196 CURVE",
"1402 196 LINE SMOOTH",
"1299.018 196 OFFCURVE",
"1228 226.976 OFFCURVE",
"1228 268 CURVE",
"1227.995 268.607 LINE",
"1211.995 1322.607 LINE",
"1212 1322 LINE",
"1212 1366.583 OFFCURVE",
"1169.239 1389.817 OFFCURVE",
"1131.736 1365.237 CURVE SMOOTH",
"1027.232 1292.888 LINE",
"1026.75 1292.549 LINE SMOOTH",
"1009.315 1280.096 OFFCURVE",
"1000.734 1262.862 OFFCURVE",
"1001.006 1240.993 CURVE SMOOTH",
"1028.913 595.213 OFFCURVE",
"1036.852 336.454 OFFCURVE",
"1021.666 234.205 CURVE",
"1021.754 231.911 OFFCURVE",
"1029.033 245.841 OFFCURVE",
"1035.351 247.947 CURVE",
"1034.532 247.665 LINE SMOOTH",
"875.019 190.626 OFFCURVE",
"444.494 164.348 OFFCURVE",
"178.486 231.607 CURVE SMOOTH",
"144.112 241.337 OFFCURVE",
"113.977 220.114 OFFCURVE",
"111.097 183.827 CURVE SMOOTH",
"101.073 10.4 OFFCURVE",
"138.403 -30.448 OFFCURVE",
"317.496 -50.746 CURVE SMOOTH"
);
}
);
width = 1460;
}
);
userData = {
com.typemytype.robofont.guides = (
{
angle = 0;
isGlobal = 0;
x = -180;
y = 1345;
}
);
};
},
{
glyphname = "kaf-ar.medi";
lastChange = "2016-01-29 16:26:50 +0000";
layers = (
{
anchors = (
{
name = bottom;
position = "{338, -149}";
},
{
name = top;
position = "{439, 1315}";
}
);
layerId = "3D7C20C2-9735-4AE4-B4D3-DDFDA9BF3443";
name = Regular;
paths = (
{
closed = 1;
nodes = (
"40 0 LINE SMOOTH",
"219 0 OFFCURVE",
"418 38 OFFCURVE",
"538 88 CURVE",
"554 94 OFFCURVE",
"568 102 OFFCURVE",
"605 168 CURVE SMOOTH",
"611 179 OFFCURVE",
"620 180 OFFCURVE",
"626 170 CURVE",
"719 33 OFFCURVE",
"805 0 OFFCURVE",
"871 0 CURVE SMOOTH",
"911 0 LINE",
"953 52 OFFCURVE",
"953 104 OFFCURVE",
"911 156 CURVE",
"871 156 LINE SMOOTH",
"759 156 OFFCURVE",
"708 195 OFFCURVE",
"653 302 CURVE SMOOTH",
"541 520 OFFCURVE",
"464 738 OFFCURVE",
"175 919 CURVE SMOOTH",
"164 926 OFFCURVE",
"165 935 OFFCURVE",
"177 939 CURVE SMOOTH",
"819 1139 LINE",
"827 1141 OFFCURVE",
"832 1146 OFFCURVE",
"833 1155 CURVE SMOOTH",
"849 1282 LINE SMOOTH",
"850 1293 OFFCURVE",
"844 1299 OFFCURVE",
"833 1295 CURVE SMOOTH",
"167 1075 LINE",
"159 1072 OFFCURVE",
"155 1069 OFFCURVE",
"152 1062 CURVE",
"47 843 LINE SMOOTH",
"43 835 OFFCURVE",
"46 828 OFFCURVE",
"54 823 CURVE",
"380 645 OFFCURVE",
"502 366 OFFCURVE",
"550 245 CURVE SMOOTH",
"553 237 OFFCURVE",
"550 230 OFFCURVE",
"542 226 CURVE",
"413 173 OFFCURVE",
"223 160 OFFCURVE",
"40 156 CURVE SMOOTH",
"0 156 LINE SMOOTH",
"-103 156 OFFCURVE",
"-103 0 OFFCURVE",
"0 0 CURVE SMOOTH"
);
}
);
width = 911;
},
{
anchors = (
{
name = bottom;
position = "{338, -149}";
},
{
name = top;
position = "{439, 1315}";
}
);
layerId = "BE58D163-656C-4DD5-ACF8-D2DBE947AA26";
name = Bold;
paths = (
{
closed = 1;
nodes = (
"40 -40 LINE SMOOTH",
"215.277 -40 OFFCURVE",
"422.46 -3.321 OFFCURVE",
"552.78 50.825 CURVE SMOOTH",
"585.312 63.28 OFFCURVE",
"606.273 88.471 OFFCURVE",
"639.891 148.44 CURVE",
"631.883 133.753 OFFCURVE",
"602.744 132.983 OFFCURVE",
"592.289 148.469 CURVE",
"676.094 24.617 OFFCURVE",
"770.052 -40 OFFCURVE",
"871 -40 CURVE SMOOTH",
"929.117 -40 LINE",
"1000.319 35.533 OFFCURVE",
"1000.319 120.467 OFFCURVE",
"929.117 196 CURVE",
"871 196 LINE SMOOTH",
"778.185 196 OFFCURVE",
"738.89 222.401 OFFCURVE",
"688.575 320.286 CURVE SMOOTH",
"577.815 535.873 OFFCURVE",
"497.066 764.488 OFFCURVE",
"196.232 952.9 CURVE",
"213.87 941.677 OFFCURVE",
"209.294 907.601 OFFCURVE",
"189.649 901.053 CURVE SMOOTH",
"188.897 900.81 LINE",
"834.248 1101.854 LINE",
"855.578 1109.331 OFFCURVE",
"870.204 1127.619 OFFCURVE",
"872.755 1150.583 CURVE",
"872.686 1150 LINE",
"888.754 1277.534 LINE SMOOTH",
"892.907 1317.595 OFFCURVE",
"859.495 1345.113 OFFCURVE",
"822.27 1333.581 CURVE SMOOTH",
"153.816 1112.771 LINE SMOOTH",
"136.941 1106.646 OFFCURVE",
"124.529 1096.225 OFFCURVE",
"117.115 1081.762 CURVE SMOOTH",
"10.931 860.293 LINE",
"11.223 860.889 LINE",
"-2.082 834.279 OFFCURVE",
"7.447 804.176 OFFCURVE",
"34.022 788.334 CURVE",
"348.629 616.902 OFFCURVE",
"465.033 350.711 OFFCURVE",
"512.819 230.25 CURVE",
"512.547 230.955 LINE SMOOTH",
"508.489 241.776 OFFCURVE",
"513.944 256.693 OFFCURVE",
"524.111 261.777 CURVE",
"526.799 262.999 LINE",
"426.221 221.676 OFFCURVE",
"276.365 201.176 OFFCURVE",
"39.126 195.99 CURVE",
"40 196 LINE",
"0 196 LINE SMOOTH",
"-155.865 196 OFFCURVE",
"-155.865 -40 OFFCURVE",
"0 -40 CURVE SMOOTH"
);
}
);
width = 911;
}
);
unicode = FEDC;
},
{
glyphname = "kaf-ar.init";
lastChange = "2016-01-29 16:26:51 +0000";
layers = (
{
anchors = (
{
name = bottom;
position = "{337, -149}";
},
{
name = top;
position = "{395, 1273}";
}
);
layerId = "3D7C20C2-9735-4AE4-B4D3-DDFDA9BF3443";
name = Regular;
paths = (
{
closed = 1;
nodes = (
"40 0 LINE SMOOTH",
"160 0 OFFCURVE",
"295 15 OFFCURVE",
"408 50 CURVE SMOOTH",
"550 96 OFFCURVE",
"631 171 OFFCURVE",
"613 328 CURVE SMOOTH",
"579 624 OFFCURVE",
"321 833 OFFCURVE",
"148 921 CURVE SMOOTH",
"136 927 OFFCURVE",
"137 936 OFFCURVE",
"150 940 CURVE SMOOTH",
"719 1119 LINE",
"727 1121 OFFCURVE",
"732 1126 OFFCURVE",
"733 1135 CURVE SMOOTH",
"749 1261 LINE",
"750 1272 OFFCURVE",
"744 1279 OFFCURVE",
"733 1275 CURVE SMOOTH",
"137 1075 LINE",
"129 1072 OFFCURVE",
"125 1069 OFFCURVE",
"122 1062 CURVE",
"18 844 LINE SMOOTH",
"14 836 OFFCURVE",
"17 829 OFFCURVE",
"25 824 CURVE",
"354 646 OFFCURVE",
"498 394 OFFCURVE",
"538 259 CURVE SMOOTH",
"541 250 OFFCURVE",
"538 244 OFFCURVE",
"530 240 CURVE SMOOTH",
"381 166 OFFCURVE",
"215 156 OFFCURVE",
"40 156 CURVE SMOOTH",
"0 156 LINE SMOOTH",
"-103 156 OFFCURVE",
"-103 0 OFFCURVE",
"0 0 CURVE SMOOTH"
);
}
);
width = 736;
},
{
anchors = (
{
name = bottom;
position = "{337, -149}";
},
{
name = top;
position = "{395, 1273}";
}
);
layerId = "BE58D163-656C-4DD5-ACF8-D2DBE947AA26";
name = Bold;
paths = (
{
closed = 1;
nodes = (
"40 -40 LINE SMOOTH",
"175.924 -40 OFFCURVE",
"312.831 -21.352 OFFCURVE",
"419.835 11.791 CURVE SMOOTH",
"420.327 11.947 LINE SMOOTH",
"597.493 69.339 OFFCURVE",
"671.326 170.443 OFFCURVE",
"652.74 332.556 CURVE SMOOTH",
"616.874 644.797 OFFCURVE",
"342.898 866.739 OFFCURVE",
"166.135 956.653 CURVE",
"186.224 946.609 OFFCURVE",
"182.164 908.046 OFFCURVE",
"161.763 901.769 CURVE",
"734.51 1081.947 LINE",
"755.698 1089.481 OFFCURVE",
"770.214 1107.714 OFFCURVE",
"772.755 1130.583 CURVE",
"772.681 1129.961 LINE",
"788.752 1256.515 LINE SMOOTH",
"792.968 1297.167 OFFCURVE",
"759.229 1325.351 OFFCURVE",
"721.764 1313.422 CURVE SMOOTH",
"123.714 1112.734 LINE SMOOTH",
"106.821 1106.579 OFFCURVE",
"94.412 1096.11 OFFCURVE",
"87.024 1081.584 CURVE SMOOTH",
"-18.102 861.223 LINE",
"-17.777 861.889 LINE",
"-31.095 835.253 OFFCURVE",
"-21.534 805.116 OFFCURVE",
"5.1 789.287 CURVE",
"328.396 614.674 OFFCURVE",
"464.072 372.758 OFFCURVE",
"501.173 243.251 CURVE",
"495.49 253.525 OFFCURVE",
"501.54 270.491 OFFCURVE",
"512.111 275.777 CURVE",
"370.485 205.439 OFFCURVE",
"213.796 196 OFFCURVE",
"40 196 CURVE SMOOTH",
"0 196 LINE SMOOTH",
"-155.865 196 OFFCURVE",
"-155.865 -40 OFFCURVE",
"0 -40 CURVE SMOOTH"
);
}
);
width = 736;
}
);
unicode = FEDB;
},
{
glyphname = "keheh-ar";
lastChange = "2016-01-29 16:26:51 +0000";
layers = (
{
anchors = (
{
name = bottom;
position = "{683, -176}";
},
{
name = top;
position = "{1200, 1417}";
}
);
layerId = "3D7C20C2-9735-4AE4-B4D3-DDFDA9BF3443";
name = Regular;
paths = (
{
closed = 1;
nodes = (
"891 -34 OFFCURVE",
"1173 40 OFFCURVE",
"1299 96 CURVE",
"1302 97 OFFCURVE",
"1304 101 OFFCURVE",
"1307 108 CURVE SMOOTH",
"1338 176 OFFCURVE",
"1367 274 OFFCURVE",
"1360 324 CURVE SMOOTH",
"1326 563 OFFCURVE",
"1081 828 OFFCURVE",
"908 920 CURVE",
"896 927 OFFCURVE",
"898 936 OFFCURVE",
"910 940 CURVE SMOOTH",
"1480 1119 LINE",
"1488 1121 OFFCURVE",
"1493 1126 OFFCURVE",
"1494 1135 CURVE SMOOTH",
"1510 1261 LINE",
"1511 1272 OFFCURVE",
"1505 1279 OFFCURVE",
"1494 1275 CURVE SMOOTH",
"898 1075 LINE",
"890 1072 OFFCURVE",
"886 1069 OFFCURVE",
"883 1062 CURVE",
"778 843 LINE SMOOTH",
"774 835 OFFCURVE",
"777 828 OFFCURVE",
"785 823 CURVE",
"1114 645 OFFCURVE",
"1245 391 OFFCURVE",
"1285 255 CURVE",
"1288 246 OFFCURVE",
"1285 240 OFFCURVE",
"1276 237 CURVE",
"1170 194 OFFCURVE",
"928 130 OFFCURVE",
"652 135 CURVE SMOOTH",
"417 139 OFFCURVE",
"224 204 OFFCURVE",
"243 405 CURVE SMOOTH",
"255 528 LINE SMOOTH",
"256 537 OFFCURVE",
"250 543 OFFCURVE",
"241 544 CURVE SMOOTH",
"186 549 LINE SMOOTH",
"177 550 OFFCURVE",
"170 544 OFFCURVE",
"169 535 CURVE SMOOTH",
"155 405 LINE SMOOTH",
"121 102 OFFCURVE",
"262 -17 OFFCURVE",
"579 -26 CURVE SMOOTH"
);
}
);
width = 1481;
},
{
anchors = (
{
name = bottom;
position = "{683, -176}";
},
{
name = top;
position = "{1200, 1417}";
}
);
layerId = "BE58D163-656C-4DD5-ACF8-D2DBE947AA26";
name = Bold;
paths = (
{
closed = 1;
nodes = (
"894.75 -74.109 OFFCURVE",
"1184.628 1.698 OFFCURVE",
"1314.137 58.959 CURVE",
"1327.113 64.137 OFFCURVE",
"1336.308 74.842 OFFCURVE",
"1343.766 92.243 CURVE",
"1343.396 91.408 LINE",
"1383.015 178.313 OFFCURVE",
"1406.832 277.984 OFFCURVE",
"1399.614 329.546 CURVE SMOOTH",
"1363.843 580.99 OFFCURVE",
"1105.768 860.133 OFFCURVE",
"926.781 955.317 CURVE",
"928.155 954.551 LINE SMOOTH",
"946.176 944.039 OFFCURVE",
"942.454 908.654 OFFCURVE",
"922.649 902.053 CURVE SMOOTH",
"921.984 901.838 LINE",
"1495.463 1081.93 LINE",
"1516.677 1089.454 OFFCURVE",
"1531.212 1107.697 OFFCURVE",
"1533.755 1130.583 CURVE",
"1533.681 1129.961 LINE",
"1549.752 1256.515 LINE SMOOTH",
"1553.968 1297.167 OFFCURVE",
"1520.229 1325.351 OFFCURVE",
"1482.764 1313.422 CURVE SMOOTH",
"884.714 1112.734 LINE SMOOTH",
"867.89 1106.604 OFFCURVE",
"855.514 1096.196 OFFCURVE",
"848.115 1081.762 CURVE SMOOTH",
"741.931 860.293 LINE",
"742.223 860.889 LINE",
"728.905 834.252 OFFCURVE",
"738.466 804.115 OFFCURVE",
"765.101 788.287 CURVE",
"1005.379 658.549 OFFCURVE",
"1187.118 451.76 OFFCURVE",
"1248.107 239.4 CURVE",
"1241.736 251.194 OFFCURVE",
"1250.595 270.696 OFFCURVE",
"1263.351 274.947 CURVE",
"1260.964 274.066 LINE SMOOTH",
"1157.317 232.021 OFFCURVE",
"923.157 170.094 OFFCURVE",
"652.725 174.993 CURVE SMOOTH",
"389.902 179.467 OFFCURVE",
"269.077 255.82 OFFCURVE",
"282.822 401.236 CURVE SMOOTH",
"294.811 524.116 LINE",
"294.755 523.583 LINE",
"298.152 554.155 OFFCURVE",
"276.596 580.291 OFFCURVE",
"245.417 583.755 CURVE SMOOTH",
"244.621 583.836 LINE",
"189.621 588.836 LINE",
"190.417 588.755 LINE",
"159.333 592.209 OFFCURVE",
"132.648 570.044 OFFCURVE",
"129.245 539.417 CURVE SMOOTH",
"115.23 409.283 LINE SMOOTH",
"79.708 92.724 OFFCURVE",
"225.731 -55.986 OFFCURVE",
"577.865 -65.984 CURVE SMOOTH"
);
}
);
width = 1481;
}
);
unicode = 06A9;
},
{
glyphname = "keheh-ar.fina";
lastChange = "2016-01-29 16:26:51 +0000";
layers = (
{
anchors = (
{
name = bottom;
position = "{683, -176}";
},
{
name = top;
position = "{543, 1045}";
}
);
layerId = "3D7C20C2-9735-4AE4-B4D3-DDFDA9BF3443";
name = Regular;
paths = (
{
closed = 1;
nodes = (
"851 -33 OFFCURVE",
"1134 18 OFFCURVE",
"1274 76 CURVE SMOOTH",
"1291 83 OFFCURVE",
"1303 98 OFFCURVE",
"1346 183 CURVE",
"1443 32 OFFCURVE",
"1533 0 OFFCURVE",
"1602 0 CURVE SMOOTH",
"1634 0 LINE",
"1676 52 OFFCURVE",
"1676 104 OFFCURVE",
"1634 156 CURVE",
"1602 156 LINE SMOOTH",
"1490 156 OFFCURVE",
"1439 191 OFFCURVE",
"1384 298 CURVE SMOOTH",
"1269 521 OFFCURVE",
"1191 749 OFFCURVE",
"885 932 CURVE",
"1550 1139 LINE",
"1558 1141 OFFCURVE",
"1563 1146 OFFCURVE",
"1564 1155 CURVE SMOOTH",
"1580 1282 LINE SMOOTH",
"1581 1293 OFFCURVE",
"1575 1299 OFFCURVE",
"1564 1295 CURVE SMOOTH",
"898 1075 LINE",
"890 1072 OFFCURVE",
"886 1069 OFFCURVE",
"883 1062 CURVE",
"778 843 LINE SMOOTH",
"774 835 OFFCURVE",
"777 828 OFFCURVE",
"785 823 CURVE",
"1124 638 OFFCURVE",
"1242 341 OFFCURVE",
"1286 228 CURVE",
"1171 186 OFFCURVE",
"940 130 OFFCURVE",
"652 135 CURVE SMOOTH",
"417 139 OFFCURVE",
"224 204 OFFCURVE",
"243 405 CURVE SMOOTH",
"255 528 LINE SMOOTH",
"256 537 OFFCURVE",
"250 543 OFFCURVE",
"241 544 CURVE SMOOTH",
"186 549 LINE SMOOTH",
"177 550 OFFCURVE",
"170 544 OFFCURVE",
"169 535 CURVE SMOOTH",
"155 405 LINE SMOOTH",
"121 102 OFFCURVE",
"262 -17 OFFCURVE",
"579 -26 CURVE SMOOTH"
);
}
);
width = 1634;
},
{
anchors = (
{
name = bottom;
position = "{683, -176}";
},
{
name = top;
position = "{543, 1045}";
}
);
layerId = "BE58D163-656C-4DD5-ACF8-D2DBE947AA26";
name = Bold;
paths = (
{
closed = 1;
nodes = (
"854.064 -73.092 OFFCURVE",
"1145.332 -20.602 OFFCURVE",
"1289.31 39.046 CURVE SMOOTH",
"1311.607 48.227 OFFCURVE",
"1326.984 64.433 OFFCURVE",
"1350.922 106.647 CURVE",
"1426.606 9.373 OFFCURVE",
"1509.88 -40 OFFCURVE",
"1602 -40 CURVE SMOOTH",
"1652.117 -40 LINE",
"1723.319 35.533 OFFCURVE",
"1723.319 120.467 OFFCURVE",
"1652.117 196 CURVE",
"1602 196 LINE SMOOTH",
"1506.687 196 OFFCURVE",
"1468.642 220.83 OFFCURVE",
"1419.575 316.286 CURVE SMOOTH",
"1315.092 518.892 OFFCURVE",
"1237.549 737.242 OFFCURVE",
"978.351 919.165 CURVE",
"1565.227 1101.847 LINE",
"1586.569 1109.319 OFFCURVE",
"1601.203 1127.612 OFFCURVE",
"1603.755 1150.583 CURVE",
"1603.686 1150 LINE",
"1619.754 1277.534 LINE SMOOTH",
"1623.907 1317.595 OFFCURVE",
"1590.495 1345.113 OFFCURVE",
"1553.27 1333.581 CURVE SMOOTH",
"884.816 1112.771 LINE SMOOTH",
"867.941 1106.646 OFFCURVE",
"855.529 1096.225 OFFCURVE",
"848.115 1081.762 CURVE SMOOTH",
"741.931 860.293 LINE",
"742.223 860.889 LINE",
"728.917 834.277 OFFCURVE",
"738.448 804.172 OFFCURVE",
"765.026 788.331 CURVE",
"1059.224 628.112 OFFCURVE",
"1180 382.249 OFFCURVE",
"1233.292 252.296 CURVE",
"1111.943 213.645 OFFCURVE",
"905.989 170.596 OFFCURVE",
"652.694 174.994 CURVE SMOOTH",
"389.902 179.467 OFFCURVE",
"269.077 255.82 OFFCURVE",
"282.822 401.236 CURVE SMOOTH",
"294.811 524.116 LINE",
"294.755 523.583 LINE",
"298.152 554.155 OFFCURVE",
"276.596 580.291 OFFCURVE",
"245.417 583.755 CURVE SMOOTH",
"244.621 583.836 LINE",
"189.621 588.836 LINE",
"190.417 588.755 LINE",
"159.333 592.209 OFFCURVE",
"132.648 570.044 OFFCURVE",
"129.245 539.417 CURVE SMOOTH",
"115.23 409.283 LINE SMOOTH",
"79.708 92.724 OFFCURVE",
"225.731 -55.986 OFFCURVE",
"577.865 -65.984 CURVE SMOOTH"
);
}
);
width = 1634;
}
);
unicode = FB8F;
},
{
glyphname = "gaf-ar";
lastChange = "2016-01-29 16:26:50 +0000";
layers = (
{
anchors = (
{
name = bottom;
position = "{683, -176}";
},
{
name = top;
position = "{552, 1054}";
}
);
layerId = "3D7C20C2-9735-4AE4-B4D3-DDFDA9BF3443";
name = Regular;
paths = (
{
closed = 1;
nodes = (
"1364 1344 LINE",
"1372 1347 OFFCURVE",
"1376 1352 OFFCURVE",
"1378 1359 CURVE SMOOTH",
"1396 1426 LINE SMOOTH",
"1399 1437 OFFCURVE",
"1392 1444 OFFCURVE",
"1381 1440 CURVE",
"1005 1319 LINE",
"997 1316 OFFCURVE",
"993 1314 OFFCURVE",
"990 1306 CURVE",
"958 1233 LINE SMOOTH",
"953 1221 OFFCURVE",
"959 1214 OFFCURVE",
"971 1218 CURVE SMOOTH"
);
},
{
closed = 1;
nodes = (
"891 -34 OFFCURVE",
"1173 40 OFFCURVE",
"1299 96 CURVE",
"1302 97 OFFCURVE",
"1304 101 OFFCURVE",
"1307 108 CURVE SMOOTH",
"1338 176 OFFCURVE",
"1367 274 OFFCURVE",
"1360 324 CURVE SMOOTH",
"1326 563 OFFCURVE",
"1081 828 OFFCURVE",
"908 920 CURVE",
"896 927 OFFCURVE",
"898 936 OFFCURVE",
"910 940 CURVE SMOOTH",
"1480 1119 LINE",
"1488 1121 OFFCURVE",
"1493 1126 OFFCURVE",
"1494 1135 CURVE SMOOTH",
"1510 1261 LINE",
"1511 1272 OFFCURVE",
"1505 1279 OFFCURVE",
"1494 1275 CURVE SMOOTH",
"898 1075 LINE",
"890 1072 OFFCURVE",
"886 1069 OFFCURVE",
"883 1062 CURVE",
"778 843 LINE SMOOTH",
"774 835 OFFCURVE",
"777 828 OFFCURVE",
"785 823 CURVE",
"1114 645 OFFCURVE",
"1245 391 OFFCURVE",
"1285 255 CURVE",
"1288 246 OFFCURVE",
"1285 240 OFFCURVE",
"1276 237 CURVE",
"1170 194 OFFCURVE",
"928 130 OFFCURVE",
"652 135 CURVE SMOOTH",
"417 139 OFFCURVE",
"224 204 OFFCURVE",
"243 405 CURVE SMOOTH",
"255 528 LINE SMOOTH",
"256 537 OFFCURVE",
"250 543 OFFCURVE",
"241 544 CURVE SMOOTH",
"186 549 LINE SMOOTH",
"177 550 OFFCURVE",
"170 544 OFFCURVE",
"169 535 CURVE SMOOTH",
"155 405 LINE SMOOTH",
"122 102 OFFCURVE",
"262 -17 OFFCURVE",
"579 -26 CURVE SMOOTH"
);
}
);
width = 1481;
},
{
anchors = (
{
name = bottom;
position = "{683, -176}";
},
{
name = top;
position = "{552, 1054}";
}
);
layerId = "BE58D163-656C-4DD5-ACF8-D2DBE947AA26";
name = Bold;
paths = (
{
closed = 1;
nodes = (
"1376.931 1306.14 LINE SMOOTH",
"1396.466 1313.076 OFFCURVE",
"1410.828 1328.296 OFFCURVE",
"1416.461 1348.011 CURVE SMOOTH",
"1416.63 1348.622 LINE",
"1434.63 1415.622 LINE SMOOTH",
"1445.734 1456.334 OFFCURVE",
"1411.002 1490.66 OFFCURVE",
"1370.932 1478.78 CURVE SMOOTH",
"991.951 1356.821 LINE",
"973.934 1350.271 OFFCURVE",
"962.116 1340.494 OFFCURVE",
"954.98 1325.743 CURVE",
"921.365 1249.059 LINE",
"921.077 1248.385 LINE SMOOTH",
"902.841 1204.62 OFFCURVE",
"938.913 1165.141 OFFCURVE",
"983.649 1180.053 CURVE SMOOTH"
);
},
{
closed = 1;
nodes = (
"894.75 -74.109 OFFCURVE",
"1184.628 1.698 OFFCURVE",
"1314.137 58.959 CURVE",
"1327.113 64.137 OFFCURVE",
"1336.308 74.842 OFFCURVE",
"1343.766 92.243 CURVE",
"1343.396 91.408 LINE",
"1383.015 178.313 OFFCURVE",
"1406.832 277.984 OFFCURVE",
"1399.614 329.546 CURVE SMOOTH",
"1363.843 580.99 OFFCURVE",
"1105.768 860.133 OFFCURVE",
"926.781 955.317 CURVE",
"928.155 954.551 LINE SMOOTH",
"946.176 944.039 OFFCURVE",
"942.454 908.654 OFFCURVE",
"922.649 902.053 CURVE SMOOTH",
"921.984 901.838 LINE",
"1495.463 1081.93 LINE",
"1516.677 1089.454 OFFCURVE",
"1531.212 1107.697 OFFCURVE",
"1533.755 1130.583 CURVE",
"1533.681 1129.961 LINE",
"1549.752 1256.515 LINE SMOOTH",
"1553.968 1297.167 OFFCURVE",
"1520.229 1325.351 OFFCURVE",
"1482.764 1313.422 CURVE SMOOTH",
"884.714 1112.734 LINE SMOOTH",
"867.89 1106.604 OFFCURVE",
"855.514 1096.196 OFFCURVE",
"848.115 1081.762 CURVE SMOOTH",
"741.931 860.293 LINE",
"742.223 860.889 LINE",
"728.905 834.252 OFFCURVE",
"738.466 804.115 OFFCURVE",
"765.101 788.287 CURVE",
"1005.379 658.549 OFFCURVE",
"1187.118 451.76 OFFCURVE",
"1248.107 239.4 CURVE",
"1241.736 251.194 OFFCURVE",
"1250.595 270.696 OFFCURVE",
"1263.351 274.947 CURVE",
"1260.964 274.066 LINE SMOOTH",
"1157.317 232.021 OFFCURVE",
"923.157 170.094 OFFCURVE",
"652.725 174.993 CURVE SMOOTH",
"389.902 179.467 OFFCURVE",
"269.077 255.82 OFFCURVE",
"282.822 401.236 CURVE SMOOTH",
"294.811 524.116 LINE",
"294.755 523.583 LINE",
"298.152 554.155 OFFCURVE",
"276.596 580.291 OFFCURVE",
"245.417 583.755 CURVE SMOOTH",
"244.621 583.836 LINE",
"189.621 588.836 LINE",
"190.417 588.755 LINE",
"159.333 592.209 OFFCURVE",
"132.648 570.044 OFFCURVE",
"129.245 539.417 CURVE SMOOTH",
"115.23 409.283 LINE SMOOTH",
"80.699 92.229 OFFCURVE",
"226.283 -56.002 OFFCURVE",
"577.865 -65.984 CURVE SMOOTH"
);
}
);
width = 1481;
}
);
unicode = 06AF;
},
{
glyphname = "gaf-ar.fina";
lastChange = "2016-01-29 16:26:50 +0000";
layers = (
{
anchors = (
{
name = bottom;
position = "{683, -176}";
},
{
name = top;
position = "{520, 1059}";
}
);
layerId = "3D7C20C2-9735-4AE4-B4D3-DDFDA9BF3443";
name = Regular;
paths = (
{
closed = 1;
nodes = (
"1434 1364 LINE",
"1442 1367 OFFCURVE",
"1446 1372 OFFCURVE",
"1448 1379 CURVE SMOOTH",
"1466 1446 LINE SMOOTH",
"1469 1457 OFFCURVE",
"1462 1464 OFFCURVE",
"1451 1460 CURVE",
"1005 1319 LINE SMOOTH",
"998 1317 OFFCURVE",
"993 1314 OFFCURVE",
"990 1306 CURVE",
"958 1232 LINE SMOOTH",
"953 1220 OFFCURVE",
"959 1213 OFFCURVE",
"971 1217 CURVE SMOOTH"
);
},
{
closed = 1;
nodes = (
"797 -32 OFFCURVE",
"1023 0 OFFCURVE",
"1176 43 CURVE SMOOTH",
"1287 73 OFFCURVE",
"1295 102 OFFCURVE",
"1336 163 CURVE SMOOTH",
"1344 175 OFFCURVE",
"1351 176 OFFCURVE",
"1358 165 CURVE SMOOTH",
"1450 29 OFFCURVE",
"1536 0 OFFCURVE",
"1602 0 CURVE SMOOTH",
"1634 0 LINE",
"1676 52 OFFCURVE",
"1676 104 OFFCURVE",
"1634 156 CURVE",
"1602 156 LINE SMOOTH",
"1490 156 OFFCURVE",
"1439 191 OFFCURVE",
"1384 298 CURVE SMOOTH",
"1272 516 OFFCURVE",
"1195 738 OFFCURVE",
"906 919 CURVE SMOOTH",
"895 926 OFFCURVE",
"896 935 OFFCURVE",
"908 939 CURVE SMOOTH",
"1550 1139 LINE",
"1558 1141 OFFCURVE",
"1563 1146 OFFCURVE",
"1564 1155 CURVE SMOOTH",
"1580 1282 LINE SMOOTH",
"1581 1293 OFFCURVE",
"1575 1299 OFFCURVE",
"1564 1295 CURVE SMOOTH",
"898 1075 LINE",
"890 1072 OFFCURVE",
"886 1069 OFFCURVE",
"883 1062 CURVE",
"778 843 LINE SMOOTH",
"774 835 OFFCURVE",
"777 828 OFFCURVE",
"785 823 CURVE",
"1111 645 OFFCURVE",
"1233 363 OFFCURVE",
"1281 242 CURVE",
"1284 233 OFFCURVE",
"1281 226 OFFCURVE",
"1272 223 CURVE SMOOTH",
"1153 182 OFFCURVE",
"929 130 OFFCURVE",
"652 135 CURVE SMOOTH",
"417 139 OFFCURVE",
"224 204 OFFCURVE",
"243 405 CURVE SMOOTH",
"255 528 LINE SMOOTH",
"256 537 OFFCURVE",
"250 543 OFFCURVE",
"241 544 CURVE SMOOTH",
"186 549 LINE SMOOTH",
"177 550 OFFCURVE",
"170 544 OFFCURVE",
"169 535 CURVE SMOOTH",
"155 405 LINE SMOOTH",
"122 102 OFFCURVE",
"262 -17 OFFCURVE",
"579 -26 CURVE SMOOTH"
);
}
);
width = 1634;
},
{
anchors = (
{
name = bottom;
position = "{683, -176}";
},
{
name = top;
position = "{520, 1059}";
}
);
layerId = "BE58D163-656C-4DD5-ACF8-D2DBE947AA26";
name = Bold;
paths = (
{
closed = 1;
nodes = (
"983.104 1178.875 LINE",
"1446.866 1326.117 LINE SMOOTH",
"1466.435 1333.043 OFFCURVE",
"1480.822 1348.274 OFFCURVE",
"1486.461 1368.011 CURVE SMOOTH",
"1486.63 1368.622 LINE",
"1504.63 1435.622 LINE SMOOTH",
"1515.689 1476.168 OFFCURVE",
"1481.284 1510.381 OFFCURVE",
"1441.421 1498.923 CURVE SMOOTH",
"990.643 1356.412 LINE SMOOTH",
"974.115 1350.832 OFFCURVE",
"961.708 1340.022 OFFCURVE",
"954.592 1324.898 CURVE SMOOTH",
"921.286 1247.876 LINE",
"921.077 1247.385 LINE SMOOTH",
"902.841 1203.62 OFFCURVE",
"938.913 1164.141 OFFCURVE",
"983.649 1179.053 CURVE"
);
},
{
closed = 1;
nodes = (
"778.998 -71.52 OFFCURVE",
"1012.476 -44.507 OFFCURVE",
"1186.823 4.492 CURVE SMOOTH",
"1319.486 40.345 OFFCURVE",
"1331.829 85.088 OFFCURVE",
"1369.198 140.687 CURVE",
"1361.669 129.392 OFFCURVE",
"1333.314 130.347 OFFCURVE",
"1324.559 143.055 CURVE",
"1406.418 21.845 OFFCURVE",
"1498.591 -40 OFFCURVE",
"1602 -40 CURVE SMOOTH",
"1652.117 -40 LINE",
"1723.319 35.533 OFFCURVE",
"1723.319 120.467 OFFCURVE",
"1652.117 196 CURVE",
"1602 196 LINE SMOOTH",
"1506.687 196 OFFCURVE",
"1468.642 220.83 OFFCURVE",
"1419.575 316.286 CURVE SMOOTH",
"1308.867 531.771 OFFCURVE",
"1228.174 764.421 OFFCURVE",
"927.232 952.9 CURVE",
"944.87 941.677 OFFCURVE",
"940.294 907.601 OFFCURVE",
"920.649 901.053 CURVE SMOOTH",
"919.897 900.81 LINE",
"1565.248 1101.854 LINE",
"1586.578 1109.331 OFFCURVE",
"1601.204 1127.619 OFFCURVE",
"1603.755 1150.583 CURVE",
"1603.686 1150 LINE",
"1619.754 1277.534 LINE SMOOTH",
"1623.907 1317.595 OFFCURVE",
"1590.495 1345.113 OFFCURVE",
"1553.27 1333.581 CURVE SMOOTH",
"884.816 1112.771 LINE SMOOTH",
"867.941 1106.646 OFFCURVE",
"855.529 1096.225 OFFCURVE",
"848.115 1081.762 CURVE SMOOTH",
"741.931 860.293 LINE",
"742.223 860.889 LINE",
"728.918 834.279 OFFCURVE",
"738.447 804.175 OFFCURVE",
"765.022 788.334 CURVE",
"1075.171 619.337 OFFCURVE",
"1192.721 355.264 OFFCURVE",
"1242.046 232.414 CURVE",
"1240.617 243.706 OFFCURVE",
"1248.529 257.34 OFFCURVE",
"1259.351 260.947 CURVE",
"1141.933 220.494 OFFCURVE",
"924.775 170.083 OFFCURVE",
"652.722 174.993 CURVE SMOOTH",
"389.902 179.467 OFFCURVE",
"269.077 255.82 OFFCURVE",
"282.822 401.236 CURVE SMOOTH",
"294.811 524.116 LINE",
"294.755 523.583 LINE",
"298.152 554.155 OFFCURVE",
"276.596 580.291 OFFCURVE",
"245.417 583.755 CURVE SMOOTH",
"244.621 583.836 LINE",
"189.621 588.836 LINE",
"190.417 588.755 LINE",
"159.333 592.209 OFFCURVE",
"132.648 570.044 OFFCURVE",
"129.245 539.417 CURVE SMOOTH",
"115.23 409.283 LINE SMOOTH",
"80.699 92.229 OFFCURVE",
"226.283 -56.002 OFFCURVE",
"577.865 -65.984 CURVE SMOOTH"
);
}
);
width = 1634;
}
);
unicode = FB93;
},
{
glyphname = "gaf-ar.medi";
lastChange = "2016-01-29 16:26:50 +0000";
layers = (
{
anchors = (
{
name = bottom;
position = "{338, -149}";
},
{
name = top;
position = "{478, 1460}";
}
);
layerId = "3D7C20C2-9735-4AE4-B4D3-DDFDA9BF3443";
name = Regular;
paths = (
{
closed = 1;
nodes = (
"703 1364 LINE",
"711 1367 OFFCURVE",
"715 1372 OFFCURVE",
"717 1379 CURVE SMOOTH",
"735 1446 LINE SMOOTH",
"738 1457 OFFCURVE",
"731 1464 OFFCURVE",
"720 1460 CURVE",
"274 1319 LINE SMOOTH",
"267 1317 OFFCURVE",
"262 1314 OFFCURVE",
"259 1306 CURVE",
"227 1232 LINE SMOOTH",
"222 1220 OFFCURVE",
"228 1213 OFFCURVE",
"240 1217 CURVE SMOOTH"
);
},
{
closed = 1;
nodes = (
"40 0 LINE SMOOTH",
"201 0 OFFCURVE",
"377 31 OFFCURVE",
"498 73 CURVE SMOOTH",
"568 98 OFFCURVE",
"571 103 OFFCURVE",
"615 187 CURVE",
"712 36 OFFCURVE",
"802 0 OFFCURVE",
"871 0 CURVE SMOOTH",
"903 0 LINE",
"945 52 OFFCURVE",
"945 104 OFFCURVE",
"903 156 CURVE",
"871 156 LINE SMOOTH",
"759 156 OFFCURVE",
"708 195 OFFCURVE",
"653 302 CURVE SMOOTH",
"538 525 OFFCURVE",
"460 749 OFFCURVE",
"154 932 CURVE",
"819 1139 LINE",
"827 1141 OFFCURVE",
"832 1146 OFFCURVE",
"833 1155 CURVE SMOOTH",
"849 1282 LINE SMOOTH",
"850 1293 OFFCURVE",
"844 1299 OFFCURVE",
"833 1295 CURVE SMOOTH",
"167 1075 LINE",
"159 1072 OFFCURVE",
"155 1069 OFFCURVE",
"152 1062 CURVE",
"47 843 LINE SMOOTH",
"43 835 OFFCURVE",
"46 828 OFFCURVE",
"54 823 CURVE",
"393 638 OFFCURVE",
"511 345 OFFCURVE",
"555 232 CURVE",
"427 174 OFFCURVE",
"229 156 OFFCURVE",
"40 156 CURVE SMOOTH",
"0 156 LINE SMOOTH",
"-103 156 OFFCURVE",
"-103 0 OFFCURVE",
"0 0 CURVE SMOOTH"
);
}
);
width = 903;
},
{
anchors = (
{
name = bottom;
position = "{338, -149}";
},
{
name = top;
position = "{478, 1460}";
}
);
layerId = "BE58D163-656C-4DD5-ACF8-D2DBE947AA26";
name = Bold;
paths = (
{
closed = 1;
nodes = (
"252.104 1178.875 LINE",
"715.866 1326.117 LINE SMOOTH",
"735.435 1333.043 OFFCURVE",
"749.822 1348.274 OFFCURVE",
"755.461 1368.011 CURVE SMOOTH",
"755.63 1368.622 LINE",
"773.63 1435.622 LINE SMOOTH",
"784.689 1476.168 OFFCURVE",
"750.284 1510.381 OFFCURVE",
"710.421 1498.923 CURVE SMOOTH",
"259.643 1356.412 LINE SMOOTH",
"243.115 1350.832 OFFCURVE",
"230.708 1340.022 OFFCURVE",
"223.592 1324.898 CURVE SMOOTH",
"190.286 1247.876 LINE",
"190.077 1247.385 LINE SMOOTH",
"171.841 1203.62 OFFCURVE",
"207.913 1164.141 OFFCURVE",
"252.649 1179.053 CURVE"
);
},
{
closed = 1;
nodes = (
"40 -40 LINE SMOOTH",
"195.725 -40 OFFCURVE",
"378.437 -10.842 OFFCURVE",
"511.117 35.212 CURVE SMOOTH",
"570.384 56.377 OFFCURVE",
"591.31 67.685 OFFCURVE",
"618.924 111.797 CURVE",
"695.911 11.766 OFFCURVE",
"780.434 -40 OFFCURVE",
"871 -40 CURVE SMOOTH",
"921.117 -40 LINE",
"992.319 35.533 OFFCURVE",
"992.319 120.467 OFFCURVE",
"921.117 196 CURVE",
"871 196 LINE SMOOTH",
"778.185 196 OFFCURVE",
"738.89 222.401 OFFCURVE",
"688.575 320.286 CURVE SMOOTH",
"584.059 522.957 OFFCURVE",
"506.471 737.879 OFFCURVE",
"247.424 919.188 CURVE",
"834.227 1101.847 LINE",
"855.569 1109.319 OFFCURVE",
"870.203 1127.612 OFFCURVE",
"872.755 1150.583 CURVE",
"872.686 1150 LINE",
"888.754 1277.534 LINE SMOOTH",
"892.907 1317.595 OFFCURVE",
"859.495 1345.113 OFFCURVE",
"822.27 1333.581 CURVE SMOOTH",
"153.816 1112.771 LINE SMOOTH",
"136.941 1106.646 OFFCURVE",
"124.529 1096.225 OFFCURVE",
"117.115 1081.762 CURVE SMOOTH",
"10.931 860.293 LINE",
"11.223 860.889 LINE",
"-2.083 834.277 OFFCURVE",
"7.448 804.172 OFFCURVE",
"34.026 788.331 CURVE",
"329.829 627.232 OFFCURVE",
"450.288 382.896 OFFCURVE",
"503.123 254.166 CURVE",
"397.187 216.059 OFFCURVE",
"239.11 196 OFFCURVE",
"40 196 CURVE SMOOTH",
"0 196 LINE SMOOTH",
"-155.865 196 OFFCURVE",
"-155.865 -40 OFFCURVE",
"0 -40 CURVE SMOOTH"
);
}
);
width = 903;
}
);
unicode = FB95;
},
{
glyphname = "gaf-ar.init";
lastChange = "2016-01-29 16:26:50 +0000";
layers = (
{
anchors = (
{
name = bottom;
position = "{337, -149}";
},
{
name = top;
position = "{370, 1498}";
}
);
layerId = "3D7C20C2-9735-4AE4-B4D3-DDFDA9BF3443";
name = Regular;
paths = (
{
closed = 1;
nodes = (
"603 1344 LINE",
"611 1347 OFFCURVE",
"615 1352 OFFCURVE",
"617 1359 CURVE SMOOTH",
"635 1426 LINE SMOOTH",
"638 1437 OFFCURVE",
"631 1444 OFFCURVE",
"620 1440 CURVE",
"244 1319 LINE",
"236 1316 OFFCURVE",
"232 1314 OFFCURVE",
"229 1306 CURVE",
"197 1233 LINE SMOOTH",
"192 1221 OFFCURVE",
"198 1214 OFFCURVE",
"210 1218 CURVE SMOOTH"
);
},
{
closed = 1;
nodes = (
"40 0 LINE SMOOTH",
"216 0 OFFCURVE",
"425 33 OFFCURVE",
"548 112 CURVE SMOOTH",
"554 116 OFFCURVE",
"557 120 OFFCURVE",
"560 127 CURVE SMOOTH",
"591 194 OFFCURVE",
"619 278 OFFCURVE",
"613 328 CURVE SMOOTH",
"579 624 OFFCURVE",
"321 833 OFFCURVE",
"148 921 CURVE SMOOTH",
"136 927 OFFCURVE",
"137 936 OFFCURVE",
"150 940 CURVE SMOOTH",
"719 1119 LINE",
"727 1121 OFFCURVE",
"732 1126 OFFCURVE",
"733 1135 CURVE SMOOTH",
"749 1261 LINE",
"750 1272 OFFCURVE",
"744 1279 OFFCURVE",
"733 1275 CURVE SMOOTH",
"137 1075 LINE",
"129 1072 OFFCURVE",
"125 1069 OFFCURVE",
"122 1062 CURVE",
"18 844 LINE SMOOTH",
"14 836 OFFCURVE",
"17 829 OFFCURVE",
"25 824 CURVE",
"354 646 OFFCURVE",
"498 394 OFFCURVE",
"538 259 CURVE SMOOTH",
"541 250 OFFCURVE",
"538 244 OFFCURVE",
"530 240 CURVE SMOOTH",
"381 166 OFFCURVE",
"215 156 OFFCURVE",
"40 156 CURVE SMOOTH",
"0 156 LINE SMOOTH",
"-103 156 OFFCURVE",
"-103 0 OFFCURVE",
"0 0 CURVE SMOOTH"
);
}
);
width = 776;
},
{
anchors = (
{
name = bottom;
position = "{337, -149}";
},
{
name = top;
position = "{370, 1498}";
}
);
layerId = "BE58D163-656C-4DD5-ACF8-D2DBE947AA26";
name = Bold;
paths = (
{
closed = 1;
nodes = (
"615.931 1306.14 LINE SMOOTH",
"635.466 1313.076 OFFCURVE",
"649.828 1328.296 OFFCURVE",
"655.461 1348.011 CURVE SMOOTH",
"655.63 1348.622 LINE",
"673.63 1415.622 LINE SMOOTH",
"684.734 1456.334 OFFCURVE",
"650.002 1490.66 OFFCURVE",
"609.932 1478.78 CURVE SMOOTH",
"230.951 1356.821 LINE",
"212.934 1350.271 OFFCURVE",
"201.116 1340.494 OFFCURVE",
"193.98 1325.743 CURVE",
"160.365 1249.059 LINE",
"160.077 1248.385 LINE SMOOTH",
"141.841 1204.62 OFFCURVE",
"177.913 1165.141 OFFCURVE",
"222.649 1180.053 CURVE SMOOTH"
);
},
{
closed = 1;
nodes = (
"40 -40 LINE SMOOTH",
"253.467 -40 OFFCURVE",
"455.111 4.8 OFFCURVE",
"569.616 78.344 CURVE SMOOTH",
"570.188 78.718 LINE SMOOTH",
"581.28 86.113 OFFCURVE",
"590.822 97.71 OFFCURVE",
"596.499 110.628 CURVE SMOOTH",
"637.224 198.767 OFFCURVE",
"658.718 282.739 OFFCURVE",
"652.715 332.766 CURVE SMOOTH",
"616.874 644.797 OFFCURVE",
"342.898 866.739 OFFCURVE",
"166.135 956.653 CURVE",
"186.224 946.609 OFFCURVE",
"182.164 908.046 OFFCURVE",
"161.763 901.769 CURVE",
"734.51 1081.947 LINE",
"755.698 1089.481 OFFCURVE",
"770.214 1107.714 OFFCURVE",
"772.755 1130.583 CURVE",
"772.681 1129.961 LINE",
"788.752 1256.515 LINE SMOOTH",
"792.968 1297.167 OFFCURVE",
"759.229 1325.351 OFFCURVE",
"721.764 1313.422 CURVE SMOOTH",
"123.714 1112.734 LINE SMOOTH",
"106.821 1106.579 OFFCURVE",
"94.412 1096.11 OFFCURVE",
"87.024 1081.584 CURVE SMOOTH",
"-18.102 861.223 LINE",
"-17.777 861.889 LINE",
"-31.095 835.253 OFFCURVE",
"-21.534 805.116 OFFCURVE",
"5.1 789.287 CURVE",
"328.396 614.674 OFFCURVE",
"464.072 372.758 OFFCURVE",
"501.173 243.251 CURVE",
"495.49 253.525 OFFCURVE",
"501.54 270.491 OFFCURVE",
"512.111 275.777 CURVE",
"370.485 205.439 OFFCURVE",
"213.796 196 OFFCURVE",
"40 196 CURVE SMOOTH",
"0 196 LINE SMOOTH",
"-155.865 196 OFFCURVE",
"-155.865 -40 OFFCURVE",
"0 -40 CURVE SMOOTH"
);
}
);
width = 776;
}
);
unicode = FB94;
},
{
glyphname = "lam-ar";
lastChange = "2016-01-29 16:26:50 +0000";
layers = (
{
anchors = (
{
name = bottom;
position = "{611, -606}";
},
{
name = top;
position = "{1023, 1495}";
}
);
layerId = "3D7C20C2-9735-4AE4-B4D3-DDFDA9BF3443";
name = Regular;
paths = (
{
closed = 1;
nodes = (
"730 -456 OFFCURVE",
"1128 -376 OFFCURVE",
"1134 -131 CURVE",
"1099 1340 LINE",
"1099 1353 OFFCURVE",
"1090 1355 OFFCURVE",
"1080 1348 CURVE",
"958 1256 LINE",
"952 1251 OFFCURVE",
"950 1245 OFFCURVE",
"950 1237 CURVE",
"1025 -190 LINE",
"1025 -190 OFFCURVE",
"787 -287 OFFCURVE",
"525 -287 CURVE SMOOTH",
"345 -287 OFFCURVE",
"209 -190 OFFCURVE",
"268 25 CURVE",
"329 289 LINE SMOOTH",
"331 298 OFFCURVE",
"326 305 OFFCURVE",
"317 307 CURVE SMOOTH",
"256 321 LINE SMOOTH",
"247 323 OFFCURVE",
"240 320 OFFCURVE",
"238 310 CURVE",
"174 41 LINE",
"111 -185 OFFCURVE",
"156 -456 OFFCURVE",
"490 -456 CURVE SMOOTH"
);
}
);
width = 1254;
},
{
anchors = (
{
name = bottom;
position = "{611, -606}";
},
{
name = top;
position = "{1023, 1495}";
}
);
layerId = "BE58D163-656C-4DD5-ACF8-D2DBE947AA26";
name = Bold;
paths = (
{
closed = 1;
nodes = (
"880.568 -496 OFFCURVE",
"1169.57 -348.427 OFFCURVE",
"1174.011 -130.971 CURVE",
"1138.989 1340.951 LINE",
"1139 1340 LINE",
"1139 1384.98 OFFCURVE",
"1093.7 1407.083 OFFCURVE",
"1056.366 1380.276 CURVE SMOOTH",
"933.339 1287.502 LINE SMOOTH",
"918 1275.226 OFFCURVE",
"909.663 1256.546 OFFCURVE",
"910.01 1235.75 CURVE",
"983.518 -162.855 LINE",
"915.762 -187.089 OFFCURVE",
"727.756 -247 OFFCURVE",
"525 -247 CURVE SMOOTH",
"355.029 -247 OFFCURVE",
"272.593 -162.881 OFFCURVE",
"299.234 -17.499 CURVE",
"367.973 279.995 LINE SMOOTH",
"374.859 310.975 OFFCURVE",
"355.977 339.314 OFFCURVE",
"325.677 346.047 CURVE SMOOTH",
"264.948 359.986 LINE SMOOTH",
"234.4 366.776 OFFCURVE",
"207.175 350.405 OFFCURVE",
"199.586 321.358 CURVE SMOOTH",
"121.156 -8.293 LINE",
"63.866 -299.364 OFFCURVE",
"207.047 -496 OFFCURVE",
"490 -496 CURVE SMOOTH"
);
}
);
width = 1254;
}
);
unicode = 0644;
},
{
glyphname = "lam-ar.fina";
lastChange = "2016-01-29 16:26:51 +0000";
layers = (
{
anchors = (
{
name = bottom;
position = "{611, -606}";
},
{
name = top;
position = "{1023, 1495}";
}
);
layerId = "3D7C20C2-9735-4AE4-B4D3-DDFDA9BF3443";
name = Regular;
paths = (
{
closed = 1;
nodes = (
"730 -456 OFFCURVE",
"1128 -376 OFFCURVE",
"1134 -131 CURVE",
"1131 40 LINE",
"1131 52 OFFCURVE",
"1139 57 OFFCURVE",
"1149 49 CURVE",
"1189 22 OFFCURVE",
"1244 0 OFFCURVE",
"1339 0 CURVE SMOOTH",
"1379 0 LINE",
"1421 52 OFFCURVE",
"1421 104 OFFCURVE",
"1379 156 CURVE",
"1339 156 LINE SMOOTH",
"1292 156 OFFCURVE",
"1200 174 OFFCURVE",
"1138 193 CURVE",
"1130 196 OFFCURVE",
"1126 202 OFFCURVE",
"1126 210 CURVE",
"1099 1340 LINE",
"1099 1352 OFFCURVE",
"1090 1355 OFFCURVE",
"1080 1348 CURVE",
"958 1256 LINE",
"952 1251 OFFCURVE",
"950 1245 OFFCURVE",
"950 1237 CURVE",
"1024 -177 LINE",
"1024 -185 OFFCURVE",
"1021 -192 OFFCURVE",
"1013 -195 CURVE SMOOTH",
"961 -214 OFFCURVE",
"752 -287 OFFCURVE",
"525 -287 CURVE SMOOTH",
"345 -287 OFFCURVE",
"209 -190 OFFCURVE",
"268 25 CURVE",
"329 289 LINE SMOOTH",
"331 298 OFFCURVE",
"326 305 OFFCURVE",
"317 307 CURVE SMOOTH",
"256 321 LINE SMOOTH",
"247 323 OFFCURVE",
"240 320 OFFCURVE",
"238 310 CURVE",
"174 41 LINE",
"111 -185 OFFCURVE",
"156 -456 OFFCURVE",
"490 -456 CURVE SMOOTH"
);
}
);
width = 1379;
},
{
anchors = (
{
name = bottom;
position = "{611, -606}";
},
{
name = top;
position = "{1023, 1495}";
}
);
layerId = "BE58D163-656C-4DD5-ACF8-D2DBE947AA26";
name = Bold;
paths = (
{
closed = 1;
nodes = (
"880.49 -496 OFFCURVE",
"1169.454 -348.486 OFFCURVE",
"1174.008 -131.102 CURVE",
"1170.994 40.702 LINE",
"1171 40 LINE SMOOTH",
"1171 20.18 OFFCURVE",
"1142.019 5.383 OFFCURVE",
"1125.296 16.78 CURVE",
"1181.438 -21.613 OFFCURVE",
"1251.167 -40 OFFCURVE",
"1339 -40 CURVE SMOOTH",
"1397.117 -40 LINE",
"1468.319 35.533 OFFCURVE",
"1468.319 120.467 OFFCURVE",
"1397.117 196 CURVE",
"1339 196 LINE SMOOTH",
"1299.757 196 OFFCURVE",
"1216.881 211.199 OFFCURVE",
"1154.493 229.57 CURVE",
"1161.08 225.671 OFFCURVE",
"1166 217.598 OFFCURVE",
"1166 210 CURVE",
"1165.989 210.955 LINE",
"1138.989 1340.955 LINE",
"1139 1340 LINE",
"1139 1384.501 OFFCURVE",
"1093.274 1406.805 OFFCURVE",
"1056.36 1380.272 CURVE SMOOTH",
"933.339 1287.502 LINE SMOOTH",
"918 1275.227 OFFCURVE",
"909.664 1256.549 OFFCURVE",
"910.01 1235.756 CURVE",
"984.055 -179.09 LINE",
"984 -177 LINE",
"984 -169.491 OFFCURVE",
"991.477 -160.351 OFFCURVE",
"998.955 -157.547 CURVE",
"947.541 -176.331 OFFCURVE",
"745.215 -247 OFFCURVE",
"525 -247 CURVE SMOOTH",
"355.029 -247 OFFCURVE",
"272.593 -162.881 OFFCURVE",
"299.234 -17.499 CURVE",
"367.973 279.995 LINE SMOOTH",
"374.859 310.975 OFFCURVE",
"355.977 339.314 OFFCURVE",
"325.677 346.047 CURVE SMOOTH",
"264.948 359.986 LINE SMOOTH",
"234.4 366.776 OFFCURVE",
"207.175 350.405 OFFCURVE",
"199.586 321.358 CURVE SMOOTH",
"121.156 -8.293 LINE",
"63.866 -299.364 OFFCURVE",
"207.047 -496 OFFCURVE",
"490 -496 CURVE SMOOTH"
);
}
);
width = 1379;
}
);
unicode = FEDE;
},
{
glyphname = "lam-ar.medi";
lastChange = "2016-01-29 16:26:50 +0000";
layers = (
{
anchors = (
{
name = bottom;
position = "{293, -149}";
},
{
name = top;
position = "{270, 1497}";
}
);
layerId = "3D7C20C2-9735-4AE4-B4D3-DDFDA9BF3443";
name = Regular;
paths = (
{
closed = 1;
nodes = (
"40 0 LINE SMOOTH",
"125 0 OFFCURVE",
"241 35 OFFCURVE",
"309 93 CURVE SMOOTH",
"316 99 OFFCURVE",
"323 99 OFFCURVE",
"329 93 CURVE",
"374 53 OFFCURVE",
"432 0 OFFCURVE",
"570 0 CURVE SMOOTH",
"610 0 LINE",
"652 52 OFFCURVE",
"652 104 OFFCURVE",
"610 156 CURVE",
"570 156 LINE SMOOTH",
"523 156 OFFCURVE",
"431 175 OFFCURVE",
"369 194 CURVE",
"361 197 OFFCURVE",
"357 203 OFFCURVE",
"357 211 CURVE",
"340 1329 LINE",
"340 1342 OFFCURVE",
"332 1345 OFFCURVE",
"322 1338 CURVE SMOOTH",
"209 1258 LINE SMOOTH",
"203 1254 OFFCURVE",
"200 1248 OFFCURVE",
"200 1239 CURVE",
"249 208 LINE",
"249 200 OFFCURVE",
"246 194 OFFCURVE",
"238 191 CURVE",
"187 174 OFFCURVE",
"114 156 OFFCURVE",
"40 156 CURVE SMOOTH",
"0 156 LINE SMOOTH",
"-103 156 OFFCURVE",
"-103 0 OFFCURVE",
"0 0 CURVE SMOOTH"
);
}
);
width = 610;
},
{
anchors = (
{
name = bottom;
position = "{293, -149}";
},
{
name = top;
position = "{270, 1497}";
}
);
layerId = "BE58D163-656C-4DD5-ACF8-D2DBE947AA26";
name = Bold;
paths = (
{
closed = 1;
nodes = (
"40 -40 LINE SMOOTH",
"141.145 -40 OFFCURVE",
"265.219 3.083 OFFCURVE",
"334.958 62.567 CURVE",
"326.391 55.223 OFFCURVE",
"309.421 56.011 OFFCURVE",
"300.716 64.716 CURVE",
"302.425 63.104 LINE SMOOTH",
"347.22 23.286 OFFCURVE",
"416.477 -40 OFFCURVE",
"570 -40 CURVE SMOOTH",
"628.117 -40 LINE",
"699.319 35.533 OFFCURVE",
"699.319 120.467 OFFCURVE",
"628.117 196 CURVE",
"570 196 LINE SMOOTH",
"532.077 196 OFFCURVE",
"450.054 211.478 OFFCURVE",
"385.418 230.6 CURVE",
"392.046 226.728 OFFCURVE",
"397 218.625 OFFCURVE",
"397 211 CURVE",
"396.995 211.608 LINE",
"379.995 1329.608 LINE",
"380 1329 LINE",
"380 1373.603 OFFCURVE",
"336.255 1396.805 OFFCURVE",
"299.062 1370.769 CURVE SMOOTH",
"184.579 1289.721 LINE SMOOTH",
"168.49 1277.924 OFFCURVE",
"159.687 1259.242 OFFCURVE",
"160.009 1237.871 CURVE SMOOTH",
"209.045 206.101 LINE",
"209 208 LINE",
"209 216.286 OFFCURVE",
"215.979 225.462 OFFCURVE",
"223.955 228.453 CURVE SMOOTH",
"225.351 228.947 LINE",
"160.485 207.325 OFFCURVE",
"95.564 196 OFFCURVE",
"40 196 CURVE SMOOTH",
"0 196 LINE SMOOTH",
"-155.865 196 OFFCURVE",
"-155.865 -40 OFFCURVE",
"0 -40 CURVE SMOOTH"
);
}
);
width = 610;
}
);
unicode = FEE0;
},
{
glyphname = "lam-ar.init";
lastChange = "2016-01-29 16:26:51 +0000";
layers = (
{
anchors = (
{
name = bottom;
position = "{129, -150}";
},
{
name = top;
position = "{210, 1502}";
}
);
layerId = "3D7C20C2-9735-4AE4-B4D3-DDFDA9BF3443";
name = Regular;
paths = (
{
closed = 1;
nodes = (
"40 0 LINE SMOOTH",
"270 0 OFFCURVE",
"365 87 OFFCURVE",
"349 324 CURVE SMOOTH",
"281 1330 LINE SMOOTH",
"280 1342 OFFCURVE",
"273 1346 OFFCURVE",
"263 1339 CURVE SMOOTH",
"149 1258 LINE",
"143 1253 OFFCURVE",
"139 1248 OFFCURVE",
"140 1239 CURVE SMOOTH",
"259 209 LINE SMOOTH",
"260 200 OFFCURVE",
"257 193 OFFCURVE",
"248 191 CURVE",
"193 174 OFFCURVE",
"95 156 OFFCURVE",
"40 156 CURVE SMOOTH",
"0 156 LINE SMOOTH",
"-103 156 OFFCURVE",
"-103 0 OFFCURVE",
"0 0 CURVE SMOOTH"
);
}
);
width = 471;
},
{
anchors = (
{
name = bottom;
position = "{129, -150}";
},
{
name = top;
position = "{210, 1502}";
}
);
layerId = "BE58D163-656C-4DD5-ACF8-D2DBE947AA26";
name = Bold;
paths = (
{
closed = 1;
nodes = (
"40 -40 LINE SMOOTH",
"299.035 -40 OFFCURVE",
"406.121 71.738 OFFCURVE",
"388.909 326.694 CURVE SMOOTH",
"320.909 1332.698 LINE",
"320.862 1333.322 LINE SMOOTH",
"317.258 1376.573 OFFCURVE",
"274.892 1396.151 OFFCURVE",
"240.062 1371.769 CURVE SMOOTH",
"124.78 1289.86 LINE",
"106.514 1275.288 OFFCURVE",
"97.86 1256.044 OFFCURVE",
"100.245 1234.583 CURVE SMOOTH",
"219.264 204.409 LINE",
"218.05 215.338 OFFCURVE",
"228.242 227.585 OFFCURVE",
"239.323 230.047 CURVE",
"236.188 229.216 LINE",
"179.346 211.647 OFFCURVE",
"86.79 196 OFFCURVE",
"40 196 CURVE SMOOTH",
"0 196 LINE SMOOTH",
"-155.865 196 OFFCURVE",
"-155.865 -40 OFFCURVE",
"0 -40 CURVE SMOOTH"
);
}
);
width = 471;
}
);
unicode = FEDF;
},
{
glyphname = "meem-ar";
lastChange = "2016-01-29 16:26:51 +0000";
layers = (
{
anchors = (
{
name = bottom;
position = "{259, -832}";
},
{
name = top;
position = "{555, 918}";
}
);
layerId = "3D7C20C2-9735-4AE4-B4D3-DDFDA9BF3443";
name = Regular;
paths = (
{
closed = 1;
nodes = (
"318 -634 LINE SMOOTH",
"327 -630 OFFCURVE",
"329 -624 OFFCURVE",
"328 -616 CURVE SMOOTH",
"248 30 LINE SMOOTH",
"246 48 OFFCURVE",
"253 60 OFFCURVE",
"270 66 CURVE SMOOTH",
"455 129 OFFCURVE",
"697 138 OFFCURVE",
"899 120 CURVE SMOOTH",
"917 118 OFFCURVE",
"928 128 OFFCURVE",
"932 146 CURVE SMOOTH",
"943 194 OFFCURVE",
"953 243 OFFCURVE",
"964 291 CURVE SMOOTH",
"967 304 OFFCURVE",
"969 314 OFFCURVE",
"968 327 CURVE",
"967 369 OFFCURVE",
"953 415 OFFCURVE",
"931 459 CURVE SMOOTH",
"852 617 OFFCURVE",
"666 767 OFFCURVE",
"553 767 CURVE SMOOTH",
"353 767 OFFCURVE",
"296 549 OFFCURVE",
"295 395 CURVE SMOOTH",
"294 217 LINE",
"211 172 OFFCURVE",
"138 82 OFFCURVE",
"152 -119 CURVE SMOOTH",
"187 -670 LINE SMOOTH",
"188 -681 OFFCURVE",
"195 -685 OFFCURVE",
"205 -681 CURVE SMOOTH"
);
},
{
closed = 1;
nodes = (
"425 255 OFFCURVE",
"412 262 OFFCURVE",
"407 281 CURVE SMOOTH",
"379 377 LINE SMOOTH",
"375 392 OFFCURVE",
"375 402 OFFCURVE",
"380 416 CURVE SMOOTH",
"406 494 OFFCURVE",
"451 596 OFFCURVE",
"535 596 CURVE SMOOTH",
"658 596 OFFCURVE",
"800 446 OFFCURVE",
"882 275 CURVE",
"728 287 OFFCURVE",
"581 285 OFFCURVE",
"443 259 CURVE SMOOTH"
);
}
);
width = 1088;
},
{
anchors = (
{
name = bottom;
position = "{259, -832}";
},
{
name = top;
position = "{555, 918}";
}
);
layerId = "BE58D163-656C-4DD5-ACF8-D2DBE947AA26";
name = Bold;
paths = (
{
closed = 1;
nodes = (
"220.361 -717.933 LINE",
"333.361 -670.933 LINE",
"334.246 -670.552 LINE SMOOTH",
"358.454 -659.793 OFFCURVE",
"370.993 -637.451 OFFCURVE",
"367.691 -611.039 CURVE SMOOTH",
"287.697 34.916 LINE",
"287.755 34.417 LINE",
"287.496 36.754 OFFCURVE",
"283.28 28.269 OFFCURVE",
"283.313 28.28 CURVE SMOOTH",
"439.905 81.604 OFFCURVE",
"663.924 100.789 OFFCURVE",
"895.45 80.158 CURVE",
"894.583 80.245 LINE",
"932.198 76.065 OFFCURVE",
"962.505 98.883 OFFCURVE",
"971.047 137.323 CURVE SMOOTH",
"982.096 185.532 OFFCURVE",
"992.096 234.532 OFFCURVE",
"1002.989 282.065 CURVE SMOOTH",
"1007.544 301.801 OFFCURVE",
"1008.95 314.633 OFFCURVE",
"1007.962 328.972 CURVE",
"1006.693 373.895 OFFCURVE",
"992.074 426.295 OFFCURVE",
"966.777 476.889 CURVE SMOOTH",
"881.354 647.735 OFFCURVE",
"683.048 807 OFFCURVE",
"553 807 CURVE SMOOTH",
"371.69 807 OFFCURVE",
"256.611 643.183 OFFCURVE",
"255 395.26 CURVE SMOOTH",
"254.128 239.877 LINE",
"147.12 171.156 OFFCURVE",
"100.159 49.616 OFFCURVE",
"112.097 -121.779 CURVE SMOOTH",
"147.107 -672.958 LINE SMOOTH",
"150.189 -711.044 OFFCURVE",
"184.518 -732.274 OFFCURVE",
"219.856 -718.139 CURVE SMOOTH"
);
},
{
closed = 1;
nodes = (
"436.852 296.988 OFFCURVE",
"445.261 291.601 OFFCURVE",
"445.683 291.18 CURVE",
"445.4 292.2 LINE",
"417.4 388.2 LINE",
"417.649 387.307 LINE",
"415.256 396.282 OFFCURVE",
"415.334 396.007 OFFCURVE",
"417.67 402.547 CURVE SMOOTH",
"417.947 403.351 LINE SMOOTH",
"452.399 506.706 OFFCURVE",
"491.169 556 OFFCURVE",
"535 556 CURVE SMOOTH",
"618.996 556 OFFCURVE",
"730.81 459.971 OFFCURVE",
"813.125 319.458 CURVE",
"671.29 326.361 OFFCURVE",
"546.855 319.341 OFFCURVE",
"434.817 298.044 CURVE"
);
}
);
width = 1088;
}
);
unicode = 0645;
},
{
glyphname = "meem-ar.fina";
lastChange = "2016-01-29 16:26:50 +0000";
layers = (
{
anchors = (
{
name = bottom;
position = "{293, -831}";
},
{
name = top;
position = "{768, 728}";
}
);
layerId = "3D7C20C2-9735-4AE4-B4D3-DDFDA9BF3443";
name = Regular;
paths = (
{
closed = 1;
nodes = (
"320 -634 LINE",
"328 -630 OFFCURVE",
"332 -624 OFFCURVE",
"331 -616 CURVE SMOOTH",
"252 212 LINE SMOOTH",
"251 220 OFFCURVE",
"255 227 OFFCURVE",
"263 230 CURVE",
"307 268 OFFCURVE",
"356 296 OFFCURVE",
"403 312 CURVE SMOOTH",
"421 318 OFFCURVE",
"431 308 OFFCURVE",
"431 295 CURVE SMOOTH",
"431 96 OFFCURVE",
"490 -123 OFFCURVE",
"655 -198 CURVE SMOOTH",
"754 -243 OFFCURVE",
"791 -204 OFFCURVE",
"862 -97 CURVE SMOOTH",
"981 83 LINE SMOOTH",
"987 92 OFFCURVE",
"994 92 OFFCURVE",
"1002 85 CURVE SMOOTH",
"1069 26 OFFCURVE",
"1150 0 OFFCURVE",
"1268 0 CURVE",
"1310 52 OFFCURVE",
"1310 104 OFFCURVE",
"1268 156 CURVE",
"1228 156 LINE SMOOTH",
"1027 156 OFFCURVE",
"928 373 OFFCURVE",
"845 539 CURVE SMOOTH",
"829 571 OFFCURVE",
"804 583 OFFCURVE",
"768 576 CURVE SMOOTH",
"273 490 OFFCURVE",
"137 311 OFFCURVE",
"151 75 CURVE SMOOTH",
"194 -670 LINE SMOOTH",
"195 -682 OFFCURVE",
"201 -686 OFFCURVE",
"212 -681 CURVE SMOOTH"
);
},
{
closed = 1;
nodes = (
"670 -49 OFFCURVE",
"518 92 OFFCURVE",
"518 323 CURVE SMOOTH",
"518 341 OFFCURVE",
"525 350 OFFCURVE",
"533 352 CURVE",
"602 380 OFFCURVE",
"675 401 OFFCURVE",
"755 412 CURVE",
"763 414 OFFCURVE",
"770 410 OFFCURVE",
"774 402 CURVE SMOOTH",
"816 321 OFFCURVE",
"861 244 OFFCURVE",
"906 191 CURVE SMOOTH",
"911 185 OFFCURVE",
"913 178 OFFCURVE",
"910 171 CURVE",
"797 -49 LINE",
"793 -58 OFFCURVE",
"788 -61 OFFCURVE",
"779 -60 CURVE SMOOTH"
);
}
);
width = 1268;
},
{
anchors = (
{
name = bottom;
position = "{293, -831}";
},
{
name = top;
position = "{768, 728}";
}
);
layerId = "BE58D163-656C-4DD5-ACF8-D2DBE947AA26";
name = Bold;
paths = (
{
closed = 1;
nodes = (
"227.961 -717.677 LINE",
"336.741 -670.338 LINE",
"359.904 -659.266 OFFCURVE",
"372.854 -637.94 OFFCURVE",
"370.977 -613.858 CURVE SMOOTH",
"291.819 215.799 LINE",
"291.691 216.961 LINE",
"291.691 216.961 OFFCURVE",
"291.691 216.961 OFFCURVE",
"291.691 216.961 CURVE",
"316.081 221.206 LINE",
"347.896 244.558 OFFCURVE",
"381.651 262.478 OFFCURVE",
"415.891 274.134 CURVE",
"405.6 270.703 OFFCURVE",
"391 283.487 OFFCURVE",
"391 295 CURVE",
"391 34.016 OFFCURVE",
"481.837 -163.228 OFFCURVE",
"638.448 -234.415 CURVE SMOOTH",
"747.62 -284.038 OFFCURVE",
"803.851 -256.978 OFFCURVE",
"895.33 -119.116 CURVE SMOOTH",
"1014.367 60.94 LINE",
"1006.872 49.697 OFFCURVE",
"985.552 46.241 OFFCURVE",
"975.66 54.897 CURVE",
"1053.285 -13.459 OFFCURVE",
"1150.298 -42.743 OFFCURVE",
"1286.306 -39.799 CURVE",
"1357.319 35.684 OFFCURVE",
"1357.256 120.534 OFFCURVE",
"1286.117 196 CURVE",
"1228 196 LINE SMOOTH",
"1052.717 196 OFFCURVE",
"964.096 390.251 OFFCURVE",
"880.777 556.889 CURVE SMOOTH",
"856.74 604.962 OFFCURVE",
"813.911 625.676 OFFCURVE",
"760.365 615.265 CURVE",
"761.153 615.41 LINE",
"299.611 535.223 OFFCURVE",
"93.654 366.212 OFFCURVE",
"111.07 72.631 CURVE SMOOTH",
"154.09 -672.713 LINE SMOOTH",
"157.115 -713.124 OFFCURVE",
"192.605 -733.754 OFFCURVE",
"228.552 -717.415 CURVE"
);
},
{
closed = 1;
nodes = (
"665.446 -8.337 OFFCURVE",
"558 152.059 OFFCURVE",
"558 323 CURVE SMOOTH",
"558 351.344 OFFCURVE",
"567.124 321.865 OFFCURVE",
"545.409 313.941 CURVE",
"617.115 343.196 OFFCURVE",
"687.495 362.342 OFFCURVE",
"760.449 372.373 CURVE",
"764.701 373.194 LINE",
"754.869 370.736 OFFCURVE",
"742.559 375.439 OFFCURVE",
"738.223 384.111 CURVE",
"738.49 383.587 LINE SMOOTH",
"789.511 285.19 OFFCURVE",
"834.424 213.499 OFFCURVE",
"875.508 165.111 CURVE",
"870.781 170.78 OFFCURVE",
"870.314 179.944 OFFCURVE",
"873.234 186.757 CURVE SMOOTH",
"874.419 189.276 LINE",
"761.419 -30.724 LINE",
"760.448 -32.754 LINE",
"763.656 -25.536 OFFCURVE",
"775.425 -19.357 OFFCURVE",
"783.417 -20.245 CURVE"
);
}
);
width = 1268;
}
);
unicode = FEE2;
},
{
glyphname = "meem-ar.medi";
lastChange = "2016-01-29 16:26:51 +0000";
layers = (
{
anchors = (
{
name = bottom;
position = "{576, -174}";
},
{
name = top;
position = "{645, 869}";
}
);
layerId = "3D7C20C2-9735-4AE4-B4D3-DDFDA9BF3443";
name = Regular;
paths = (
{
closed = 1;
nodes = (
"831 -62 OFFCURVE",
"849 23 OFFCURVE",
"894 112 CURVE",
"949 32 OFFCURVE",
"1039 0 OFFCURVE",
"1108 0 CURVE SMOOTH",
"1148 0 LINE",
"1190 52 OFFCURVE",
"1190 104 OFFCURVE",
"1148 156 CURVE",
"975 156 OFFCURVE",
"915 247 OFFCURVE",
"881 325 CURVE SMOOTH",
"749 625 LINE SMOOTH",
"723 683 OFFCURVE",
"678 805 OFFCURVE",
"502 688 CURVE SMOOTH",
"385 607 OFFCURVE",
"251 439 OFFCURVE",
"216 199 CURVE SMOOTH",
"215 191 OFFCURVE",
"210 186 OFFCURVE",
"202 184 CURVE",
"157 170 OFFCURVE",
"88 156 OFFCURVE",
"0 156 CURVE SMOOTH",
"-103 156 OFFCURVE",
"-103 0 OFFCURVE",
"0 0 CURVE SMOOTH",
"115 0 OFFCURVE",
"184 19 OFFCURVE",
"252 86 CURVE SMOOTH",
"257 91 OFFCURVE",
"264 93 OFFCURVE",
"272 91 CURVE SMOOTH",
"645 -3 LINE"
);
},
{
closed = 1;
nodes = (
"323 248 LINE SMOOTH",
"314 250 OFFCURVE",
"309 256 OFFCURVE",
"312 266 CURVE SMOOTH",
"359 430 OFFCURVE",
"490 533 OFFCURVE",
"590 571 CURVE SMOOTH",
"606 577 OFFCURVE",
"611 562 OFFCURVE",
"613 558 CURVE SMOOTH",
"802 147 LINE SMOOTH",
"807 136 OFFCURVE",
"801 128 OFFCURVE",
"789 131 CURVE SMOOTH"
);
}
);
width = 1148;
},
{
anchors = (
{
name = bottom;
position = "{576, -174}";
},
{
name = top;
position = "{645, 869}";
}
);
layerId = "BE58D163-656C-4DD5-ACF8-D2DBE947AA26";
name = Bold;
paths = (
{
closed = 1;
nodes = (
"828.805 -81.067 OFFCURVE",
"873.055 -22.533 OFFCURVE",
"904.109 40.083 CURVE",
"959.087 -10.051 OFFCURVE",
"1033.276 -40 OFFCURVE",
"1108 -40 CURVE SMOOTH",
"1166.117 -40 LINE",
"1237.415 35.634 OFFCURVE",
"1237.319 120.694 OFFCURVE",
"1165.83 196.303 CURVE",
"1035.721 191.986 OFFCURVE",
"964.538 233.457 OFFCURVE",
"917.668 340.983 CURVE SMOOTH",
"785.613 641.11 LINE SMOOTH",
"760.057 698.12 OFFCURVE",
"698.011 866.335 OFFCURVE",
"479.856 721.311 CURVE SMOOTH",
"479.232 720.888 LINE SMOOTH",
"321.659 611.799 OFFCURVE",
"207.294 416.486 OFFCURVE",
"176.419 204.772 CURVE SMOOTH",
"176.309 203.961 LINE",
"177.486 213.379 OFFCURVE",
"185.917 222.739 OFFCURVE",
"195.126 223.51 CURVE",
"139.282 205.676 OFFCURVE",
"70.505 196 OFFCURVE",
"0 196 CURVE SMOOTH",
"-155.865 196 OFFCURVE",
"-155.865 -40 OFFCURVE",
"0 -40 CURVE SMOOTH",
"131.212 -40 OFFCURVE",
"208.045 -13.463 OFFCURVE",
"280.074 57.507 CURVE",
"275.823 53.254 OFFCURVE",
"268.223 50.713 OFFCURVE",
"262.299 52.194 CURVE",
"698.821 -57.814 LINE"
);
},
{
closed = 1;
nodes = (
"332.741 286.796 LINE",
"331.677 287.047 LINE",
"344.123 284.282 OFFCURVE",
"354.202 267.468 OFFCURVE",
"350.313 254.506 CURVE",
"385.96 378.881 OFFCURVE",
"486.589 488.913 OFFCURVE",
"604.209 533.609 CURVE",
"588.155 527.588 OFFCURVE",
"579.817 536.241 OFFCURVE",
"577.306 539.879 CURVE",
"765.658 130.288 LINE",
"756.872 149.617 OFFCURVE",
"778.222 174.925 OFFCURVE",
"798.701 169.806 CURVE"
);
}
);
width = 1148;
}
);
unicode = FEE4;
},
{
glyphname = "meem-ar.init";
lastChange = "2016-01-29 16:26:50 +0000";
layers = (
{
anchors = (
{
name = bottom;
position = "{538, -200}";
},
{
name = top;
position = "{653, 879}";
}
);
layerId = "3D7C20C2-9735-4AE4-B4D3-DDFDA9BF3443";
name = Regular;
paths = (
{
closed = 1;
nodes = (
"40 0 LINE SMOOTH",
"139 0 OFFCURVE",
"199 67 OFFCURVE",
"252 131 CURVE",
"257 138 OFFCURVE",
"264 140 OFFCURVE",
"272 137 CURVE SMOOTH",
"661 0 LINE SMOOTH",
"867 -72 OFFCURVE",
"850 -53 OFFCURVE",
"975 122 CURVE SMOOTH",
"979 128 OFFCURVE",
"981 142 OFFCURVE",
"980 150 CURVE SMOOTH",
"954 399 OFFCURVE",
"835 729 OFFCURVE",
"653 729 CURVE SMOOTH",
"449 729 OFFCURVE",
"354 475 OFFCURVE",
"241 305 CURVE SMOOTH",
"160 185 OFFCURVE",
"114 156 OFFCURVE",
"0 156 CURVE SMOOTH",
"-103 156 OFFCURVE",
"-103 0 OFFCURVE",
"0 0 CURVE SMOOTH"
);
},
{
closed = 1;
nodes = (
"373 286 LINE SMOOTH",
"364 289 OFFCURVE",
"360 296 OFFCURVE",
"365 305 CURVE SMOOTH",
"408 384 OFFCURVE",
"489 555 OFFCURVE",
"611 555 CURVE SMOOTH",
"727 555 OFFCURVE",
"804 317 OFFCURVE",
"844 141 CURVE SMOOTH",
"847 129 OFFCURVE",
"841 117 OFFCURVE",
"826 122 CURVE SMOOTH"
);
}
);
width = 1100;
},
{
anchors = (
{
name = bottom;
position = "{538, -200}";
},
{
name = top;
position = "{653, 879}";
}
);
layerId = "BE58D163-656C-4DD5-ACF8-D2DBE947AA26";
name = Bold;
paths = (
{
closed = 1;
nodes = (
"40 -40 LINE SMOOTH",
"162.407 -40 OFFCURVE",
"236.073 48.732 OFFCURVE",
"288.884 114.74 CURVE",
"285.683 102.464 OFFCURVE",
"269.359 95.27 OFFCURVE",
"257.955 99.547 CURVE",
"258.713 99.271 LINE",
"647.713 -37.729 LINE SMOOTH",
"930.849 -136.689 OFFCURVE",
"938.987 2.973 OFFCURVE",
"1007.717 98.987 CURVE SMOOTH",
"1016.718 111.734 OFFCURVE",
"1021.953 136.868 OFFCURVE",
"1019.691 154.961 CURVE",
"1019.784 154.154 LINE",
"983.4 502.6 OFFCURVE",
"830.055 769 OFFCURVE",
"653 769 CURVE SMOOTH",
"421.254 769 OFFCURVE",
"318.144 493.316 OFFCURVE",
"207.688 327.143 CURVE SMOOTH",
"133.429 217.132 OFFCURVE",
"99.185 196 OFFCURVE",
"0 196 CURVE SMOOTH",
"-155.865 196 OFFCURVE",
"-155.865 -40 OFFCURVE",
"0 -40 CURVE SMOOTH"
);
},
{
closed = 1;
nodes = (
"839.616 159.611 LINE",
"386.616 323.611 LINE",
"385.649 323.947 LINE",
"399.877 319.205 OFFCURVE",
"407.336 298.839 OFFCURVE",
"399.966 285.574 CURVE",
"443.669 365.863 OFFCURVE",
"514.313 515 OFFCURVE",
"611 515 CURVE SMOOTH",
"675.193 515 OFFCURVE",
"750.66 371.21 OFFCURVE",
"804.995 132.135 CURVE SMOOTH",
"805.194 131.299 LINE",
"801.175 147.377 OFFCURVE",
"821.935 165.519 OFFCURVE",
"838.649 159.947 CURVE SMOOTH"
);
}
);
width = 1100;
}
);
unicode = FEE3;
},
{
glyphname = "noonghunna-ar";
lastChange = "2016-01-29 16:26:51 +0000";
layers = (
{
anchors = (
{
name = bottom;
position = "{621, -612}";
},
{
name = top;
position = "{597, 367}";
}
);
layerId = "3D7C20C2-9735-4AE4-B4D3-DDFDA9BF3443";
name = Regular;
paths = (
{
closed = 1;
nodes = (
"711 -462 OFFCURVE",
"1023 -371 OFFCURVE",
"1127 -236 CURVE SMOOTH",
"1174 -175 OFFCURVE",
"1166 -109 OFFCURVE",
"1156 5 CURVE",
"1094 495 LINE SMOOTH",
"1092 511 OFFCURVE",
"1077 516 OFFCURVE",
"1065 507 CURVE SMOOTH",
"969 436 LINE SMOOTH",
"965 433 OFFCURVE",
"963 428 OFFCURVE",
"964 423 CURVE",
"1057 -154 LINE SMOOTH",
"1058 -160 OFFCURVE",
"1055 -167 OFFCURVE",
"1049 -169 CURVE",
"997 -203 OFFCURVE",
"808 -287 OFFCURVE",
"538 -287 CURVE SMOOTH",
"342 -287 OFFCURVE",
"220 -188 OFFCURVE",
"265 53 CURVE SMOOTH",
"295 198 LINE SMOOTH",
"297 208 OFFCURVE",
"290 215 OFFCURVE",
"281 216 CURVE SMOOTH",
"217 225 LINE SMOOTH",
"209 226 OFFCURVE",
"202 222 OFFCURVE",
"200 213 CURVE SMOOTH",
"164 33 LINE SMOOTH",
"113 -221 OFFCURVE",
"194 -462 OFFCURVE",
"514 -462 CURVE SMOOTH"
);
}
);
width = 1284;
},
{
anchors = (
{
name = bottom;
position = "{621, -612}";
},
{
name = top;
position = "{597, 367}";
}
);
layerId = "BE58D163-656C-4DD5-ACF8-D2DBE947AA26";
name = Bold;
paths = (
{
closed = 1;
nodes = (
"757.002 -502 OFFCURVE",
"1058.49 -390.476 OFFCURVE",
"1158.688 -260.411 CURVE SMOOTH",
"1215.808 -186.276 OFFCURVE",
"1205.744 -104.478 OFFCURVE",
"1195.78 9.259 CURVE",
"1133.684 500.021 LINE SMOOTH",
"1127.925 546.092 OFFCURVE",
"1077.764 566.573 OFFCURVE",
"1041 539 CURVE SMOOTH",
"945.215 468.16 LINE SMOOTH",
"929.63 456.473 OFFCURVE",
"921.592 436.795 OFFCURVE",
"924.308 417.887 CURVE SMOOTH",
"1017.51 -160.365 LINE",
"1015.941 -150.958 OFFCURVE",
"1020.177 -141.514 OFFCURVE",
"1027.658 -135.433 CURVE",
"978.808 -167.312 OFFCURVE",
"800.245 -247 OFFCURVE",
"538 -247 CURVE SMOOTH",
"345.832 -247 OFFCURVE",
"267.864 -149.585 OFFCURVE",
"304.32 45.658 CURVE",
"304.17 44.896 LINE",
"334.17 189.896 LINE SMOOTH",
"340.49 221.49 OFFCURVE",
"319.749 250.389 OFFCURVE",
"288.212 255.379 CURVE SMOOTH",
"222.57 264.61 LINE",
"221.961 264.691 LINE SMOOTH",
"193.06 268.304 OFFCURVE",
"167.273 250.121 OFFCURVE",
"160.953 221.677 CURVE SMOOTH",
"160.777 220.845 LINE",
"124.777 40.845 LINE SMOOTH",
"58.75 -287.994 OFFCURVE",
"210.178 -502 OFFCURVE",
"514 -502 CURVE SMOOTH"
);
}
);
width = 1284;
}
);
unicode = 06BA;
},
{
glyphname = "noonghunna-ar.fina";
lastChange = "2016-01-29 16:26:50 +0000";
layers = (
{
anchors = (
{
name = bottom;
position = "{623, -612}";
},
{
name = top;
position = "{599, 367}";
}
);
layerId = "3D7C20C2-9735-4AE4-B4D3-DDFDA9BF3443";
name = Regular;
paths = (
{
closed = 1;
nodes = (
"713 -462 OFFCURVE",
"1025 -371 OFFCURVE",
"1129 -236 CURVE SMOOTH",
"1171 -181 OFFCURVE",
"1172 -148 OFFCURVE",
"1153 54 CURVE",
"1197 19 OFFCURVE",
"1244 0 OFFCURVE",
"1391 0 CURVE SMOOTH",
"1431 0 LINE",
"1473 52 OFFCURVE",
"1473 104 OFFCURVE",
"1431 156 CURVE",
"1391 156 LINE SMOOTH",
"1197 156 OFFCURVE",
"1142 172 OFFCURVE",
"1118 317 CURVE",
"1109 426 LINE SMOOTH",
"1108 442 OFFCURVE",
"1092 447 OFFCURVE",
"1080 438 CURVE SMOOTH",
"984 367 LINE SMOOTH",
"980 364 OFFCURVE",
"978 359 OFFCURVE",
"979 354 CURVE",
"1059 -154 LINE SMOOTH",
"1060 -160 OFFCURVE",
"1057 -167 OFFCURVE",
"1051 -169 CURVE",
"979 -203 OFFCURVE",
"810 -287 OFFCURVE",
"540 -287 CURVE SMOOTH",
"334 -287 OFFCURVE",
"222 -188 OFFCURVE",
"267 53 CURVE SMOOTH",
"297 198 LINE SMOOTH",
"299 208 OFFCURVE",
"292 215 OFFCURVE",
"283 216 CURVE SMOOTH",
"219 225 LINE SMOOTH",
"211 226 OFFCURVE",
"204 222 OFFCURVE",
"202 213 CURVE SMOOTH",
"166 33 LINE SMOOTH",
"115 -221 OFFCURVE",
"176 -462 OFFCURVE",
"516 -462 CURVE SMOOTH"
);
}
);
width = 1431;
},
{
anchors = (
{
name = bottom;
position = "{623, -612}";
},
{
name = top;
position = "{599, 367}";
}
);
layerId = "BE58D163-656C-4DD5-ACF8-D2DBE947AA26";
name = Bold;
paths = (
{
closed = 1;
nodes = (
"759.002 -502 OFFCURVE",
"1060.49 -390.476 OFFCURVE",
"1160.688 -260.411 CURVE SMOOTH",
"1203.5 -204.347 OFFCURVE",
"1211.466 -167.865 OFFCURVE",
"1199.454 -17.346 CURVE",
"1245.757 -33.913 OFFCURVE",
"1304.109 -40 OFFCURVE",
"1391 -40 CURVE SMOOTH",
"1449.117 -40 LINE",
"1520.319 35.533 OFFCURVE",
"1520.319 120.467 OFFCURVE",
"1449.117 196 CURVE",
"1391 196 LINE SMOOTH",
"1201.969 196 OFFCURVE",
"1176.411 210.36 OFFCURVE",
"1157.728 321.938 CURVE",
"1148.864 429.292 LINE",
"1148.922 428.495 LINE",
"1145.979 475.579 OFFCURVE",
"1094.157 498.618 OFFCURVE",
"1056 470 CURVE SMOOTH",
"960.215 399.16 LINE SMOOTH",
"944.702 387.526 OFFCURVE",
"936.667 367.978 OFFCURVE",
"939.271 349.151 CURVE SMOOTH",
"1019.487 -160.223 LINE",
"1017.683 -149.406 OFFCURVE",
"1023.697 -138.47 OFFCURVE",
"1033.708 -132.996 CURVE",
"961.2 -167.178 OFFCURVE",
"800.319 -247 OFFCURVE",
"540 -247 CURVE SMOOTH",
"343.09 -247 OFFCURVE",
"268.964 -154.408 OFFCURVE",
"306.32 45.658 CURVE",
"306.17 44.896 LINE",
"336.17 189.896 LINE SMOOTH",
"342.49 221.49 OFFCURVE",
"321.749 250.389 OFFCURVE",
"290.212 255.379 CURVE SMOOTH",
"224.57 264.61 LINE",
"223.961 264.691 LINE SMOOTH",
"195.06 268.304 OFFCURVE",
"169.273 250.121 OFFCURVE",
"162.953 221.677 CURVE SMOOTH",
"162.777 220.845 LINE",
"126.777 40.845 LINE SMOOTH",
"58.332 -300.038 OFFCURVE",
"201.719 -502 OFFCURVE",
"516 -502 CURVE SMOOTH"
);
}
);
width = 1431;
}
);
unicode = FB9F;
},
{
glyphname = "heh-ar";
lastChange = "2016-01-29 16:26:50 +0000";
layers = (
{
anchors = (
{
name = bottom;
position = "{407, -172}";
},
{
name = top;
position = "{325, 840}";
}
);
layerId = "3D7C20C2-9735-4AE4-B4D3-DDFDA9BF3443";
name = Regular;
paths = (
{
closed = 1;
nodes = (
"507 -31 OFFCURVE",
"649 131 OFFCURVE",
"671 301 CURVE SMOOTH",
"693 470 OFFCURVE",
"500 581 OFFCURVE",
"342 679 CURVE",
"331 685 OFFCURVE",
"321 683 OFFCURVE",
"314 672 CURVE",
"225 518 OFFCURVE",
"156 357 OFFCURVE",
"150 215 CURVE SMOOTH",
"145 72 OFFCURVE",
"220 -31 OFFCURVE",
"347 -31 CURVE SMOOTH"
);
},
{
closed = 1;
nodes = (
"287 135 OFFCURVE",
"224 182 OFFCURVE",
"222 277 CURVE SMOOTH",
"220 346 OFFCURVE",
"251 412 OFFCURVE",
"303 502 CURVE",
"309 514 OFFCURVE",
"319 515 OFFCURVE",
"331 509 CURVE SMOOTH",
"449 447 OFFCURVE",
"522 396 OFFCURVE",
"594 326 CURVE SMOOTH",
"602 318 OFFCURVE",
"603 309 OFFCURVE",
"598 299 CURVE SMOOTH",
"542 188 OFFCURVE",
"449 131 OFFCURVE",
"362 133 CURVE SMOOTH"
);
}
);
width = 793;
},
{
anchors = (
{
name = bottom;
position = "{407, -172}";
},
{
name = top;
position = "{325, 840}";
}
);
layerId = "BE58D163-656C-4DD5-ACF8-D2DBE947AA26";
name = Bold;
paths = (
{
closed = 1;
nodes = (
"520.258 -71 OFFCURVE",
"684.95 97.126 OFFCURVE",
"710.669 295.866 CURVE SMOOTH",
"736.158 491.668 OFFCURVE",
"519.809 615.75 OFFCURVE",
"362.308 713.473 CURVE",
"331.886 730.765 OFFCURVE",
"297.988 722.212 OFFCURVE",
"279.718 692.62 CURVE SMOOTH",
"172.78 507.717 OFFCURVE",
"115.566 347.579 OFFCURVE",
"110.036 216.689 CURVE SMOOTH",
"104.086 46.556 OFFCURVE",
"200.197 -71 OFFCURVE",
"347 -71 CURVE SMOOTH"
);
},
{
closed = 1;
nodes = (
"300.57 174.652 OFFCURVE",
"263.354 213.097 OFFCURVE",
"261.991 277.842 CURVE SMOOTH",
"260.466 330.489 OFFCURVE",
"279.408 381.491 OFFCURVE",
"338.942 484.343 CURVE",
"335.317 476.677 OFFCURVE",
"320.076 469.741 OFFCURVE",
"313.111 473.223 CURVE SMOOTH",
"312.395 473.59 LINE",
"426.791 413.484 OFFCURVE",
"496.432 365.069 OFFCURVE",
"566.117 297.32 CURVE",
"565.716 297.716 LINE SMOOTH",
"561.73 301.702 OFFCURVE",
"559.701 311.844 OFFCURVE",
"562.223 316.889 CURVE",
"516.223 225.712 OFFCURVE",
"439.914 171.219 OFFCURVE",
"362.919 172.989 CURVE SMOOTH"
);
}
);
width = 793;
}
);
unicode = 0647;
},
{
glyphname = "heh-ar.fina";
lastChange = "2016-01-29 16:26:50 +0000";
layers = (
{
anchors = (
{
name = bottom;
position = "{439, -143}";
},
{
name = top;
position = "{605, 1105}";
}
);
layerId = "3D7C20C2-9735-4AE4-B4D3-DDFDA9BF3443";
name = Regular;
paths = (
{
closed = 1;
nodes = (
"983 0 LINE",
"1025 52 OFFCURVE",
"1025 104 OFFCURVE",
"983 156 CURVE",
"943 156 LINE SMOOTH",
"807 156 OFFCURVE",
"737 209 OFFCURVE",
"723 360 CURVE SMOOTH",
"670 949 LINE SMOOTH",
"669 960 OFFCURVE",
"661 965 OFFCURVE",
"651 958 CURVE SMOOTH",
"545 889 LINE",
"538 885 OFFCURVE",
"536 879 OFFCURVE",
"537 870 CURVE",
"565 697 LINE",
"566 689 OFFCURVE",
"563 682 OFFCURVE",
"555 678 CURVE SMOOTH",
"357 579 OFFCURVE",
"168 430 OFFCURVE",
"150 184 CURVE",
"149 177 OFFCURVE",
"152 160 OFFCURVE",
"153 153 CURVE",
"173 65 OFFCURVE",
"338 43 OFFCURVE",
"480 47 CURVE SMOOTH",
"613 51 OFFCURVE",
"639 107 OFFCURVE",
"656 172 CURVE",
"704 50 OFFCURVE",
"791 0 OFFCURVE",
"943 0 CURVE SMOOTH"
);
},
{
closed = 1;
nodes = (
"499 183 OFFCURVE",
"311 204 OFFCURVE",
"229 258 CURVE",
"224 261 OFFCURVE",
"223 267 OFFCURVE",
"227 276 CURVE SMOOTH",
"274 373 OFFCURVE",
"405 481 OFFCURVE",
"571 555 CURVE",
"581 559 OFFCURVE",
"588 555 OFFCURVE",
"589 545 CURVE",
"635 229 LINE",
"636 219 OFFCURVE",
"632 214 OFFCURVE",
"623 212 CURVE SMOOTH"
);
}
);
width = 983;
},
{
anchors = (
{
name = bottom;
position = "{439, -143}";
},
{
name = top;
position = "{605, 1105}";
}
);
layerId = "BE58D163-656C-4DD5-ACF8-D2DBE947AA26";
name = Bold;
paths = (
{
closed = 1;
nodes = (
"1001.117 -40 LINE",
"1072.319 35.533 OFFCURVE",
"1072.319 120.467 OFFCURVE",
"1001.117 196 CURVE",
"943 196 LINE SMOOTH",
"821.464 196 OFFCURVE",
"774.319 239.772 OFFCURVE",
"762.829 363.693 CURVE SMOOTH",
"709.839 952.585 LINE SMOOTH",
"706.104 993.676 OFFCURVE",
"665.112 1013.905 OFFCURVE",
"630.969 992.689 CURVE SMOOTH",
"520.309 920.655 LINE",
"502.607 908.214 OFFCURVE",
"494.406 888.011 OFFCURVE",
"497.383 864.42 CURVE",
"525.514 690.609 LINE",
"525.309 692.039 LINE SMOOTH",
"524.268 700.367 OFFCURVE",
"529.555 710 OFFCURVE",
"537.111 713.777 CURVE",
"268.102 579.273 OFFCURVE",
"126.428 406.125 OFFCURVE",
"110.162 187.636 CURVE SMOOTH",
"108.703 172.261 OFFCURVE",
"113.666 147.391 OFFCURVE",
"113.611 145.73 CURVE",
"134.434 48.198 OFFCURVE",
"269.806 1.063 OFFCURVE",
"481.126 7.016 CURVE SMOOTH",
"568.526 9.644 OFFCURVE",
"624.099 31.672 OFFCURVE",
"659.278 80.922 CURVE",
"718.086 -2.051 OFFCURVE",
"809.109 -40 OFFCURVE",
"943 -40 CURVE SMOOTH"
);
},
{
closed = 1;
nodes = (
"499.252 224.138 OFFCURVE",
"324.14 243.818 OFFCURVE",
"251.634 290.953 CURVE",
"261.058 283.849 OFFCURVE",
"267.38 268.929 OFFCURVE",
"263.682 260.004 CURVE",
"307.89 349.528 OFFCURVE",
"432.47 449.451 OFFCURVE",
"587.286 518.466 CURVE",
"585.856 517.861 LINE SMOOTH",
"571.015 511.925 OFFCURVE",
"550.811 524.894 OFFCURVE",
"549.199 541.02 CURVE",
"549.417 539.238 LINE",
"595.417 223.238 LINE",
"595.199 225.02 LINE SMOOTH",
"594.145 235.553 OFFCURVE",
"603.918 248.735 OFFCURVE",
"614.323 251.047 CURVE"
);
}
);
width = 983;
}
);
unicode = FEEA;
},
{
glyphname = "heh-ar.medi";
lastChange = "2016-01-29 16:26:50 +0000";
layers = (
{
anchors = (
{
name = bottom;
position = "{501, -624}";
},
{
name = top;
position = "{552, 1039}";
}
);
layerId = "3D7C20C2-9735-4AE4-B4D3-DDFDA9BF3443";
name = Regular;
paths = (
{
closed = 1;
nodes = (
"699 -506 OFFCURVE",
"704 -501 OFFCURVE",
"706 -492 CURVE",
"775 -231 OFFCURVE",
"697 -75 OFFCURVE",
"625 -7 CURVE",
"622 -3 OFFCURVE",
"631 0 OFFCURVE",
"644 0 CURVE SMOOTH",
"832 0 LINE",
"874 52 OFFCURVE",
"874 104 OFFCURVE",
"832 156 CURVE",
"792 156 LINE SMOOTH",
"697 156 OFFCURVE",
"639 147 OFFCURVE",
"537 137 CURVE SMOOTH",
"524 136 OFFCURVE",
"522 141 OFFCURVE",
"531 150 CURVE",
"725 326 OFFCURVE",
"695 390 OFFCURVE",
"679 796 CURVE",
"678 805 OFFCURVE",
"675 810 OFFCURVE",
"668 814 CURVE SMOOTH",
"560 875 LINE SMOOTH",
"553 879 OFFCURVE",
"546 879 OFFCURVE",
"539 873 CURVE SMOOTH",
"331 699 OFFCURVE",
"206 453 OFFCURVE",
"140 169 CURVE SMOOTH",
"138 160 OFFCURVE",
"133 155 OFFCURVE",
"124 155 CURVE SMOOTH",
"0 156 LINE SMOOTH",
"-103 157 OFFCURVE",
"-103 1 OFFCURVE",
"0 0 CURVE SMOOTH",
"119 -1 LINE SMOOTH",
"128 -1 OFFCURVE",
"134 -6 OFFCURVE",
"135 -16 CURVE SMOOTH",
"167 -317 OFFCURVE",
"391 -515 OFFCURVE",
"690 -506 CURVE SMOOTH"
);
},
{
closed = 1;
nodes = (
"267 151 OFFCURVE",
"258 154 OFFCURVE",
"260 166 CURVE SMOOTH",
"290 361 OFFCURVE",
"398 559 OFFCURVE",
"530 678 CURVE SMOOTH",
"538 685 OFFCURVE",
"544 680 OFFCURVE",
"545 667 CURVE SMOOTH",
"565 289 OFFCURVE",
"565 295 OFFCURVE",
"544 280 CURVE SMOOTH",
"457 217 OFFCURVE",
"369 179 OFFCURVE",
"277 154 CURVE SMOOTH"
);
},
{
closed = 1;
nodes = (
"448 -337 OFFCURVE",
"278 -171 OFFCURVE",
"267 -2 CURVE SMOOTH",
"266 8 OFFCURVE",
"272 13 OFFCURVE",
"282 13 CURVE SMOOTH",
"480 7 OFFCURVE",
"623 -142 OFFCURVE",
"666 -315 CURVE",
"669 -325 OFFCURVE",
"664 -331 OFFCURVE",
"653 -332 CURVE"
);
}
);
width = 832;
},
{
anchors = (
{
name = bottom;
position = "{501, -624}";
},
{
name = top;
position = "{552, 1039}";
}
);
layerId = "BE58D163-656C-4DD5-ACF8-D2DBE947AA26";
name = Bold;
paths = (
{
closed = 1;
nodes = (
"717.57 -545.687 OFFCURVE",
"738.5 -528.386 OFFCURVE",
"744.836 -501.601 CURVE SMOOTH",
"801.987 -284.814 OFFCURVE",
"769.284 -90.269 OFFCURVE",
"654.602 20.043 CURVE",
"689.798 -22.566 OFFCURVE",
"637.33 -40 OFFCURVE",
"644 -40 CURVE SMOOTH",
"850.117 -40 LINE",
"921.319 35.533 OFFCURVE",
"921.319 120.467 OFFCURVE",
"850.117 196 CURVE",
"792 196 LINE SMOOTH",
"694.575 196 OFFCURVE",
"634.635 186.764 OFFCURVE",
"533.097 176.809 CURVE",
"533.932 176.882 LINE SMOOTH",
"558.128 178.743 OFFCURVE",
"576.241 137.045 OFFCURVE",
"558.589 121.037 CURVE",
"773.883 316.605 OFFCURVE",
"734.556 400.263 OFFCURVE",
"718.922 798.752 CURVE",
"716.953 820.751 OFFCURVE",
"706.105 838.296 OFFCURVE",
"687.846 848.73 CURVE SMOOTH",
"579.672 909.829 LINE SMOOTH",
"557.631 922.424 OFFCURVE",
"532.398 920.024 OFFCURVE",
"512.968 903.37 CURVE SMOOTH",
"312.523 735.694 OFFCURVE",
"173.869 491.447 OFFCURVE",
"101.038 178.054 CURVE",
"102.987 186.831 OFFCURVE",
"114.325 195 OFFCURVE",
"124 195 CURVE",
"0.323 195.999 LINE SMOOTH",
"-155.203 197.509 OFFCURVE",
"-156.526 -38.482 OFFCURVE",
"-0.388 -39.998 CURVE SMOOTH",
"118.664 -40.999 LINE",
"108.053 -41 OFFCURVE",
"96.275 -30.746 OFFCURVE",
"95.199 -19.98 CURVE",
"129.442 -342.091 OFFCURVE",
"371.019 -555.403 OFFCURVE",
"690.733 -545.996 CURVE SMOOTH"
);
},
{
closed = 1;
nodes = (
"265.506 192.313 LINE",
"281.929 197.24 OFFCURVE",
"302.487 177.614 OFFCURVE",
"299.456 159.424 CURVE",
"327.551 342.022 OFFCURVE",
"427.524 531.761 OFFCURVE",
"556.783 648.291 CURVE",
"556.34 647.897 LINE SMOOTH",
"540.218 633.79 OFFCURVE",
"506.583 644.887 OFFCURVE",
"505.118 663.932 CURVE SMOOTH",
"505.056 664.887 LINE",
"596.589 -1065.086 OFFCURVE",
"574.385 350.86 OFFCURVE",
"520.75 312.549 CURVE SMOOTH",
"444.043 257.004 OFFCURVE",
"363.217 218.879 OFFCURVE",
"266.511 192.6 CURVE SMOOTH"
);
},
{
closed = 1;
nodes = (
"652.025 -292.012 LINE",
"480.942 -296.185 OFFCURVE",
"320.247 -159.809 OFFCURVE",
"306.914 -3.815 CURVE",
"304.578 -15.61 OFFCURVE",
"293.484 -27 OFFCURVE",
"282 -27 CURVE SMOOTH",
"280.788 -26.982 LINE",
"437.79 -31.739 OFFCURVE",
"571.72 -141.257 OFFCURVE",
"620.848 -301.786 CURVE",
"630.534 -306.445 LINE",
"634.61 -298.866 OFFCURVE",
"641.616 -292.87 OFFCURVE",
"649.379 -292.164 CURVE SMOOTH"
);
}
);
width = 832;
}
);
unicode = FEEC;
},
